SplineFontDB: 3.0
FontName: Merriweather-Bold
FullName: Merriweather Bold
FamilyName: Merriweather
Weight: Bold
Copyright: Copyright (c) 2011, Sorkin Type Co (www.sorkintype.com)\nwith Reserved Font Name "Merriweather".\n\nThis Font Software is licensed under the SIL Open Font License,\nVersion 1.1. This license is available with a FAQ at:\nhttp://scripts.sil.org/OFL
Version: 1.003
ItalicAngle: 0
UnderlinePosition: -95
UnderlineWidth: 196
Ascent: 1638
Descent: 410
LayerCount: 2
Layer: 0 1 "Back"  1
Layer: 1 1 "Fore"  0
XUID: [1021 631 1661839179 9566923]
FSType: 0
OS2Version: 3
OS2_WeightWidthSlopeOnly: 0
OS2_UseTypoMetrics: 1
CreationTime: 1311981300
ModificationTime: 1311969095
PfmFamily: 17
TTFWeight: 700
TTFWidth: 5
LineGap: 0
VLineGap: 0
Panose: 2 6 5 3 5 4 6 3 7 4
OS2TypoAscent: 282
OS2TypoAOffset: 1
OS2TypoDescent: -230
OS2TypoDOffset: 1
OS2TypoLinegap: 0
OS2WinAscent: 0
OS2WinAOffset: 1
OS2WinDescent: 0
OS2WinDOffset: 1
HheadAscent: 0
HheadAOffset: 1
HheadDescent: 0
HheadDOffset: 1
OS2SubXSize: 2937
OS2SubYSize: 2726
OS2SubXOff: 0
OS2SubYOff: 588
OS2SupXSize: 2937
OS2SupYSize: 2726
OS2SupXOff: 0
OS2SupYOff: 2001
OS2StrikeYSize: 198
OS2StrikeYPos: 823
OS2FamilyClass: 768
OS2Vendor: 'STC '
OS2CodePages: 00000001.00000000
OS2UnicodeRanges: 800000a7.50000000.00000000.00000000
Lookup: 4 0 0 "'dlig' Discretionary Ligatures in Latin lookup 0"  {"'dlig' Discretionary Ligatures in Latin lookup 0 subtable"  } ['dlig' ('latn' <'dflt' > ) ]
Lookup: 258 0 0 "'kern' Horizontal Kerning in Latin lookup 0"  {"'kern' Horizontal Kerning in Latin lookup 0 subtable"  } ['kern' ('latn' <'dflt' > ) ]
DEI: 91125
TtTable: prep
PUSHW_1
 511
SCANCTRL
PUSHB_1
 4
SCANTYPE
EndTTInstrs
ShortTable: maxp 16
  1
  0
  345
  127
  7
  0
  0
  1
  0
  0
  0
  0
  0
  0
  0
  0
EndShort

StartChar: .notdef
Encoding: 65536 -1 0
Width: 1770
Flags: W
LayerCount: 2
Fore
SplineSet
177 1416 m 1,0,-1
 1593 1416 l 1,1,-1
 1593 -1 l 1,2,-1
 177 -1 l 1,3,-1
 177 1416 l 1,0,-1
564 206 m 1,4,-1
 880 564 l 1,5,-1
 1224 208 l 1,6,-1
 1381 365 l 1,7,-1
 1024 710 l 1,8,-1
 1384 1054 l 1,9,-1
 1218 1218 l 1,10,-1
 885 853 l 1,11,-1
 543 1213 l 1,12,-1
 384 1050 l 1,13,-1
 738 707 l 1,14,-1
 392 392 l 1,15,-1
 564 206 l 1,4,-1
EndSplineSet
EndChar

StartChar: numbersign
Encoding: 35 35 4
Width: 1464
Flags: W
LayerCount: 2
Fore
SplineSet
348 354 m 1,0,-1
 129 354 l 1,1,-1
 129 533 l 1,2,-1
 361 533 l 1,3,-1
 389 859 l 1,4,-1
 153 859 l 1,5,-1
 153 1036 l 1,6,-1
 400 1036 l 1,7,-1
 433 1355 l 1,8,-1
 644 1355 l 1,9,-1
 618 1036 l 1,10,-1
 892 1036 l 1,11,-1
 919 1355 l 1,12,-1
 1139 1355 l 1,13,-1
 1113 1036 l 1,14,-1
 1335 1036 l 1,15,-1
 1335 859 l 1,16,-1
 1097 859 l 1,17,-1
 1068 533 l 1,18,-1
 1298 533 l 1,19,20
 1298 488 1298 488 1298.5 443.5 c 128,-1,21
 1299 399 1299 399 1299 354 c 1,22,-1
 1055 354 l 1,23,-1
 1024 0 l 1,24,-1
 810 0 l 1,25,-1
 836 354 l 1,26,-1
 567 354 l 1,27,-1
 534 0 l 1,28,-1
 319 0 l 1,29,-1
 348 354 l 1,0,-1
849 533 m 1,30,-1
 876 859 l 1,31,-1
 608 859 l 1,32,-1
 580 533 l 1,33,-1
 849 533 l 1,30,-1
EndSplineSet
EndChar

StartChar: ampersand
Encoding: 38 38 5
Width: 1582
Flags: W
LayerCount: 2
Fore
SplineSet
128 378 m 0,0,1
 128 453 128 453 153.5 511.5 c 128,-1,2
 179 570 179 570 223 616.5 c 128,-1,3
 267 663 267 663 327 699.5 c 128,-1,4
 387 736 387 736 456 768 c 1,5,6
 424 812 424 812 392 858 c 128,-1,7
 360 904 360 904 334.5 953.5 c 128,-1,8
 309 1003 309 1003 294 1056 c 128,-1,9
 279 1109 279 1109 280 1166 c 0,10,11
 281 1263 281 1263 319 1336 c 128,-1,12
 357 1409 357 1409 417.5 1458 c 128,-1,13
 478 1507 478 1507 556 1532 c 128,-1,14
 634 1557 634 1557 715 1557 c 0,15,16
 807 1557 807 1557 881.5 1531.5 c 128,-1,17
 956 1506 956 1506 1008.5 1460.5 c 128,-1,18
 1061 1415 1061 1415 1089.5 1353.5 c 128,-1,19
 1118 1292 1118 1292 1118 1220 c 256,20,21
 1118 1148 1118 1148 1090.5 1082.5 c 128,-1,22
 1063 1017 1063 1017 1016 959.5 c 128,-1,23
 969 902 969 902 907 854 c 128,-1,24
 845 806 845 806 776 770 c 1,25,26
 813 722 813 722 862.5 663 c 128,-1,27
 912 604 912 604 963 544.5 c 128,-1,28
 1014 485 1014 485 1062.5 432 c 128,-1,29
 1111 379 1111 379 1146 344 c 2,30,-1
 1152 338 l 1,31,32
 1163 380 1163 380 1164 423 c 128,-1,33
 1165 466 1165 466 1165 504 c 0,34,35
 1165 603 1165 603 1151 662 c 128,-1,36
 1137 721 1137 721 1127 738 c 1,37,-1
 1385 738 l 1,38,39
 1390 728 1390 728 1396 713.5 c 128,-1,40
 1402 699 1402 699 1407 677 c 128,-1,41
 1412 655 1412 655 1415.5 625 c 128,-1,42
 1419 595 1419 595 1419 554 c 256,43,44
 1419 513 1419 513 1411.5 468.5 c 128,-1,45
 1404 424 1404 424 1389 379.5 c 128,-1,46
 1374 335 1374 335 1351.5 292 c 128,-1,47
 1329 249 1329 249 1298 212 c 1,48,49
 1409 136 1409 136 1502 130 c 1,50,-1
 1502 14 l 1,51,52
 1467 -1 1467 -1 1418.5 -5.5 c 128,-1,53
 1370 -10 1370 -10 1316 -5 c 1,54,55
 1266 1 1266 1 1215.5 16.5 c 128,-1,56
 1165 32 1165 32 1107 64 c 1,57,58
 1035 19 1035 19 942 -5.5 c 128,-1,59
 849 -30 849 -30 740 -30 c 0,60,61
 616 -30 616 -30 505 -7.5 c 128,-1,62
 394 15 394 15 310 64 c 128,-1,63
 226 113 226 113 177 190.5 c 128,-1,64
 128 268 128 268 128 378 c 0,0,1
696 875 m 1,65,66
 789 930 789 930 830.5 1014 c 128,-1,67
 872 1098 872 1098 872 1217 c 0,68,69
 872 1252 872 1252 864 1290.5 c 128,-1,70
 856 1329 856 1329 836.5 1361.5 c 128,-1,71
 817 1394 817 1394 784 1415.5 c 128,-1,72
 751 1437 751 1437 702 1437 c 0,73,74
 676 1437 676 1437 648 1428.5 c 128,-1,75
 620 1420 620 1420 596 1399 c 128,-1,76
 572 1378 572 1378 555 1343 c 128,-1,77
 538 1308 538 1308 534 1256 c 0,78,79
 529 1190 529 1190 544 1132.5 c 128,-1,80
 559 1075 559 1075 584.5 1027.5 c 128,-1,81
 610 980 610 980 640.5 941.5 c 128,-1,82
 671 903 671 903 696 875 c 1,65,66
402 419 m 0,83,84
 402 337 402 337 431.5 279 c 128,-1,85
 461 221 461 221 510.5 184.5 c 128,-1,86
 560 148 560 148 624 131 c 128,-1,87
 688 114 688 114 757 114 c 256,88,89
 826 114 826 114 883 121.5 c 128,-1,90
 940 129 940 129 985 146 c 1,91,92
 936 187 936 187 877 248 c 128,-1,93
 818 309 818 309 758 378 c 128,-1,94
 698 447 698 447 642 517.5 c 128,-1,95
 586 588 586 588 542 649 c 1,96,97
 480 606 480 606 441 551 c 128,-1,98
 402 496 402 496 402 419 c 0,83,84
EndSplineSet
EndChar

StartChar: quotesingle
Encoding: 39 39 6
Width: 759
Flags: W
LayerCount: 2
Fore
SplineSet
227 1782 m 1,0,-1
 532 1782 l 1,1,-1
 463 960 l 1,2,-1
 297 960 l 1,3,-1
 227 1782 l 1,0,-1
EndSplineSet
EndChar

StartChar: parenleft
Encoding: 40 40 7
Width: 925
Flags: W
LayerCount: 2
Fore
SplineSet
140 718 m 0,0,1
 140 874 140 874 171.5 1008.5 c 128,-1,2
 203 1143 203 1143 251.5 1254 c 128,-1,3
 300 1365 300 1365 360 1453 c 128,-1,4
 420 1541 420 1541 476.5 1604.5 c 128,-1,5
 533 1668 533 1668 580.5 1706.5 c 128,-1,6
 628 1745 628 1745 652 1758 c 1,7,-1
 771 1672 l 1,8,9
 750 1658 750 1658 716.5 1626 c 128,-1,10
 683 1594 683 1594 644.5 1542 c 128,-1,11
 606 1490 606 1490 566 1417.5 c 128,-1,12
 526 1345 526 1345 492.5 1249.5 c 128,-1,13
 459 1154 459 1154 436 1035 c 128,-1,14
 413 916 413 916 409 771 c 0,15,16
 405 624 405 624 424.5 496.5 c 128,-1,17
 444 369 444 369 478 262 c 128,-1,18
 512 155 512 155 556 69 c 128,-1,19
 600 -17 600 -17 644 -81 c 128,-1,20
 688 -145 688 -145 727.5 -186.5 c 128,-1,21
 767 -228 767 -228 793 -246 c 1,22,-1
 664 -338 l 1,23,24
 640 -324 640 -324 591.5 -290.5 c 128,-1,25
 543 -257 543 -257 485 -199.5 c 128,-1,26
 427 -142 427 -142 365.5 -58.5 c 128,-1,27
 304 25 304 25 254 138 c 128,-1,28
 204 251 204 251 172 395 c 128,-1,29
 140 539 140 539 140 718 c 0,0,1
EndSplineSet
EndChar

StartChar: parenright
Encoding: 41 41 8
Width: 925
Flags: W
LayerCount: 2
Fore
SplineSet
154 -253 m 1,0,1
 175 -239 175 -239 208.5 -207 c 128,-1,2
 242 -175 242 -175 281 -123 c 128,-1,3
 320 -71 320 -71 360 1.5 c 128,-1,4
 400 74 400 74 433 169.5 c 128,-1,5
 466 265 466 265 489 384 c 128,-1,6
 512 503 512 503 516 648 c 0,7,8
 520 795 520 795 500.5 922.5 c 128,-1,9
 481 1050 481 1050 446.5 1157 c 128,-1,10
 412 1264 412 1264 368.5 1350 c 128,-1,11
 325 1436 325 1436 281 1500 c 128,-1,12
 237 1564 237 1564 197 1605.5 c 128,-1,13
 157 1647 157 1647 132 1665 c 1,14,-1
 261 1757 l 1,15,16
 285 1743 285 1743 333.5 1709.5 c 128,-1,17
 382 1676 382 1676 440 1618.5 c 128,-1,18
 498 1561 498 1561 559.5 1477.5 c 128,-1,19
 621 1394 621 1394 671 1281 c 128,-1,20
 721 1168 721 1168 753 1024 c 128,-1,21
 785 880 785 880 785 701 c 0,22,23
 785 545 785 545 754 410.5 c 128,-1,24
 723 276 723 276 674 164.5 c 128,-1,25
 625 53 625 53 565.5 -34.5 c 128,-1,26
 506 -122 506 -122 449 -185.5 c 128,-1,27
 392 -249 392 -249 344.5 -287.5 c 128,-1,28
 297 -326 297 -326 273 -339 c 1,29,-1
 154 -253 l 1,30,-1
 154 -253 l 1,0,1
EndSplineSet
EndChar

StartChar: asterisk
Encoding: 42 42 9
Width: 1264
Flags: W
LayerCount: 2
Fore
SplineSet
532 1093 m 1,0,-1
 578 1209 l 1,1,-1
 499 1115 l 1,2,-1
 236 901 l 1,3,-1
 107 1077 l 1,4,-1
 431 1250 l 1,5,-1
 544 1276 l 1,6,-1
 434 1298 l 1,7,-1
 105 1455 l 1,8,-1
 232 1645 l 1,9,-1
 498 1432 l 1,10,-1
 578 1344 l 1,11,-1
 532 1469 l 1,12,-1
 506 1793 l 1,13,14
 513 1793 513 1793 531 1793 c 128,-1,15
 549 1793 549 1793 573 1793 c 128,-1,16
 597 1793 597 1793 624 1792.5 c 128,-1,17
 651 1792 651 1792 675.5 1792 c 128,-1,18
 700 1792 700 1792 718 1792 c 128,-1,19
 736 1792 736 1792 743 1792 c 1,20,-1
 717 1469 l 1,21,-1
 663 1344 l 1,22,-1
 754 1445 l 1,23,-1
 1012 1643 l 1,24,-1
 1159 1453 l 1,25,-1
 813 1302 l 1,26,-1
 697 1276 l 1,27,-1
 813 1248 l 1,28,-1
 1156 1075 l 1,29,-1
 1008 904 l 1,30,-1
 748 1116 l 1,31,-1
 665 1209 l 1,32,-1
 711 1093 l 1,33,-1
 743 761 l 1,34,-1
 506 761 l 1,35,-1
 532 1093 l 1,0,-1
EndSplineSet
EndChar

StartChar: plus
Encoding: 43 43 10
Width: 1298
Flags: W
LayerCount: 2
Fore
SplineSet
541 546 m 1,0,-1
 550 724 l 1,1,-1
 390 715 l 1,2,-1
 175 715 l 1,3,-1
 175 928 l 1,4,-1
 390 928 l 1,5,-1
 550 917 l 1,6,-1
 541 1097 l 1,7,-1
 541 1316 l 1,8,-1
 757 1316 l 1,9,-1
 757 1097 l 1,10,-1
 747 917 l 1,11,-1
 894 928 l 1,12,-1
 1123 928 l 1,13,-1
 1123 715 l 1,14,-1
 894 715 l 1,15,-1
 747 724 l 1,16,-1
 757 546 l 1,17,-1
 757 333 l 1,18,-1
 541 333 l 1,19,-1
 541 546 l 1,0,-1
EndSplineSet
EndChar

StartChar: comma
Encoding: 44 44 11
Width: 748
Flags: W
LayerCount: 2
Fore
SplineSet
188 95 m 1,0,-1
 352 304 l 1,1,2
 417 283 417 283 463 242.5 c 128,-1,3
 509 202 509 202 538.5 151 c 128,-1,4
 568 100 568 100 581.5 44 c 128,-1,5
 595 -12 595 -12 594 -63 c 0,6,7
 593 -162 593 -162 560.5 -242.5 c 128,-1,8
 528 -323 528 -323 476.5 -384.5 c 128,-1,9
 425 -446 425 -446 361.5 -488.5 c 128,-1,10
 298 -531 298 -531 235 -554 c 1,11,-1
 171 -488 l 1,12,-1
 171 -446 l 1,13,14
 202 -434 202 -434 233 -409.5 c 128,-1,15
 264 -385 264 -385 289 -349 c 128,-1,16
 314 -313 314 -313 330 -267 c 128,-1,17
 346 -221 346 -221 346 -167 c 0,18,19
 346 -131 346 -131 333.5 -97 c 128,-1,20
 321 -63 321 -63 299 -35.5 c 128,-1,21
 277 -8 277 -8 248.5 9.5 c 128,-1,22
 220 27 220 27 188 30 c 1,23,-1
 188 95 l 1,0,-1
EndSplineSet
EndChar

StartChar: hyphen
Encoding: 45 45 12
Width: 1286
Flags: W
LayerCount: 2
Fore
SplineSet
181 922 m 1,0,-1
 1105 922 l 1,1,-1
 1105 724 l 1,2,-1
 181 724 l 1,3,-1
 181 922 l 1,0,-1
EndSplineSet
EndChar

StartChar: period
Encoding: 46 46 13
Width: 761
Flags: W
LayerCount: 2
Fore
SplineSet
195 133 m 0,0,1
 195 174 195 174 213 209 c 128,-1,2
 231 244 231 244 259.5 270 c 128,-1,3
 288 296 288 296 323.5 310.5 c 128,-1,4
 359 325 359 325 394 325 c 0,5,6
 438 325 438 325 470.5 312 c 128,-1,7
 503 299 503 299 524 276.5 c 128,-1,8
 545 254 545 254 555.5 224.5 c 128,-1,9
 566 195 566 195 566 161 c 0,10,11
 566 118 566 118 548.5 83.5 c 128,-1,12
 531 49 531 49 502.5 24.5 c 128,-1,13
 474 0 474 0 437.5 -13 c 128,-1,14
 401 -26 401 -26 364 -26 c 0,15,16
 332 -26 332 -26 301.5 -15.5 c 128,-1,17
 271 -5 271 -5 247.5 15.5 c 128,-1,18
 224 36 224 36 209.5 65.5 c 128,-1,19
 195 95 195 95 195 133 c 0,0,1
EndSplineSet
EndChar

StartChar: slash
Encoding: 47 47 14
Width: 822
Flags: W
LayerCount: 2
Fore
SplineSet
570 1599 m 1,0,-1
 792 1599 l 1,1,-1
 252 -363 l 1,2,-1
 30 -363 l 1,3,-1
 570 1599 l 1,0,-1
EndSplineSet
EndChar

StartChar: zero
Encoding: 48 48 15
Width: 1371
Flags: W
LayerCount: 2
Fore
SplineSet
116 632 m 0,0,1
 118 777 118 777 168.5 892 c 128,-1,2
 219 1007 219 1007 300.5 1086.5 c 128,-1,3
 382 1166 382 1166 487 1208.5 c 128,-1,4
 592 1251 592 1251 704 1252 c 0,5,6
 855 1253 855 1253 960 1204.5 c 128,-1,7
 1065 1156 1065 1156 1131 1071 c 128,-1,8
 1197 986 1197 986 1226.5 870.5 c 128,-1,9
 1256 755 1256 755 1255 623 c 0,10,11
 1253 479 1253 479 1206.5 359.5 c 128,-1,12
 1160 240 1160 240 1081 154.5 c 128,-1,13
 1002 69 1002 69 898 21.5 c 128,-1,14
 794 -26 794 -26 678 -26 c 0,15,16
 530 -26 530 -26 423 28.5 c 128,-1,17
 316 83 316 83 247.5 174.5 c 128,-1,18
 179 266 179 266 146.5 385 c 128,-1,19
 114 504 114 504 116 632 c 0,0,1
693 106 m 0,20,21
 765 104 765 104 813.5 136 c 128,-1,22
 862 168 862 168 891.5 232 c 128,-1,23
 921 296 921 296 933.5 391.5 c 128,-1,24
 946 487 946 487 946 612 c 0,25,26
 946 723 946 723 929 815.5 c 128,-1,27
 912 908 912 908 878 975.5 c 128,-1,28
 844 1043 844 1043 794 1080.5 c 128,-1,29
 744 1118 744 1118 677 1120 c 1,30,31
 605 1121 605 1121 556.5 1089.5 c 128,-1,32
 508 1058 508 1058 478.5 996.5 c 128,-1,33
 449 935 449 935 436.5 846.5 c 128,-1,34
 424 758 424 758 424 647 c 0,35,36
 424 583 424 583 431.5 518 c 128,-1,37
 439 453 439 453 454 393.5 c 128,-1,38
 469 334 469 334 491.5 282 c 128,-1,39
 514 230 514 230 544 191.5 c 128,-1,40
 574 153 574 153 611 130 c 128,-1,41
 648 107 648 107 693 106 c 0,20,21
EndSplineSet
EndChar

StartChar: one
Encoding: 49 49 16
Width: 968
Flags: W
LayerCount: 2
Fore
SplineSet
114 120 m 1,0,-1
 388 155 l 1,1,-1
 388 961 l 1,2,3
 361 956 361 956 327 951 c 128,-1,4
 293 946 293 946 256.5 940.5 c 128,-1,5
 220 935 220 935 183 929.5 c 128,-1,6
 146 924 146 924 113 919 c 1,7,-1
 84 1054 l 1,8,9
 116 1063 116 1063 160 1079.5 c 128,-1,10
 204 1096 204 1096 253.5 1116 c 128,-1,11
 303 1136 303 1136 353.5 1158.5 c 128,-1,12
 404 1181 404 1181 446.5 1201.5 c 128,-1,13
 489 1222 489 1222 521 1239 c 128,-1,14
 553 1256 553 1256 565 1266 c 1,15,-1
 669 1249 l 1,16,-1
 665 154 l 1,17,-1
 916 120 l 1,18,-1
 916 0 l 1,19,-1
 114 0 l 1,20,-1
 114 120 l 1,0,-1
EndSplineSet
EndChar

StartChar: two
Encoding: 50 50 17
Width: 1244
Flags: W
LayerCount: 2
Fore
SplineSet
107 108 m 1,0,1
 189 158 189 158 268.5 215 c 128,-1,2
 348 272 348 272 420 333.5 c 128,-1,3
 492 395 492 395 553.5 459.5 c 128,-1,4
 615 524 615 524 659.5 588.5 c 128,-1,5
 704 653 704 653 729.5 716.5 c 128,-1,6
 755 780 755 780 755 839 c 0,7,8
 755 882 755 882 742 925.5 c 128,-1,9
 729 969 729 969 700.5 1004.5 c 128,-1,10
 672 1040 672 1040 627.5 1062 c 128,-1,11
 583 1084 583 1084 520 1084 c 0,12,13
 463 1084 463 1084 412 1070 c 128,-1,14
 361 1056 361 1056 317 1034 c 128,-1,15
 273 1012 273 1012 236.5 986.5 c 128,-1,16
 200 961 200 961 173 939 c 1,17,-1
 104 1045 l 1,18,19
 126 1075 126 1075 172.5 1113 c 128,-1,20
 219 1151 219 1151 285.5 1184.5 c 128,-1,21
 352 1218 352 1218 434.5 1240.5 c 128,-1,22
 517 1263 517 1263 611 1263 c 0,23,24
 719 1263 719 1263 801.5 1233.5 c 128,-1,25
 884 1204 884 1204 939.5 1155 c 128,-1,26
 995 1106 995 1106 1023 1043 c 128,-1,27
 1051 980 1051 980 1051 913 c 0,28,29
 1051 809 1051 809 1007.5 713.5 c 128,-1,30
 964 618 964 618 881.5 525 c 128,-1,31
 799 432 799 432 681 340 c 128,-1,32
 563 248 563 248 413 153 c 1,33,-1
 959 212 l 1,34,-1
 1053 340 l 1,35,-1
 1172 303 l 1,36,-1
 1105 0 l 1,37,-1
 148 0 l 1,38,-1
 107 108 l 1,0,1
EndSplineSet
EndChar

StartChar: three
Encoding: 51 51 18
Width: 1097
Flags: W
LayerCount: 2
Fore
SplineSet
118 -166 m 1,0,1
 239 -192 239 -192 348.5 -176.5 c 128,-1,2
 458 -161 458 -161 540.5 -112.5 c 128,-1,3
 623 -64 623 -64 672 12 c 128,-1,4
 721 88 721 88 721 183 c 0,5,6
 721 230 721 230 710.5 278 c 128,-1,7
 700 326 700 326 669.5 366.5 c 128,-1,8
 639 407 639 407 582.5 435 c 128,-1,9
 526 463 526 463 434 469 c 1,10,-1
 246 428 l 1,11,-1
 246 591 l 1,12,13
 285 597 285 597 329 609 c 128,-1,14
 373 621 373 621 416 639.5 c 128,-1,15
 459 658 459 658 498.5 683.5 c 128,-1,16
 538 709 538 709 568 741.5 c 128,-1,17
 598 774 598 774 616 813.5 c 128,-1,18
 634 853 634 853 634 901 c 0,19,20
 635 955 635 955 618 992.5 c 128,-1,21
 601 1030 601 1030 572.5 1053.5 c 128,-1,22
 544 1077 544 1077 508.5 1087.5 c 128,-1,23
 473 1098 473 1098 436 1098 c 0,24,25
 377 1098 377 1098 331 1088 c 128,-1,26
 285 1078 285 1078 247.5 1062.5 c 128,-1,27
 210 1047 210 1047 180 1028.5 c 128,-1,28
 150 1010 150 1010 125 992 c 1,29,-1
 54 1102 l 1,30,31
 72 1121 72 1121 111 1149.5 c 128,-1,32
 150 1178 150 1178 208.5 1204.5 c 128,-1,33
 267 1231 267 1231 343 1250 c 128,-1,34
 419 1269 419 1269 511 1269 c 0,35,36
 584 1269 584 1269 656 1251 c 128,-1,37
 728 1233 728 1233 785 1193 c 128,-1,38
 842 1153 842 1153 877 1090 c 128,-1,39
 912 1027 912 1027 912 936 c 0,40,41
 912 877 912 877 884.5 817.5 c 128,-1,42
 857 758 857 758 812 706 c 128,-1,43
 767 654 767 654 709.5 614.5 c 128,-1,44
 652 575 652 575 592 556 c 1,45,46
 688 557 688 557 764.5 531.5 c 128,-1,47
 841 506 841 506 894.5 459 c 128,-1,48
 948 412 948 412 976.5 347 c 128,-1,49
 1005 282 1005 282 1005 206 c 0,50,51
 1005 128 1005 128 976.5 52.5 c 128,-1,52
 948 -23 948 -23 894 -88.5 c 128,-1,53
 840 -154 840 -154 762 -206.5 c 128,-1,54
 684 -259 684 -259 586 -291 c 128,-1,55
 488 -323 488 -323 370 -330.5 c 128,-1,56
 252 -338 252 -338 119 -314 c 1,57,58
 119 -276 119 -276 118.5 -240 c 128,-1,59
 118 -204 118 -204 118 -166 c 1,0,1
EndSplineSet
EndChar

StartChar: four
Encoding: 52 52 19
Width: 1284
Flags: W
LayerCount: 2
Fore
SplineSet
75 114 m 1,0,1
 148 239 148 239 230 380 c 128,-1,2
 312 521 312 521 395.5 669.5 c 128,-1,3
 479 818 479 818 558.5 971 c 128,-1,4
 638 1124 638 1124 705 1274 c 1,5,-1
 789 1274 l 1,6,-1
 970 1148 l 1,7,-1
 379 237 l 1,8,-1
 308 143 l 1,9,-1
 786 184 l 1,10,-1
 797 600 l 1,11,-1
 1030 640 l 1,12,-1
 1030 204 l 1,13,-1
 1224 221 l 1,14,-1
 1224 0 l 1,15,-1
 1030 0 l 1,16,-1
 1030 -376 l 1,17,-1
 773 -376 l 1,18,-1
 782 0 l 1,19,-1
 116 0 l 1,20,-1
 75 114 l 1,0,1
EndSplineSet
EndChar

StartChar: five
Encoding: 53 53 20
Width: 1113
Flags: W
LayerCount: 2
Fore
SplineSet
121 -209 m 1,0,1
 193 -216 193 -216 265.5 -208 c 128,-1,2
 338 -200 338 -200 404.5 -177 c 128,-1,3
 471 -154 471 -154 528 -116.5 c 128,-1,4
 585 -79 585 -79 627 -27.5 c 128,-1,5
 669 24 669 24 693 88.5 c 128,-1,6
 717 153 717 153 717 231 c 0,7,8
 717 329 717 329 684 398 c 128,-1,9
 651 467 651 467 587.5 504.5 c 128,-1,10
 524 542 524 542 431 545.5 c 128,-1,11
 338 549 338 549 218 516 c 1,12,-1
 129 552 l 1,13,-1
 198 1237 l 1,14,-1
 805 1237 l 1,15,-1
 833 1266 l 1,16,-1
 955 1266 l 1,17,-1
 887 1016 l 1,18,-1
 392 1016 l 1,19,-1
 323 661 l 1,20,21
 419 695 419 695 508 701.5 c 128,-1,22
 597 708 597 708 673.5 691 c 128,-1,23
 750 674 750 674 812.5 636 c 128,-1,24
 875 598 875 598 919.5 542.5 c 128,-1,25
 964 487 964 487 988 416 c 128,-1,26
 1012 345 1012 345 1012 264 c 0,27,28
 1012 175 1012 175 982.5 95 c 128,-1,29
 953 15 953 15 900 -53.5 c 128,-1,30
 847 -122 847 -122 774 -177 c 128,-1,31
 701 -232 701 -232 614.5 -270.5 c 128,-1,32
 528 -309 528 -309 431 -330 c 128,-1,33
 334 -351 334 -351 234 -351 c 0,34,35
 209 -351 209 -351 178 -348 c 128,-1,36
 147 -345 147 -345 120 -337 c 1,37,-1
 121 -209 l 1,38,-1
 121 -209 l 1,0,1
EndSplineSet
EndChar

StartChar: six
Encoding: 54 54 21
Width: 1306
Flags: W
LayerCount: 2
Fore
SplineSet
120 556 m 0,0,1
 120 689 120 689 157 808 c 128,-1,2
 194 927 194 927 258 1030.5 c 128,-1,3
 322 1134 322 1134 408.5 1220 c 128,-1,4
 495 1306 495 1306 594 1371.5 c 128,-1,5
 693 1437 693 1437 799.5 1481 c 128,-1,6
 906 1525 906 1525 1011 1544 c 1,7,-1
 1073 1423 l 1,8,9
 984 1397 984 1397 900.5 1353.5 c 128,-1,10
 817 1310 817 1310 743.5 1252.5 c 128,-1,11
 670 1195 670 1195 608.5 1125 c 128,-1,12
 547 1055 547 1055 502.5 977 c 128,-1,13
 458 899 458 899 433 814 c 128,-1,14
 408 729 408 729 407 642 c 0,15,16
 406 584 406 584 408.5 522 c 128,-1,17
 411 460 411 460 421 400 c 128,-1,18
 431 340 431 340 450 286.5 c 128,-1,19
 469 233 469 233 500.5 192.5 c 128,-1,20
 532 152 532 152 577 128.5 c 128,-1,21
 622 105 622 105 684 105 c 0,22,23
 736 105 736 105 781.5 128.5 c 128,-1,24
 827 152 827 152 860.5 197.5 c 128,-1,25
 894 243 894 243 913 310 c 128,-1,26
 932 377 932 377 932 463 c 0,27,28
 932 531 932 531 915.5 590.5 c 128,-1,29
 899 650 899 650 868.5 694.5 c 128,-1,30
 838 739 838 739 795 765 c 128,-1,31
 752 791 752 791 699 791 c 0,32,33
 642 791 642 791 605.5 779 c 128,-1,34
 569 767 569 767 541 749 c 1,35,-1
 495 837 l 1,36,37
 507 856 507 856 535.5 879 c 128,-1,38
 564 902 564 902 604.5 922 c 128,-1,39
 645 942 645 942 696 955 c 128,-1,40
 747 968 747 968 804 968 c 0,41,42
 903 968 903 968 977.5 932 c 128,-1,43
 1052 896 1052 896 1102 836 c 128,-1,44
 1152 776 1152 776 1177 697 c 128,-1,45
 1202 618 1202 618 1202 531 c 0,46,47
 1202 422 1202 422 1164.5 322 c 128,-1,48
 1127 222 1127 222 1056 145.5 c 128,-1,49
 985 69 985 69 882 23 c 128,-1,50
 779 -23 779 -23 649 -23 c 0,51,52
 525 -23 525 -23 427 23.5 c 128,-1,53
 329 70 329 70 260.5 149 c 128,-1,54
 192 228 192 228 156 333.5 c 128,-1,55
 120 439 120 439 120 556 c 0,0,1
EndSplineSet
EndChar

StartChar: seven
Encoding: 55 55 22
Width: 1234
Flags: W
LayerCount: 2
Fore
SplineSet
307 -228 m 1,0,1
 387 -75 387 -75 464 83.5 c 128,-1,2
 541 242 541 242 617.5 407 c 128,-1,3
 694 572 694 572 770 744.5 c 128,-1,4
 846 917 846 917 924 1099 c 1,5,-1
 374 1075 l 1,6,-1
 291 867 l 1,7,-1
 129 874 l 1,8,-1
 171 1253 l 1,9,-1
 1104 1253 l 1,10,-1
 1152 1200 l 1,11,-1
 588 -327 l 1,12,-1
 307 -228 l 1,13,-1
 307 -228 l 1,0,1
EndSplineSet
EndChar

StartChar: eight
Encoding: 56 56 23
Width: 1273
Flags: W
LayerCount: 2
Fore
SplineSet
112 373 m 0,0,1
 112 428 112 428 131 486 c 128,-1,2
 150 544 150 544 190 599 c 128,-1,3
 230 654 230 654 290 701.5 c 128,-1,4
 350 749 350 749 433 783 c 1,5,6
 382 820 382 820 336.5 860.5 c 128,-1,7
 291 901 291 901 257 948.5 c 128,-1,8
 223 996 223 996 203.5 1050.5 c 128,-1,9
 184 1105 184 1105 184 1170 c 0,10,11
 184 1270 184 1270 225.5 1343.5 c 128,-1,12
 267 1417 267 1417 334 1465.5 c 128,-1,13
 401 1514 401 1514 486 1537.5 c 128,-1,14
 571 1561 571 1561 658 1561 c 0,15,16
 748 1561 748 1561 829.5 1538 c 128,-1,17
 911 1515 911 1515 972.5 1470 c 128,-1,18
 1034 1425 1034 1425 1070 1358 c 128,-1,19
 1106 1291 1106 1291 1106 1204 c 0,20,21
 1106 1149 1106 1149 1083 1090.5 c 128,-1,22
 1060 1032 1060 1032 1021.5 979.5 c 128,-1,23
 983 927 983 927 934 885.5 c 128,-1,24
 885 844 885 844 833 822 c 1,25,26
 899 779 899 779 960.5 734 c 128,-1,27
 1022 689 1022 689 1069.5 638.5 c 128,-1,28
 1117 588 1117 588 1146 531.5 c 128,-1,29
 1175 475 1175 475 1175 410 c 0,30,31
 1175 333 1175 333 1154 271 c 128,-1,32
 1133 209 1133 209 1096 160.5 c 128,-1,33
 1059 112 1059 112 1008.5 76.5 c 128,-1,34
 958 41 958 41 899.5 18.5 c 128,-1,35
 841 -4 841 -4 777.5 -15 c 128,-1,36
 714 -26 714 -26 651 -26 c 0,37,38
 553 -26 553 -26 457 -4 c 128,-1,39
 361 18 361 18 284 66 c 128,-1,40
 207 114 207 114 159.5 190 c 128,-1,41
 112 266 112 266 112 373 c 0,0,1
720 894 m 1,42,43
 755 913 755 913 783.5 942.5 c 128,-1,44
 812 972 812 972 832 1007 c 128,-1,45
 852 1042 852 1042 863 1082.5 c 128,-1,46
 874 1123 874 1123 875 1165 c 0,47,48
 876 1226 876 1226 858 1276.5 c 128,-1,49
 840 1327 840 1327 808.5 1363 c 128,-1,50
 777 1399 777 1399 734.5 1419 c 128,-1,51
 692 1439 692 1439 644 1439 c 0,52,53
 605 1439 605 1439 565 1425.5 c 128,-1,54
 525 1412 525 1412 492.5 1385 c 128,-1,55
 460 1358 460 1358 440 1319 c 128,-1,56
 420 1280 420 1280 420 1229 c 0,57,58
 420 1180 420 1180 444.5 1136 c 128,-1,59
 469 1092 469 1092 510 1051 c 128,-1,60
 551 1010 551 1010 605.5 971.5 c 128,-1,61
 660 933 660 933 720 894 c 1,42,43
367 440 m 0,62,63
 367 367 367 367 389.5 305 c 128,-1,64
 412 243 412 243 452.5 197.5 c 128,-1,65
 493 152 493 152 549.5 126.5 c 128,-1,66
 606 101 606 101 674 101 c 0,67,68
 717 101 717 101 760.5 115 c 128,-1,69
 804 129 804 129 838.5 158 c 128,-1,70
 873 187 873 187 895 231.5 c 128,-1,71
 917 276 917 276 917 337 c 0,72,73
 917 396 917 396 885 445 c 128,-1,74
 853 494 853 494 801 538 c 128,-1,75
 749 582 749 582 682.5 623.5 c 128,-1,76
 616 665 616 665 547 708 c 1,77,78
 511 686 511 686 478.5 657.5 c 128,-1,79
 446 629 446 629 421 595.5 c 128,-1,80
 396 562 396 562 381.5 523 c 128,-1,81
 367 484 367 484 367 440 c 0,62,63
EndSplineSet
EndChar

StartChar: nine
Encoding: 57 57 24
Width: 1300
Flags: W
LayerCount: 2
Fore
SplineSet
262 -286 m 1,0,1
 351 -260 351 -260 432 -210 c 128,-1,2
 513 -160 513 -160 582.5 -92.5 c 128,-1,3
 652 -25 652 -25 709 56.5 c 128,-1,4
 766 138 766 138 806.5 226.5 c 128,-1,5
 847 315 847 315 869.5 407.5 c 128,-1,6
 892 500 892 500 893 590 c 0,7,8
 894 648 894 648 892 710 c 128,-1,9
 890 772 890 772 880.5 831.5 c 128,-1,10
 871 891 871 891 853 944.5 c 128,-1,11
 835 998 835 998 804.5 1038.5 c 128,-1,12
 774 1079 774 1079 729 1102.5 c 128,-1,13
 684 1126 684 1126 622 1126 c 0,14,15
 570 1126 570 1126 525 1102.5 c 128,-1,16
 480 1079 480 1079 446.5 1033.5 c 128,-1,17
 413 988 413 988 394 921 c 128,-1,18
 375 854 375 854 375 768 c 0,19,20
 375 700 375 700 391.5 640.5 c 128,-1,21
 408 581 408 581 438 536.5 c 128,-1,22
 468 492 468 492 511 466 c 128,-1,23
 554 440 554 440 607 440 c 0,24,25
 656 440 656 440 698 452.5 c 128,-1,26
 740 465 740 465 766 482 c 1,27,-1
 811 394 l 1,28,29
 795 371 795 371 768 348 c 128,-1,30
 741 325 741 325 702.5 306 c 128,-1,31
 664 287 664 287 613.5 275 c 128,-1,32
 563 263 563 263 502 263 c 0,33,34
 403 263 403 263 328.5 299 c 128,-1,35
 254 335 254 335 204 395 c 128,-1,36
 154 455 154 455 129 534.5 c 128,-1,37
 104 614 104 614 104 701 c 0,38,39
 104 810 104 810 141.5 910 c 128,-1,40
 179 1010 179 1010 250 1086.5 c 128,-1,41
 321 1163 321 1163 423.5 1208.5 c 128,-1,42
 526 1254 526 1254 657 1254 c 0,43,44
 781 1254 781 1254 878.5 1207.5 c 128,-1,45
 976 1161 976 1161 1042.5 1081.5 c 128,-1,46
 1109 1002 1109 1002 1144 897.5 c 128,-1,47
 1179 793 1179 793 1179 676 c 0,48,49
 1179 540 1179 540 1144.5 412 c 128,-1,50
 1110 284 1110 284 1050 170 c 128,-1,51
 990 56 990 56 908 -41 c 128,-1,52
 826 -138 826 -138 731 -213 c 128,-1,53
 636 -288 636 -288 531.5 -338 c 128,-1,54
 427 -388 427 -388 323 -407 c 1,55,-1
 262 -286 l 1,56,-1
 262 -286 l 1,0,1
EndSplineSet
EndChar

StartChar: colon
Encoding: 58 58 25
Width: 761
Flags: W
LayerCount: 2
Fore
SplineSet
364 739 m 0,0,1
 332 739 332 739 301.5 749.5 c 128,-1,2
 271 760 271 760 247.5 780.5 c 128,-1,3
 224 801 224 801 209.5 830.5 c 128,-1,4
 195 860 195 860 195 898 c 0,5,6
 195 939 195 939 213 974 c 128,-1,7
 231 1009 231 1009 259.5 1035 c 128,-1,8
 288 1061 288 1061 323.5 1075.5 c 128,-1,9
 359 1090 359 1090 394 1090 c 0,10,11
 438 1090 438 1090 470.5 1077 c 128,-1,12
 503 1064 503 1064 524 1041.5 c 128,-1,13
 545 1019 545 1019 555.5 989.5 c 128,-1,14
 566 960 566 960 566 926 c 0,15,16
 566 883 566 883 548.5 848.5 c 128,-1,17
 531 814 531 814 502.5 789.5 c 128,-1,18
 474 765 474 765 437.5 752 c 128,-1,19
 401 739 401 739 364 739 c 0,0,1
195 129 m 0,20,21
 195 170 195 170 213 205 c 128,-1,22
 231 240 231 240 259.5 266 c 128,-1,23
 288 292 288 292 323.5 306.5 c 128,-1,24
 359 321 359 321 394 321 c 0,25,26
 438 321 438 321 470.5 308 c 128,-1,27
 503 295 503 295 524 272.5 c 128,-1,28
 545 250 545 250 555.5 220.5 c 128,-1,29
 566 191 566 191 566 157 c 0,30,31
 566 114 566 114 548.5 79.5 c 128,-1,32
 531 45 531 45 502.5 20.5 c 128,-1,33
 474 -4 474 -4 437.5 -17 c 128,-1,34
 401 -30 401 -30 364 -30 c 0,35,36
 332 -30 332 -30 301.5 -19.5 c 128,-1,37
 271 -9 271 -9 247.5 11.5 c 128,-1,38
 224 32 224 32 209.5 61.5 c 128,-1,39
 195 91 195 91 195 129 c 0,20,21
EndSplineSet
EndChar

StartChar: semicolon
Encoding: 59 59 26
Width: 775
Flags: W
LayerCount: 2
Fore
SplineSet
365 739 m 0,0,1
 333 739 333 739 302.5 749.5 c 128,-1,2
 272 760 272 760 248 780.5 c 128,-1,3
 224 801 224 801 209.5 830.5 c 128,-1,4
 195 860 195 860 195 898 c 0,5,6
 195 939 195 939 213 974 c 128,-1,7
 231 1009 231 1009 260 1035 c 128,-1,8
 289 1061 289 1061 324.5 1075.5 c 128,-1,9
 360 1090 360 1090 395 1090 c 0,10,11
 439 1090 439 1090 471.5 1077 c 128,-1,12
 504 1064 504 1064 525 1041.5 c 128,-1,13
 546 1019 546 1019 556.5 989.5 c 128,-1,14
 567 960 567 960 567 926 c 0,15,16
 567 883 567 883 549.5 848.5 c 128,-1,17
 532 814 532 814 503.5 789.5 c 128,-1,18
 475 765 475 765 438.5 752 c 128,-1,19
 402 739 402 739 365 739 c 0,0,1
222 95 m 1,20,-1
 386 304 l 1,21,22
 451 283 451 283 497.5 242.5 c 128,-1,23
 544 202 544 202 573 151 c 128,-1,24
 602 100 602 100 615.5 44 c 128,-1,25
 629 -12 629 -12 629 -63 c 1,26,27
 627 -162 627 -162 594.5 -242.5 c 128,-1,28
 562 -323 562 -323 511 -384.5 c 128,-1,29
 460 -446 460 -446 396.5 -488.5 c 128,-1,30
 333 -531 333 -531 270 -554 c 1,31,-1
 206 -488 l 1,32,-1
 206 -446 l 1,33,34
 237 -434 237 -434 268 -409.5 c 128,-1,35
 299 -385 299 -385 324 -349 c 128,-1,36
 349 -313 349 -313 365 -267 c 128,-1,37
 381 -221 381 -221 381 -167 c 0,38,39
 381 -131 381 -131 368 -97 c 128,-1,40
 355 -63 355 -63 333.5 -35.5 c 128,-1,41
 312 -8 312 -8 283 9.5 c 128,-1,42
 254 27 254 27 222 30 c 1,43,-1
 222 95 l 1,20,-1
EndSplineSet
EndChar

StartChar: less
Encoding: 60 60 27
Width: 1331
Flags: W
LayerCount: 2
Fore
SplineSet
159 829 m 1,0,-1
 1128 1328 l 1,1,-1
 1128 1083 l 1,2,-1
 444 760 l 1,3,-1
 1128 457 l 1,4,-1
 1128 205 l 1,5,-1
 159 695 l 1,6,-1
 159 829 l 1,0,-1
EndSplineSet
EndChar

StartChar: equal
Encoding: 61 61 28
Width: 1286
Flags: W
LayerCount: 2
Fore
SplineSet
181 1145 m 1,0,-1
 1105 1145 l 1,1,-1
 1105 951 l 1,2,-1
 181 951 l 1,3,-1
 181 1145 l 1,0,-1
181 666 m 1,4,-1
 1105 666 l 1,5,-1
 1105 471 l 1,6,-1
 181 471 l 1,7,-1
 181 666 l 1,4,-1
EndSplineSet
EndChar

StartChar: greater
Encoding: 62 62 29
Width: 1331
Flags: W
LayerCount: 2
Fore
SplineSet
203 441 m 1,0,-1
 886 763 l 1,1,-1
 203 1067 l 1,2,-1
 203 1319 l 1,3,-1
 1172 829 l 1,4,-1
 1172 695 l 1,5,-1
 203 196 l 1,6,-1
 203 441 l 1,0,-1
EndSplineSet
EndChar

StartChar: question
Encoding: 63 63 30
Width: 1041
Flags: W
LayerCount: 2
Fore
SplineSet
410 520 m 1,0,1
 374 552 374 552 343 593.5 c 128,-1,2
 312 635 312 635 288.5 679.5 c 128,-1,3
 265 724 265 724 251 766.5 c 128,-1,4
 237 809 237 809 236 843 c 0,5,6
 235 891 235 891 272 927.5 c 128,-1,7
 309 964 309 964 365 992.5 c 128,-1,8
 421 1021 421 1021 487 1044 c 128,-1,9
 553 1067 553 1067 612 1088 c 128,-1,10
 671 1109 671 1109 713 1129.5 c 128,-1,11
 755 1150 755 1150 762 1174 c 1,12,13
 761 1246 761 1246 739.5 1306 c 128,-1,14
 718 1366 718 1366 682.5 1414.5 c 128,-1,15
 647 1463 647 1463 600 1499 c 128,-1,16
 553 1535 553 1535 502.5 1559 c 128,-1,17
 452 1583 452 1583 400.5 1595.5 c 128,-1,18
 349 1608 349 1608 304 1609 c 0,19,20
 235 1611 235 1611 182.5 1604.5 c 128,-1,21
 130 1598 130 1598 103 1581 c 1,22,-1
 95 1801 l 1,23,24
 102 1811 102 1811 125 1820.5 c 128,-1,25
 148 1830 148 1830 180 1836.5 c 128,-1,26
 212 1843 212 1843 248.5 1847 c 128,-1,27
 285 1851 285 1851 319 1850 c 0,28,29
 465 1846 465 1846 571 1806 c 128,-1,30
 677 1766 677 1766 749.5 1704.5 c 128,-1,31
 822 1643 822 1643 863.5 1565.5 c 128,-1,32
 905 1488 905 1488 923.5 1409.5 c 128,-1,33
 942 1331 942 1331 939.5 1258 c 128,-1,34
 937 1185 937 1185 921 1131 c 1,35,36
 916 1107 916 1107 888 1084.5 c 128,-1,37
 860 1062 860 1062 819 1041 c 128,-1,38
 778 1020 778 1020 730 998.5 c 128,-1,39
 682 977 682 977 637.5 955 c 128,-1,40
 593 933 593 933 557.5 908.5 c 128,-1,41
 522 884 522 884 506 857 c 1,42,43
 494 828 494 828 501.5 783 c 128,-1,44
 509 738 509 738 525.5 690 c 128,-1,45
 542 642 542 642 562.5 596.5 c 128,-1,46
 583 551 583 551 597 520 c 1,47,-1
 410 520 l 1,0,1
366 131 m 0,48,49
 366 172 366 172 384 207 c 128,-1,50
 402 242 402 242 431 268 c 128,-1,51
 460 294 460 294 495 308.5 c 128,-1,52
 530 323 530 323 565 323 c 0,53,54
 609 323 609 323 641.5 310 c 128,-1,55
 674 297 674 297 695.5 274.5 c 128,-1,56
 717 252 717 252 727.5 222.5 c 128,-1,57
 738 193 738 193 738 159 c 0,58,59
 738 116 738 116 720.5 81.5 c 128,-1,60
 703 47 703 47 674 22.5 c 128,-1,61
 645 -2 645 -2 608.5 -15 c 128,-1,62
 572 -28 572 -28 535 -28 c 0,63,64
 503 -28 503 -28 472.5 -17.5 c 128,-1,65
 442 -7 442 -7 418.5 13.5 c 128,-1,66
 395 34 395 34 380.5 63.5 c 128,-1,67
 366 93 366 93 366 131 c 0,48,49
EndSplineSet
EndChar

StartChar: at
Encoding: 64 64 31
Width: 2217
Flags: W
LayerCount: 2
Fore
SplineSet
182 396 m 0,0,1
 182 559 182 559 226 700.5 c 128,-1,2
 270 842 270 842 346.5 959.5 c 128,-1,3
 423 1077 423 1077 527 1168.5 c 128,-1,4
 631 1260 631 1260 750.5 1323 c 128,-1,5
 870 1386 870 1386 1000 1419 c 128,-1,6
 1130 1452 1130 1452 1260 1452 c 0,7,8
 1459 1452 1459 1452 1606.5 1401 c 128,-1,9
 1754 1350 1754 1350 1851.5 1263 c 128,-1,10
 1949 1176 1949 1176 1997 1060.5 c 128,-1,11
 2045 945 2045 945 2045 815 c 0,12,13
 2045 693 2045 693 2021 588.5 c 128,-1,14
 1997 484 1997 484 1955 398.5 c 128,-1,15
 1913 313 1913 313 1856 247.5 c 128,-1,16
 1799 182 1799 182 1733.5 136 c 128,-1,17
 1668 90 1668 90 1596.5 65 c 128,-1,18
 1525 40 1525 40 1455 37 c 0,19,20
 1413 35 1413 35 1384.5 47 c 128,-1,21
 1356 59 1356 59 1338 83.5 c 128,-1,22
 1320 108 1320 108 1311.5 143 c 128,-1,23
 1303 178 1303 178 1301 223 c 0,24,25
 1299 249 1299 249 1304 303.5 c 128,-1,26
 1309 358 1309 358 1318 424 c 1,27,28
 1288 353 1288 353 1247 282.5 c 128,-1,29
 1206 212 1206 212 1156 155.5 c 128,-1,30
 1106 99 1106 99 1049 63 c 128,-1,31
 992 27 992 27 930 25 c 0,32,33
 877 23 877 23 823.5 49 c 128,-1,34
 770 75 770 75 726.5 125 c 128,-1,35
 683 175 683 175 655.5 246 c 128,-1,36
 628 317 628 317 628 405 c 0,37,38
 628 489 628 489 645.5 569.5 c 128,-1,39
 663 650 663 650 695 721.5 c 128,-1,40
 727 793 727 793 770.5 853.5 c 128,-1,41
 814 914 814 914 866.5 958 c 128,-1,42
 919 1002 919 1002 978 1028 c 128,-1,43
 1037 1054 1037 1054 1099 1056 c 1,44,45
 1173 1060 1173 1060 1239.5 1046.5 c 128,-1,46
 1306 1033 1306 1033 1367 1006 c 1,47,48
 1375 1029 1375 1029 1388 1045 c 128,-1,49
 1401 1061 1401 1061 1421 1056 c 0,50,51
 1469 1043 1469 1043 1513 1027.5 c 128,-1,52
 1557 1012 1557 1012 1607 997 c 1,53,54
 1596 941 1596 941 1585 875.5 c 128,-1,55
 1574 810 1574 810 1563.5 739.5 c 128,-1,56
 1553 669 1553 669 1544 595.5 c 128,-1,57
 1535 522 1535 522 1528 451 c 0,58,59
 1515 317 1515 317 1525 253 c 128,-1,60
 1535 189 1535 189 1551 189 c 0,61,62
 1578 189 1578 189 1610 210.5 c 128,-1,63
 1642 232 1642 232 1674 269.5 c 128,-1,64
 1706 307 1706 307 1735.5 358.5 c 128,-1,65
 1765 410 1765 410 1788 470 c 128,-1,66
 1811 530 1811 530 1825 596.5 c 128,-1,67
 1839 663 1839 663 1839 732 c 0,68,69
 1839 842 1839 842 1813.5 927 c 128,-1,70
 1788 1012 1788 1012 1743 1075.5 c 128,-1,71
 1698 1139 1698 1139 1635.5 1183 c 128,-1,72
 1573 1227 1573 1227 1499 1254 c 128,-1,73
 1425 1281 1425 1281 1342.5 1293 c 128,-1,74
 1260 1305 1260 1305 1174 1305 c 0,75,76
 1084 1305 1084 1305 993 1280 c 128,-1,77
 902 1255 902 1255 817 1207 c 128,-1,78
 732 1159 732 1159 658.5 1088.5 c 128,-1,79
 585 1018 585 1018 530 927.5 c 128,-1,80
 475 837 475 837 443.5 726 c 128,-1,81
 412 615 412 615 412 487 c 0,82,83
 412 351 412 351 439 245.5 c 128,-1,84
 466 140 466 140 514.5 61 c 128,-1,85
 563 -18 563 -18 629.5 -73 c 128,-1,86
 696 -128 696 -128 775.5 -162 c 128,-1,87
 855 -196 855 -196 944.5 -211 c 128,-1,88
 1034 -226 1034 -226 1128 -226 c 0,89,90
 1177 -226 1177 -226 1234 -219 c 128,-1,91
 1291 -212 1291 -212 1344.5 -201.5 c 128,-1,92
 1398 -191 1398 -191 1442 -178 c 128,-1,93
 1486 -165 1486 -165 1509 -153 c 1,94,-1
 1562 -262 l 1,95,96
 1527 -288 1527 -288 1475.5 -309.5 c 128,-1,97
 1424 -331 1424 -331 1360 -346 c 128,-1,98
 1296 -361 1296 -361 1223.5 -369.5 c 128,-1,99
 1151 -378 1151 -378 1074 -378 c 0,100,101
 875 -378 875 -378 710.5 -325 c 128,-1,102
 546 -272 546 -272 428.5 -172 c 128,-1,103
 311 -72 311 -72 246.5 71.5 c 128,-1,104
 182 215 182 215 182 396 c 0,0,1
861 504 m 0,105,106
 861 460 861 460 866 411 c 128,-1,107
 871 362 871 362 883.5 320.5 c 128,-1,108
 896 279 896 279 918.5 251.5 c 128,-1,109
 941 224 941 224 976 224 c 0,110,111
 999 224 999 224 1030.5 251.5 c 128,-1,112
 1062 279 1062 279 1096.5 325.5 c 128,-1,113
 1131 372 1131 372 1165.5 433 c 128,-1,114
 1200 494 1200 494 1229.5 561.5 c 128,-1,115
 1259 629 1259 629 1281 698.5 c 128,-1,116
 1303 768 1303 768 1312 831 c 1,117,118
 1299 842 1299 842 1275 851.5 c 128,-1,119
 1251 861 1251 861 1223.5 867.5 c 128,-1,120
 1196 874 1196 874 1169.5 878 c 128,-1,121
 1143 882 1143 882 1124 882 c 0,122,123
 1062 882 1062 882 1013 856.5 c 128,-1,124
 964 831 964 831 930.5 782 c 128,-1,125
 897 733 897 733 879 663 c 128,-1,126
 861 593 861 593 861 504 c 0,105,106
EndSplineSet
EndChar

StartChar: A
Encoding: 65 65 32
Width: 1554
Flags: W
LayerCount: 2
Fore
SplineSet
4 116 m 1,0,-1
 141 152 l 1,1,-1
 646 1553 l 1,2,-1
 908 1553 l 1,3,-1
 1395 152 l 1,4,-1
 1550 115 l 1,5,-1
 1550 0 l 1,6,-1
 934 0 l 1,7,-1
 934 115 l 1,8,-1
 1081 154 l 1,9,-1
 1012 379 l 1,10,-1
 442 379 l 1,11,-1
 371 156 l 1,12,-1
 528 116 l 1,13,-1
 528 0 l 1,14,-1
 4 0 l 1,15,-1
 4 116 l 1,0,-1
963 535 m 1,16,-1
 817 1006 l 1,17,-1
 734 1292 l 1,18,-1
 492 535 l 1,19,-1
 963 535 l 1,16,-1
EndSplineSet
EndChar

StartChar: B
Encoding: 66 66 33
Width: 1441
Flags: W
LayerCount: 2
Fore
SplineSet
91 116 m 1,0,-1
 252 154 l 1,1,-1
 252 1397 l 1,2,-1
 95 1418 l 1,3,-1
 95 1553 l 1,4,-1
 382 1553 l 1,5,6
 395 1555 395 1555 429 1557 c 128,-1,7
 463 1559 463 1559 511 1561 c 128,-1,8
 559 1563 559 1563 617.5 1564.5 c 128,-1,9
 676 1566 676 1566 739 1567 c 0,10,11
 869 1569 869 1569 968.5 1544.5 c 128,-1,12
 1068 1520 1068 1520 1135 1472.5 c 128,-1,13
 1202 1425 1202 1425 1236 1357.5 c 128,-1,14
 1270 1290 1270 1290 1270 1206 c 0,15,16
 1270 1141 1270 1141 1253.5 1082 c 128,-1,17
 1237 1023 1237 1023 1203 974 c 128,-1,18
 1169 925 1169 925 1117 889.5 c 128,-1,19
 1065 854 1065 854 995 837 c 1,20,21
 1072 836 1072 836 1141 807.5 c 128,-1,22
 1210 779 1210 779 1261.5 728.5 c 128,-1,23
 1313 678 1313 678 1343.5 609.5 c 128,-1,24
 1374 541 1374 541 1374 461 c 0,25,26
 1374 351 1374 351 1335.5 263.5 c 128,-1,27
 1297 176 1297 176 1214.5 115 c 128,-1,28
 1132 54 1132 54 1002.5 21 c 128,-1,29
 873 -12 873 -12 691 -12 c 0,30,31
 647 -12 647 -12 603.5 -10.5 c 128,-1,32
 560 -9 560 -9 516 -7 c 128,-1,33
 472 -5 472 -5 426 -3 c 128,-1,34
 380 -1 380 -1 330 0 c 1,35,-1
 91 0 l 1,36,-1
 91 116 l 1,0,-1
537 881 m 1,37,38
 568 873 568 873 615.5 873 c 128,-1,39
 663 873 663 873 716 873 c 0,40,41
 800 873 800 873 854.5 899.5 c 128,-1,42
 909 926 909 926 940.5 968.5 c 128,-1,43
 972 1011 972 1011 984.5 1065 c 128,-1,44
 997 1119 997 1119 997 1175 c 0,45,46
 997 1233 997 1233 979 1280.5 c 128,-1,47
 961 1328 961 1328 923.5 1362 c 128,-1,48
 886 1396 886 1396 829 1415 c 128,-1,49
 772 1434 772 1434 694 1434 c 0,50,51
 680 1434 680 1434 658.5 1433.5 c 128,-1,52
 637 1433 637 1433 614.5 1431.5 c 128,-1,53
 592 1430 592 1430 571.5 1427 c 128,-1,54
 551 1424 551 1424 539 1419 c 1,55,-1
 537 881 l 1,37,38
536 151 m 1,56,57
 549 144 549 144 573.5 138 c 128,-1,58
 598 132 598 132 629 128 c 128,-1,59
 660 124 660 124 694.5 121.5 c 128,-1,60
 729 119 729 119 762 119 c 0,61,62
 840 119 840 119 898 144 c 128,-1,63
 956 169 956 169 995 211.5 c 128,-1,64
 1034 254 1034 254 1053.5 311.5 c 128,-1,65
 1073 369 1073 369 1073 435 c 0,66,67
 1073 502 1073 502 1056 557.5 c 128,-1,68
 1039 613 1039 613 1002 652.5 c 128,-1,69
 965 692 965 692 906 713.5 c 128,-1,70
 847 735 847 735 762 735 c 0,71,72
 706 735 706 735 646.5 734.5 c 128,-1,73
 587 734 587 734 536 726 c 1,74,-1
 536 151 l 1,56,57
EndSplineSet
EndChar

StartChar: C
Encoding: 67 67 34
Width: 1447
Flags: W
LayerCount: 2
Fore
SplineSet
76 724 m 0,0,1
 76 853 76 853 108 966 c 128,-1,2
 140 1079 140 1079 197.5 1172.5 c 128,-1,3
 255 1266 255 1266 334 1339.5 c 128,-1,4
 413 1413 413 1413 507.5 1463.5 c 128,-1,5
 602 1514 602 1514 707.5 1540.5 c 128,-1,6
 813 1567 813 1567 924 1567 c 0,7,8
 999 1567 999 1567 1061.5 1559 c 128,-1,9
 1124 1551 1124 1551 1175.5 1540.5 c 128,-1,10
 1227 1530 1227 1530 1269 1518.5 c 128,-1,11
 1311 1507 1311 1507 1345 1500 c 1,12,-1
 1326 1154 l 1,13,-1
 1162 1154 l 1,14,-1
 1098 1342 l 1,15,16
 1078 1360 1078 1360 1056 1373 c 128,-1,17
 1034 1386 1034 1386 1004.5 1394.5 c 128,-1,18
 975 1403 975 1403 936 1407.5 c 128,-1,19
 897 1412 897 1412 843 1412 c 0,20,21
 750 1412 750 1412 667 1371.5 c 128,-1,22
 584 1331 584 1331 522 1253.5 c 128,-1,23
 460 1176 460 1176 424 1062.5 c 128,-1,24
 388 949 388 949 388 803 c 0,25,26
 388 713 388 713 401.5 627 c 128,-1,27
 415 541 415 541 442 464.5 c 128,-1,28
 469 388 469 388 509 323.5 c 128,-1,29
 549 259 549 259 602 212.5 c 128,-1,30
 655 166 655 166 720 140 c 128,-1,31
 785 114 785 114 863 114 c 0,32,33
 925 114 925 114 970.5 121.5 c 128,-1,34
 1016 129 1016 129 1049 142 c 128,-1,35
 1082 155 1082 155 1103.5 173 c 128,-1,36
 1125 191 1125 191 1139 212 c 1,37,-1
 1210 392 l 1,38,-1
 1346 392 l 1,39,-1
 1346 65 l 1,40,41
 1309 63 1309 63 1265.5 48.5 c 128,-1,42
 1222 34 1222 34 1162 17 c 128,-1,43
 1102 0 1102 0 1021 -14 c 128,-1,44
 940 -28 940 -28 829 -28 c 0,45,46
 653 -28 653 -28 513.5 29 c 128,-1,47
 374 86 374 86 276.5 186.5 c 128,-1,48
 179 287 179 287 127.5 425 c 128,-1,49
 76 563 76 563 76 724 c 0,0,1
EndSplineSet
EndChar

StartChar: D
Encoding: 68 68 35
Width: 1606
Flags: W
LayerCount: 2
Fore
SplineSet
97 116 m 1,0,-1
 252 152 l 1,1,-1
 252 1398 l 1,2,-1
 101 1418 l 1,3,-1
 101 1553 l 1,4,-1
 401 1553 l 2,5,6
 448 1553 448 1553 492.5 1555 c 128,-1,7
 537 1557 537 1557 581 1560 c 128,-1,8
 625 1563 625 1563 670 1565 c 128,-1,9
 715 1567 715 1567 763 1567 c 0,10,11
 964 1567 964 1567 1108.5 1513.5 c 128,-1,12
 1253 1460 1253 1460 1347 1362 c 128,-1,13
 1441 1264 1441 1264 1485.5 1126 c 128,-1,14
 1530 988 1530 988 1530 820 c 0,15,16
 1530 623 1530 623 1470 468.5 c 128,-1,17
 1410 314 1410 314 1303.5 207 c 128,-1,18
 1197 100 1197 100 1051 44 c 128,-1,19
 905 -12 905 -12 732 -10 c 0,20,21
 695 -10 695 -10 653.5 -8 c 128,-1,22
 612 -6 612 -6 569.5 -4 c 128,-1,23
 527 -2 527 -2 485 -0.5 c 128,-1,24
 443 1 443 1 405 1 c 0,25,26
 328 1 328 1 251 0.5 c 128,-1,27
 174 0 174 0 97 0 c 1,28,-1
 97 116 l 1,0,-1
540 159 m 1,29,30
 635 117 635 117 794 128 c 1,31,32
 884 133 884 133 963 177 c 128,-1,33
 1042 221 1042 221 1101.5 301.5 c 128,-1,34
 1161 382 1161 382 1195 496.5 c 128,-1,35
 1229 611 1229 611 1229 757 c 0,36,37
 1229 927 1229 927 1195.5 1053 c 128,-1,38
 1162 1179 1162 1179 1097.5 1262.5 c 128,-1,39
 1033 1346 1033 1346 938.5 1387 c 128,-1,40
 844 1428 844 1428 723 1428 c 1,41,42
 662 1427 662 1427 617 1420.5 c 128,-1,43
 572 1414 572 1414 540 1403 c 1,44,-1
 540 159 l 1,29,30
EndSplineSet
EndChar

StartChar: E
Encoding: 69 69 36
Width: 1380
Flags: W
LayerCount: 2
Fore
SplineSet
101 116 m 1,0,-1
 258 152 l 1,1,-1
 258 1397 l 1,2,-1
 106 1418 l 1,3,-1
 106 1553 l 1,4,-1
 1199 1553 l 1,5,-1
 1229 1235 l 1,6,-1
 1065 1235 l 1,7,-1
 992 1399 l 1,8,-1
 543 1416 l 1,9,-1
 543 870 l 1,10,-1
 849 878 l 1,11,-1
 893 1031 l 1,12,-1
 1040 1031 l 1,13,-1
 1040 568 l 1,14,-1
 893 568 l 1,15,-1
 849 724 l 1,16,-1
 543 730 l 1,17,-1
 543 137 l 1,18,-1
 1049 162 l 1,19,-1
 1165 363 l 1,20,-1
 1325 332 l 1,21,-1
 1274 0 l 1,22,-1
 101 0 l 1,23,-1
 101 116 l 1,0,-1
EndSplineSet
EndChar

StartChar: F
Encoding: 70 70 37
Width: 1286
Flags: W
LayerCount: 2
Fore
SplineSet
93 116 m 1,0,-1
 252 148 l 1,1,-1
 252 1398 l 1,2,-1
 93 1418 l 1,3,-1
 93 1553 l 1,4,-1
 1208 1553 l 1,5,-1
 1234 1232 l 1,6,-1
 1091 1230 l 1,7,-1
 1030 1388 l 1,8,-1
 538 1407 l 1,9,-1
 538 852 l 1,10,-1
 892 862 l 1,11,-1
 946 1012 l 1,12,-1
 1074 1012 l 1,13,-1
 1074 540 l 1,14,-1
 931 540 l 1,15,-1
 895 699 l 1,16,-1
 538 705 l 1,17,-1
 538 156 l 1,18,-1
 845 131 l 1,19,-1
 845 0 l 1,20,-1
 93 0 l 1,21,-1
 93 116 l 1,0,-1
EndSplineSet
EndChar

StartChar: G
Encoding: 71 71 38
Width: 1564
Flags: W
LayerCount: 2
Fore
SplineSet
74 738 m 0,0,1
 74 931 74 931 137 1085 c 128,-1,2
 200 1239 200 1239 310 1346 c 128,-1,3
 420 1453 420 1453 569 1510 c 128,-1,4
 718 1567 718 1567 891 1567 c 0,5,6
 988 1567 988 1567 1068.5 1560 c 128,-1,7
 1149 1553 1149 1553 1210.5 1543.5 c 128,-1,8
 1272 1534 1272 1534 1314.5 1524 c 128,-1,9
 1357 1514 1357 1514 1378 1508 c 1,10,-1
 1359 1189 l 1,11,-1
 1211 1189 l 1,12,-1
 1136 1362 l 1,13,14
 1130 1370 1130 1370 1109.5 1381.5 c 128,-1,15
 1089 1393 1089 1393 1053.5 1403.5 c 128,-1,16
 1018 1414 1018 1414 967.5 1421 c 128,-1,17
 917 1428 917 1428 852 1428 c 0,18,19
 748 1427 748 1427 661.5 1382 c 128,-1,20
 575 1337 575 1337 513 1256 c 128,-1,21
 451 1175 451 1175 416 1061.5 c 128,-1,22
 381 948 381 948 381 810 c 0,23,24
 381 720 381 720 392.5 632.5 c 128,-1,25
 404 545 404 545 427.5 467 c 128,-1,26
 451 389 451 389 487.5 323 c 128,-1,27
 524 257 524 257 574.5 209.5 c 128,-1,28
 625 162 625 162 690.5 135 c 128,-1,29
 756 108 756 108 837 108 c 0,30,31
 882 108 882 108 927.5 116 c 128,-1,32
 973 124 973 124 1012 139 c 128,-1,33
 1051 154 1051 154 1081 176 c 128,-1,34
 1111 198 1111 198 1126 225 c 1,35,-1
 1126 548 l 1,36,-1
 901 571 l 1,37,-1
 901 708 l 1,38,-1
 1495 708 l 1,39,-1
 1495 571 l 1,40,-1
 1388 549 l 1,41,-1
 1388 66 l 1,42,43
 1337 69 1337 69 1269.5 55 c 128,-1,44
 1202 41 1202 41 1123.5 22.5 c 128,-1,45
 1045 4 1045 4 957.5 -12 c 128,-1,46
 870 -28 870 -28 780 -28 c 0,47,48
 620 -28 620 -28 489.5 30.5 c 128,-1,49
 359 89 359 89 267 192 c 128,-1,50
 175 295 175 295 124.5 435 c 128,-1,51
 74 575 74 575 74 738 c 0,0,1
EndSplineSet
EndChar

StartChar: H
Encoding: 72 72 39
Width: 1748
Flags: W
LayerCount: 2
Fore
SplineSet
83 116 m 1,0,-1
 252 154 l 1,1,-1
 252 1397 l 1,2,-1
 81 1418 l 1,3,-1
 81 1553 l 1,4,-1
 708 1553 l 1,5,-1
 708 1418 l 1,6,-1
 540 1398 l 1,7,-1
 540 853 l 1,8,-1
 1209 853 l 1,9,-1
 1209 1399 l 1,10,-1
 1042 1418 l 1,11,-1
 1042 1553 l 1,12,-1
 1665 1553 l 1,13,-1
 1665 1418 l 1,14,-1
 1496 1398 l 1,15,-1
 1496 153 l 1,16,-1
 1675 115 l 1,17,-1
 1675 0 l 1,18,-1
 1031 0 l 1,19,-1
 1031 115 l 1,20,-1
 1209 152 l 1,21,-1
 1209 693 l 1,22,-1
 540 693 l 1,23,-1
 540 153 l 1,24,-1
 718 116 l 1,25,-1
 718 0 l 1,26,-1
 83 0 l 1,27,-1
 83 116 l 1,0,-1
EndSplineSet
EndChar

StartChar: I
Encoding: 73 73 40
Width: 811
Flags: W
LayerCount: 2
Fore
SplineSet
77 116 m 1,0,-1
 261 153 l 1,1,-1
 261 1397 l 1,2,-1
 78 1418 l 1,3,-1
 78 1553 l 1,4,-1
 726 1553 l 1,5,-1
 726 1418 l 1,6,-1
 550 1396 l 1,7,-1
 550 154 l 1,8,-1
 736 116 l 1,9,-1
 736 0 l 1,10,-1
 77 0 l 1,11,-1
 77 116 l 1,0,-1
EndSplineSet
EndChar

StartChar: J
Encoding: 74 74 41
Width: 758
Flags: W
LayerCount: 2
Fore
SplineSet
206 -52 m 1,0,1
 221 -8 221 -8 231 40 c 128,-1,2
 241 88 241 88 246 143.5 c 128,-1,3
 251 199 251 199 253 263 c 128,-1,4
 255 327 255 327 255 404 c 2,5,-1
 255 1398 l 1,6,-1
 99 1418 l 1,7,-1
 99 1553 l 1,8,-1
 695 1553 l 1,9,-1
 695 1418 l 1,10,-1
 544 1397 l 1,11,-1
 544 541 l 2,12,13
 544 460 544 460 542 381 c 128,-1,14
 540 302 540 302 535.5 231 c 128,-1,15
 531 160 531 160 522.5 100.5 c 128,-1,16
 514 41 514 41 501 -2 c 1,17,18
 470 -95 470 -95 409 -165.5 c 128,-1,19
 348 -236 348 -236 273 -284.5 c 128,-1,20
 198 -333 198 -333 116 -360 c 128,-1,21
 34 -387 34 -387 -39 -393 c 1,22,-1
 -101 -305 l 1,23,24
 -49 -287 -49 -287 -2 -263 c 128,-1,25
 45 -239 45 -239 84.5 -208 c 128,-1,26
 124 -177 124 -177 155 -138.5 c 128,-1,27
 186 -100 186 -100 206 -52 c 1,0,1
EndSplineSet
EndChar

StartChar: K
Encoding: 75 75 42
Width: 1485
Flags: W
LayerCount: 2
Fore
SplineSet
72 116 m 1,0,-1
 252 153 l 1,1,-1
 252 1396 l 1,2,-1
 72 1418 l 1,3,-1
 72 1553 l 1,4,-1
 709 1553 l 1,5,-1
 709 1418 l 1,6,-1
 537 1395 l 1,7,-1
 537 776 l 1,8,-1
 1045 1397 l 1,9,-1
 887 1418 l 1,10,11
 887 1452 887 1452 886.5 1485.5 c 128,-1,12
 886 1519 886 1519 885 1553 c 1,13,-1
 1452 1553 l 1,14,-1
 1452 1418 l 1,15,-1
 1276 1395 l 1,16,-1
 827 891 l 1,17,18
 867 852 867 852 916 785 c 128,-1,19
 965 718 965 718 1016 639 c 128,-1,20
 1067 560 1067 560 1118 477.5 c 128,-1,21
 1169 395 1169 395 1214.5 326 c 128,-1,22
 1260 257 1260 257 1297 209.5 c 128,-1,23
 1334 162 1334 162 1358 153 c 1,24,-1
 1501 116 l 1,25,-1
 1501 0 l 1,26,-1
 1127 0 l 2,27,28
 1102 0 1102 0 1069.5 44 c 128,-1,29
 1037 88 1037 88 999.5 157 c 128,-1,30
 962 226 962 226 920.5 310 c 128,-1,31
 879 394 879 394 837 474 c 128,-1,32
 795 554 795 554 753.5 620 c 128,-1,33
 712 686 712 686 674 719 c 1,34,-1
 537 565 l 1,35,-1
 537 153 l 1,36,-1
 731 116 l 1,37,-1
 731 0 l 1,38,-1
 72 0 l 1,39,-1
 72 116 l 1,0,-1
EndSplineSet
EndChar

StartChar: L
Encoding: 76 76 43
Width: 1272
Flags: W
LayerCount: 2
Fore
SplineSet
99 116 m 1,0,-1
 252 151 l 1,1,-1
 252 1382 l 1,2,-1
 103 1401 l 1,3,-1
 103 1553 l 1,4,-1
 721 1553 l 1,5,-1
 721 1401 l 1,6,-1
 541 1381 l 1,7,-1
 540 139 l 1,8,-1
 976 173 l 1,9,-1
 1124 411 l 1,10,-1
 1247 360 l 1,11,-1
 1180 0 l 1,12,-1
 99 0 l 1,13,-1
 99 116 l 1,0,-1
EndSplineSet
EndChar

StartChar: M
Encoding: 77 77 44
Width: 2024
Flags: W
LayerCount: 2
Fore
SplineSet
69 116 m 1,0,-1
 241 153 l 1,1,-1
 324 1379 l 1,2,-1
 134 1400 l 1,3,-1
 134 1553 l 1,4,-1
 719 1553 l 1,5,-1
 1011 630 l 1,6,-1
 1049 443 l 1,7,-1
 1094 631 l 1,8,-1
 1371 1553 l 1,9,-1
 1910 1553 l 1,10,-1
 1910 1400 l 1,11,-1
 1723 1380 l 1,12,-1
 1830 153 l 1,13,-1
 1994 115 l 1,14,-1
 1994 0 l 1,15,-1
 1393 0 l 1,16,-1
 1393 115 l 1,17,-1
 1557 154 l 1,18,-1
 1490 993 l 1,19,-1
 1484 1373 l 1,20,-1
 1447 1224 l 1,21,-1
 1063 -17 l 1,22,-1
 960 -17 l 1,23,-1
 607 1018 l 2,24,25
 601 1033 601 1033 588 1073 c 128,-1,26
 575 1113 575 1113 558.5 1164 c 128,-1,27
 542 1215 542 1215 524 1270.5 c 128,-1,28
 506 1326 506 1326 491 1373 c 1,29,-1
 485 1067 l 1,30,-1
 447 155 l 1,31,-1
 634 116 l 1,32,-1
 634 0 l 1,33,-1
 69 0 l 1,34,-1
 69 116 l 1,0,-1
EndSplineSet
EndChar

StartChar: N
Encoding: 78 78 45
Width: 1687
Flags: W
LayerCount: 2
Fore
SplineSet
89 116 m 1,0,-1
 252 155 l 1,1,-1
 252 1381 l 1,2,-1
 96 1401 l 1,3,-1
 96 1553 l 1,4,-1
 538 1553 l 1,5,-1
 1169 485 l 1,6,-1
 1281 224 l 1,7,-1
 1281 1379 l 1,8,-1
 1107 1403 l 1,9,-1
 1107 1553 l 1,10,-1
 1621 1553 l 1,11,-1
 1621 1403 l 1,12,-1
 1471 1382 l 1,13,-1
 1471 0 l 1,14,-1
 1160 0 l 1,15,-1
 565 970 l 1,16,-1
 445 1247 l 1,17,-1
 445 157 l 1,18,-1
 644 116 l 1,19,-1
 644 0 l 1,20,-1
 89 0 l 1,21,-1
 89 116 l 1,0,-1
EndSplineSet
EndChar

StartChar: O
Encoding: 79 79 46
Width: 1580
Flags: W
LayerCount: 2
Fore
SplineSet
75 753 m 0,0,1
 79 943 79 943 140.5 1093.5 c 128,-1,2
 202 1244 202 1244 303 1348.5 c 128,-1,3
 404 1453 404 1453 535.5 1509 c 128,-1,4
 667 1565 667 1565 811 1567 c 0,5,6
 971 1569 971 1569 1101 1511 c 128,-1,7
 1231 1453 1231 1453 1321.5 1348.5 c 128,-1,8
 1412 1244 1412 1244 1460 1101 c 128,-1,9
 1508 958 1508 958 1505 789 c 0,10,11
 1501 599 1501 599 1444 448 c 128,-1,12
 1387 297 1387 297 1291 191.5 c 128,-1,13
 1195 86 1195 86 1065.5 29.5 c 128,-1,14
 936 -27 936 -27 786 -28 c 0,15,16
 621 -30 621 -30 488 29.5 c 128,-1,17
 355 89 355 89 262 194 c 128,-1,18
 169 299 169 299 120.5 442.5 c 128,-1,19
 72 586 72 586 75 753 c 0,0,1
800 108 m 0,20,21
 903 108 903 108 976.5 152 c 128,-1,22
 1050 196 1050 196 1097.5 282.5 c 128,-1,23
 1145 369 1145 369 1167 496 c 128,-1,24
 1189 623 1189 623 1189 788 c 0,25,26
 1189 863 1189 863 1179 939.5 c 128,-1,27
 1169 1016 1169 1016 1148 1087 c 128,-1,28
 1127 1158 1127 1158 1095 1220 c 128,-1,29
 1063 1282 1063 1282 1019.5 1328.5 c 128,-1,30
 976 1375 976 1375 920.5 1401.5 c 128,-1,31
 865 1428 865 1428 798 1428 c 0,32,33
 694 1428 694 1428 617.5 1383 c 128,-1,34
 541 1338 541 1338 490.5 1252 c 128,-1,35
 440 1166 440 1166 415.5 1040.5 c 128,-1,36
 391 915 391 915 391 754 c 0,37,38
 391 683 391 683 402 607.5 c 128,-1,39
 413 532 413 532 435 460.5 c 128,-1,40
 457 389 457 389 491 324.5 c 128,-1,41
 525 260 525 260 570 212 c 128,-1,42
 615 164 615 164 672.5 136 c 128,-1,43
 730 108 730 108 800 108 c 0,20,21
EndSplineSet
EndChar

StartChar: P
Encoding: 80 80 47
Width: 1337
Flags: W
LayerCount: 2
Fore
SplineSet
71 116 m 1,0,-1
 252 154 l 1,1,-1
 252 1381 l 1,2,-1
 83 1408 l 1,3,-1
 83 1553 l 1,4,-1
 400 1553 l 2,5,6
 464 1553 464 1553 554.5 1560 c 128,-1,7
 645 1567 645 1567 749 1567 c 0,8,9
 867 1567 867 1567 970.5 1547 c 128,-1,10
 1074 1527 1074 1527 1150.5 1475 c 128,-1,11
 1227 1423 1227 1423 1271.5 1334.5 c 128,-1,12
 1316 1246 1316 1246 1316 1109 c 0,13,14
 1316 985 1316 985 1268.5 889.5 c 128,-1,15
 1221 794 1221 794 1140 729 c 128,-1,16
 1059 664 1059 664 951.5 631 c 128,-1,17
 844 598 844 598 724 599 c 0,18,19
 658 600 658 600 613 599.5 c 128,-1,20
 568 599 568 599 536 598 c 1,21,-1
 536 153 l 1,22,-1
 791 116 l 1,23,-1
 791 0 l 1,24,-1
 71 0 l 1,25,-1
 71 116 l 1,0,-1
536 750 m 1,26,27
 578 743 578 743 628 741 c 128,-1,28
 678 739 678 739 718 739 c 0,29,30
 779 739 779 739 835.5 756 c 128,-1,31
 892 773 892 773 935.5 816 c 128,-1,32
 979 859 979 859 1005 932 c 128,-1,33
 1031 1005 1031 1005 1031 1117 c 0,34,35
 1031 1197 1031 1197 1007 1255.5 c 128,-1,36
 983 1314 983 1314 938.5 1352.5 c 128,-1,37
 894 1391 894 1391 831 1409 c 128,-1,38
 768 1427 768 1427 691 1427 c 0,39,40
 673 1427 673 1427 652 1426 c 128,-1,41
 631 1425 631 1425 610 1423 c 128,-1,42
 589 1421 589 1421 569.5 1418 c 128,-1,43
 550 1415 550 1415 536 1411 c 1,44,-1
 536 750 l 1,26,27
EndSplineSet
EndChar

StartChar: Q
Encoding: 81 81 48
Width: 1580
Flags: W
LayerCount: 2
Fore
SplineSet
75 753 m 0,0,1
 79 943 79 943 140.5 1093.5 c 128,-1,2
 202 1244 202 1244 303 1348.5 c 128,-1,3
 404 1453 404 1453 535.5 1509 c 128,-1,4
 667 1565 667 1565 811 1567 c 0,5,6
 971 1569 971 1569 1101 1511 c 128,-1,7
 1231 1453 1231 1453 1321.5 1348.5 c 128,-1,8
 1412 1244 1412 1244 1460 1101 c 128,-1,9
 1508 958 1508 958 1505 789 c 1,10,11
 1501 626 1501 626 1458.5 492 c 128,-1,12
 1416 358 1416 358 1342.5 256 c 128,-1,13
 1269 154 1269 154 1169 87 c 128,-1,14
 1069 20 1069 20 951 -8 c 1,15,16
 968 -49 968 -49 996 -76 c 128,-1,17
 1024 -103 1024 -103 1057.5 -119.5 c 128,-1,18
 1091 -136 1091 -136 1127.5 -143 c 128,-1,19
 1164 -150 1164 -150 1198.5 -152.5 c 128,-1,20
 1233 -155 1233 -155 1263.5 -153.5 c 128,-1,21
 1294 -152 1294 -152 1316 -151 c 0,22,23
 1363 -147 1363 -147 1403 -136 c 128,-1,24
 1443 -125 1443 -125 1464 -115 c 1,25,-1
 1472 -292 l 1,26,27
 1443 -324 1443 -324 1377 -350 c 128,-1,28
 1311 -376 1311 -376 1208 -376 c 0,29,30
 1146 -376 1146 -376 1085 -361.5 c 128,-1,31
 1024 -347 1024 -347 970 -308 c 128,-1,32
 916 -269 916 -269 873.5 -201.5 c 128,-1,33
 831 -134 831 -134 807 -27 c 1,34,35
 802 -27 802 -27 796.5 -27.5 c 128,-1,36
 791 -28 791 -28 786 -28 c 0,37,38
 621 -30 621 -30 488 29.5 c 128,-1,39
 355 89 355 89 262 194 c 128,-1,40
 169 299 169 299 120.5 442.5 c 128,-1,41
 72 586 72 586 75 753 c 0,0,1
800 108 m 0,42,43
 903 108 903 108 976.5 152 c 128,-1,44
 1050 196 1050 196 1097.5 282.5 c 128,-1,45
 1145 369 1145 369 1167 496 c 128,-1,46
 1189 623 1189 623 1189 788 c 0,47,48
 1189 863 1189 863 1179 939.5 c 128,-1,49
 1169 1016 1169 1016 1148 1087 c 128,-1,50
 1127 1158 1127 1158 1095 1220 c 128,-1,51
 1063 1282 1063 1282 1019.5 1328.5 c 128,-1,52
 976 1375 976 1375 920.5 1401.5 c 128,-1,53
 865 1428 865 1428 798 1428 c 0,54,55
 694 1428 694 1428 617.5 1383 c 128,-1,56
 541 1338 541 1338 490.5 1252 c 128,-1,57
 440 1166 440 1166 415.5 1040.5 c 128,-1,58
 391 915 391 915 391 754 c 0,59,60
 391 683 391 683 402 607.5 c 128,-1,61
 413 532 413 532 435 460.5 c 128,-1,62
 457 389 457 389 491 324.5 c 128,-1,63
 525 260 525 260 570 212 c 128,-1,64
 615 164 615 164 672.5 136 c 128,-1,65
 730 108 730 108 800 108 c 0,42,43
EndSplineSet
EndChar

StartChar: R
Encoding: 82 82 49
Width: 1479
Flags: W
LayerCount: 2
Fore
SplineSet
72 116 m 1,0,-1
 252 154 l 1,1,-1
 252 1387 l 1,2,-1
 93 1408 l 1,3,-1
 93 1553 l 1,4,-1
 334 1553 l 2,5,6
 436 1553 436 1553 535.5 1560 c 128,-1,7
 635 1567 635 1567 722 1567 c 0,8,9
 845 1567 845 1567 949 1546 c 128,-1,10
 1053 1525 1053 1525 1129.5 1477 c 128,-1,11
 1206 1429 1206 1429 1249 1351 c 128,-1,12
 1292 1273 1292 1273 1292 1158 c 0,13,14
 1292 988 1292 988 1206 873 c 128,-1,15
 1120 758 1120 758 955 701 c 1,16,17
 1000 680 1000 680 1041 635 c 128,-1,18
 1082 590 1082 590 1119 533 c 128,-1,19
 1156 476 1156 476 1190 414 c 128,-1,20
 1224 352 1224 352 1255.5 297.5 c 128,-1,21
 1287 243 1287 243 1317 203 c 128,-1,22
 1347 163 1347 163 1376 150 c 1,23,-1
 1496 116 l 1,24,-1
 1496 0 l 1,25,-1
 1132 0 l 2,26,27
 1110 0 1110 0 1086.5 28.5 c 128,-1,28
 1063 57 1063 57 1038.5 104 c 128,-1,29
 1014 151 1014 151 987.5 210.5 c 128,-1,30
 961 270 961 270 933.5 332 c 128,-1,31
 906 394 906 394 876 453.5 c 128,-1,32
 846 513 846 513 813.5 559 c 128,-1,33
 781 605 781 605 746.5 632.5 c 128,-1,34
 712 660 712 660 675 658 c 1,35,-1
 537 656 l 1,36,-1
 537 151 l 1,37,-1
 735 116 l 1,38,-1
 735 0 l 1,39,-1
 72 0 l 1,40,-1
 72 116 l 1,0,-1
537 799 m 1,41,42
 555 796 555 796 580.5 794 c 128,-1,43
 606 792 606 792 633 791.5 c 128,-1,44
 660 791 660 791 686 791.5 c 128,-1,45
 712 792 712 792 733 794 c 0,46,47
 787 797 787 797 837 814.5 c 128,-1,48
 887 832 887 832 925.5 870 c 128,-1,49
 964 908 964 908 987 971 c 128,-1,50
 1010 1034 1010 1034 1010 1127 c 0,51,52
 1010 1188 1010 1188 994 1243.5 c 128,-1,53
 978 1299 978 1299 940 1340.5 c 128,-1,54
 902 1382 902 1382 839 1405.5 c 128,-1,55
 776 1429 776 1429 683 1428 c 0,56,57
 645 1427 645 1427 604.5 1425.5 c 128,-1,58
 564 1424 564 1424 537 1414 c 1,59,-1
 537 799 l 1,41,42
EndSplineSet
EndChar

StartChar: S
Encoding: 83 83 50
Width: 1278
Flags: W
LayerCount: 2
Fore
SplineSet
144 432 m 1,0,-1
 267 432 l 1,1,-1
 347 209 l 1,2,3
 375 176 375 176 410.5 155.5 c 128,-1,4
 446 135 446 135 486 123.5 c 128,-1,5
 526 112 526 112 568 108.5 c 128,-1,6
 610 105 610 105 651 105 c 0,7,8
 697 105 697 105 744.5 117.5 c 128,-1,9
 792 130 792 130 830.5 158.5 c 128,-1,10
 869 187 869 187 893.5 233 c 128,-1,11
 918 279 918 279 918 346 c 0,12,13
 918 403 918 403 887 449.5 c 128,-1,14
 856 496 856 496 805 536.5 c 128,-1,15
 754 577 754 577 688 614.5 c 128,-1,16
 622 652 622 652 552 690 c 0,17,18
 477 731 477 731 404 777 c 128,-1,19
 331 823 331 823 273.5 878.5 c 128,-1,20
 216 934 216 934 180.5 1002.5 c 128,-1,21
 145 1071 145 1071 145 1158 c 0,22,23
 145 1227 145 1227 166.5 1284.5 c 128,-1,24
 188 1342 188 1342 225 1387.5 c 128,-1,25
 262 1433 262 1433 312 1466.5 c 128,-1,26
 362 1500 362 1500 418.5 1522.5 c 128,-1,27
 475 1545 475 1545 536.5 1556 c 128,-1,28
 598 1567 598 1567 658 1567 c 0,29,30
 736 1567 736 1567 808 1559.5 c 128,-1,31
 880 1552 880 1552 939 1541 c 128,-1,32
 998 1530 998 1530 1040 1517 c 128,-1,33
 1082 1504 1082 1504 1100 1493 c 1,34,-1
 1100 1185 l 1,35,-1
 970 1185 l 1,36,-1
 883 1387 l 1,37,38
 873 1397 873 1397 851 1407 c 128,-1,39
 829 1417 829 1417 800 1424.5 c 128,-1,40
 771 1432 771 1432 737.5 1436.5 c 128,-1,41
 704 1441 704 1441 671 1441 c 0,42,43
 631 1441 631 1441 586 1431.5 c 128,-1,44
 541 1422 541 1422 503 1398.5 c 128,-1,45
 465 1375 465 1375 440 1336 c 128,-1,46
 415 1297 415 1297 415 1238 c 0,47,48
 415 1182 415 1182 440.5 1135.5 c 128,-1,49
 466 1089 466 1089 508.5 1048.5 c 128,-1,50
 551 1008 551 1008 607.5 973 c 128,-1,51
 664 938 664 938 726 904 c 0,52,53
 781 874 781 874 837.5 843.5 c 128,-1,54
 894 813 894 813 946.5 779 c 128,-1,55
 999 745 999 745 1045 707 c 128,-1,56
 1091 669 1091 669 1125.5 624.5 c 128,-1,57
 1160 580 1160 580 1179.5 527 c 128,-1,58
 1199 474 1199 474 1199 411 c 0,59,60
 1199 308 1199 308 1157.5 227 c 128,-1,61
 1116 146 1116 146 1042 89.5 c 128,-1,62
 968 33 968 33 865 3.5 c 128,-1,63
 762 -26 762 -26 638 -26 c 0,64,65
 566 -26 566 -26 491.5 -18.5 c 128,-1,66
 417 -11 417 -11 350.5 1.5 c 128,-1,67
 284 14 284 14 229.5 30 c 128,-1,68
 175 46 175 46 144 63 c 1,69,-1
 144 432 l 1,0,-1
EndSplineSet
EndChar

StartChar: T
Encoding: 84 84 51
Width: 1375
Flags: W
LayerCount: 2
Fore
SplineSet
327 116 m 1,0,-1
 564 152 l 1,1,-1
 564 1410 l 1,2,-1
 251 1386 l 1,3,-1
 182 1190 l 1,4,-1
 40 1184 l 1,5,-1
 64 1553 l 1,6,-1
 1339 1553 l 1,7,-1
 1337 1189 l 1,8,-1
 1221 1176 l 1,9,-1
 1155 1386 l 1,10,-1
 849 1410 l 1,11,-1
 849 153 l 1,12,-1
 1089 116 l 1,13,-1
 1089 0 l 1,14,-1
 327 0 l 1,15,-1
 327 116 l 1,0,-1
EndSplineSet
EndChar

StartChar: U
Encoding: 85 85 52
Width: 1596
Flags: W
LayerCount: 2
Fore
SplineSet
193 641 m 1,0,1
 193 825 193 825 193.5 1017 c 128,-1,2
 194 1209 194 1209 195 1396 c 1,3,-1
 37 1418 l 1,4,-1
 37 1553 l 1,5,-1
 654 1553 l 1,6,-1
 654 1418 l 1,7,-1
 481 1396 l 1,8,-1
 481 630 l 2,9,10
 481 524 481 524 495.5 445 c 128,-1,11
 510 366 510 366 536.5 309 c 128,-1,12
 563 252 563 252 599.5 214.5 c 128,-1,13
 636 177 636 177 679.5 155.5 c 128,-1,14
 723 134 723 134 772 125.5 c 128,-1,15
 821 117 821 117 872 117 c 0,16,17
 956 117 956 117 1022 149 c 128,-1,18
 1088 181 1088 181 1133 249 c 128,-1,19
 1178 317 1178 317 1201.5 422.5 c 128,-1,20
 1225 528 1225 528 1225 675 c 2,21,-1
 1223 1394 l 1,22,-1
 1049 1418 l 1,23,-1
 1049 1553 l 1,24,-1
 1567 1553 l 1,25,-1
 1567 1418 l 1,26,-1
 1417 1394 l 1,27,-1
 1417 676 l 2,28,29
 1417 478 1417 478 1371 343.5 c 128,-1,30
 1325 209 1325 209 1245.5 126.5 c 128,-1,31
 1166 44 1166 44 1059.5 8 c 128,-1,32
 953 -28 953 -28 833 -28 c 0,33,34
 664 -28 664 -28 542.5 14 c 128,-1,35
 421 56 421 56 343 139.5 c 128,-1,36
 265 223 265 223 228.5 348.5 c 128,-1,37
 192 474 192 474 193 641 c 1,0,1
EndSplineSet
EndChar

StartChar: V
Encoding: 86 86 53
Width: 1464
Flags: W
LayerCount: 2
Fore
SplineSet
134 1399 m 1,0,-1
 10 1418 l 1,1,-1
 10 1553 l 1,2,-1
 620 1553 l 1,3,-1
 620 1419 l 1,4,-1
 450 1397 l 1,5,-1
 719 526 l 1,6,-1
 785 279 l 1,7,-1
 846 524 l 1,8,-1
 1091 1398 l 1,9,-1
 932 1418 l 1,10,-1
 932 1552 l 1,11,-1
 1454 1552 l 1,12,-1
 1454 1418 l 1,13,-1
 1333 1399 l 1,14,-1
 866 -17 l 1,15,-1
 646 -17 l 1,16,-1
 134 1399 l 1,0,-1
EndSplineSet
EndChar

StartChar: W
Encoding: 87 87 54
Width: 2203
Flags: W
LayerCount: 2
Fore
SplineSet
138 1398 m 1,0,-1
 11 1417 l 1,1,-1
 11 1553 l 1,2,-1
 597 1553 l 1,3,-1
 597 1418 l 1,4,-1
 448 1398 l 1,5,-1
 716 428 l 1,6,7
 727 382 727 382 738 336 c 128,-1,8
 749 290 749 290 761 244 c 1,9,-1
 807 423 l 1,10,-1
 1006 1229 l 1,11,-1
 959 1399 l 1,12,-1
 816 1417 l 1,13,-1
 816 1553 l 1,14,-1
 1418 1553 l 1,15,-1
 1418 1418 l 1,16,-1
 1251 1397 l 1,17,-1
 1484 420 l 1,18,-1
 1525 239 l 1,19,-1
 1572 436 l 1,20,-1
 1811 1398 l 1,21,-1
 1651 1417 l 1,22,-1
 1651 1553 l 1,23,-1
 2192 1553 l 1,24,-1
 2192 1417 l 1,25,-1
 2043 1400 l 1,26,-1
 1622 -18 l 1,27,-1
 1359 -18 l 1,28,-1
 1105 881 l 1,29,-1
 856 -17 l 1,30,-1
 603 -17 l 1,31,-1
 138 1398 l 1,0,-1
EndSplineSet
EndChar

StartChar: X
Encoding: 88 88 55
Width: 1495
Flags: W
LayerCount: 2
Fore
SplineSet
20 115 m 1,0,-1
 196 153 l 1,1,-1
 616 762 l 1,2,-1
 191 1397 l 1,3,-1
 36 1418 l 1,4,-1
 36 1553 l 1,5,-1
 679 1553 l 1,6,-1
 679 1419 l 1,7,-1
 520 1398 l 1,8,-1
 776 943 l 1,9,-1
 1049 1399 l 1,10,-1
 905 1418 l 1,11,-1
 905 1553 l 1,12,-1
 1464 1553 l 1,13,-1
 1464 1418 l 1,14,-1
 1294 1398 l 1,15,-1
 874 820 l 1,16,-1
 1320 154 l 1,17,-1
 1484 115 l 1,18,-1
 1484 0 l 1,19,-1
 837 0 l 1,20,-1
 837 114 l 1,21,-1
 998 151 l 1,22,-1
 716 623 l 1,23,-1
 447 154 l 1,24,-1
 637 115 l 1,25,-1
 637 0 l 1,26,-1
 20 0 l 1,27,-1
 20 115 l 1,0,-1
EndSplineSet
EndChar

StartChar: Y
Encoding: 89 89 56
Width: 1425
Flags: W
LayerCount: 2
Fore
SplineSet
372 116 m 1,0,-1
 596 155 l 1,1,-1
 596 566 l 1,2,-1
 125 1399 l 1,3,-1
 13 1418 l 1,4,-1
 13 1553 l 1,5,-1
 583 1553 l 1,6,-1
 583 1419 l 1,7,-1
 458 1399 l 1,8,-1
 737 843 l 1,9,-1
 773 741 l 1,10,-1
 812 849 l 1,11,-1
 1056 1395 l 1,12,-1
 894 1418 l 1,13,14
 894 1452 894 1452 893.5 1485.5 c 128,-1,15
 893 1519 893 1519 893 1553 c 1,16,-1
 1412 1553 l 1,17,-1
 1412 1418 l 1,18,-1
 1280 1384 l 1,19,-1
 883 584 l 1,20,-1
 883 157 l 1,21,-1
 1128 116 l 1,22,-1
 1128 0 l 1,23,-1
 372 0 l 1,24,-1
 372 116 l 1,0,-1
EndSplineSet
EndChar

StartChar: Z
Encoding: 90 90 57
Width: 1372
Flags: W
LayerCount: 2
Fore
SplineSet
69 117 m 1,0,-1
 864 1260 l 1,1,-1
 1003 1415 l 1,2,-1
 369 1379 l 1,3,-1
 255 1141 l 1,4,-1
 122 1166 l 1,5,-1
 161 1553 l 1,6,-1
 1277 1553 l 1,7,-1
 1315 1429 l 1,8,-1
 529 288 l 1,9,-1
 405 141 l 1,10,-1
 1046 184 l 1,11,-1
 1215 445 l 1,12,-1
 1342 412 l 1,13,-1
 1249 0 l 1,14,-1
 104 0 l 1,15,-1
 69 117 l 1,0,-1
EndSplineSet
EndChar

StartChar: bracketleft
Encoding: 91 91 58
Width: 1004
Flags: W
LayerCount: 2
Fore
SplineSet
233 1501 m 2,0,1
 233 1583 233 1583 248 1636.5 c 128,-1,2
 263 1690 263 1690 294.5 1720.5 c 128,-1,3
 326 1751 326 1751 375.5 1763 c 128,-1,4
 425 1775 425 1775 493 1775 c 0,5,6
 568 1775 568 1775 641.5 1755 c 128,-1,7
 715 1735 715 1735 784 1712 c 1,8,9
 784 1685 784 1685 783.5 1658.5 c 128,-1,10
 783 1632 783 1632 783 1605 c 1,11,-1
 482 1605 l 1,12,-1
 482 -42 l 1,13,-1
 783 -45 l 1,14,15
 783 -73 783 -73 784 -99.5 c 128,-1,16
 785 -126 785 -126 785 -153 c 1,17,18
 757 -165 757 -165 722 -176 c 128,-1,19
 687 -187 687 -187 649 -195 c 128,-1,20
 611 -203 611 -203 571 -208 c 128,-1,21
 531 -213 531 -213 494 -213 c 0,22,23
 425 -213 425 -213 376 -201.5 c 128,-1,24
 327 -190 327 -190 295 -157 c 128,-1,25
 263 -124 263 -124 248 -65 c 128,-1,26
 233 -6 233 -6 233 89 c 2,27,-1
 233 1501 l 2,0,1
EndSplineSet
EndChar

StartChar: backslash
Encoding: 92 92 59
Width: 822
Flags: W
LayerCount: 2
Fore
SplineSet
30 1599 m 1,0,-1
 253 1599 l 1,1,-1
 792 -363 l 1,2,-1
 570 -363 l 1,3,-1
 30 1599 l 1,0,-1
EndSplineSet
EndChar

StartChar: bracketright
Encoding: 93 93 60
Width: 1004
Flags: W
LayerCount: 2
Fore
SplineSet
519 -42 m 1,0,-1
 519 1605 l 1,1,-1
 218 1605 l 1,2,3
 218 1632 218 1632 217.5 1658.5 c 128,-1,4
 217 1685 217 1685 217 1712 c 1,5,6
 286 1735 286 1735 359 1755 c 128,-1,7
 432 1775 432 1775 507 1775 c 0,8,9
 575 1775 575 1775 624.5 1763 c 128,-1,10
 674 1751 674 1751 705.5 1720.5 c 128,-1,11
 737 1690 737 1690 752 1636.5 c 128,-1,12
 767 1583 767 1583 767 1501 c 2,13,-1
 767 89 l 2,14,15
 767 -6 767 -6 752 -65 c 128,-1,16
 737 -124 737 -124 705.5 -157 c 128,-1,17
 674 -190 674 -190 625 -201.5 c 128,-1,18
 576 -213 576 -213 507 -213 c 0,19,20
 470 -213 470 -213 430 -208 c 128,-1,21
 390 -203 390 -203 352 -195 c 128,-1,22
 314 -187 314 -187 278.5 -176 c 128,-1,23
 243 -165 243 -165 215 -153 c 1,24,-1
 218 -45 l 1,25,-1
 519 -42 l 1,0,-1
EndSplineSet
EndChar

StartChar: asciicircum
Encoding: 94 94 61
Width: 1423
Flags: W
LayerCount: 2
Fore
SplineSet
575 1531 m 1,0,-1
 853 1531 l 1,1,-1
 1242 564 l 1,2,3
 1178 564 1178 564 1113.5 563.5 c 128,-1,4
 1049 563 1049 563 985 563 c 1,5,-1
 698 1266 l 1,6,-1
 404 563 l 1,7,8
 348 563 348 563 292.5 563.5 c 128,-1,9
 237 564 237 564 181 564 c 1,10,-1
 575 1531 l 1,0,-1
EndSplineSet
EndChar

StartChar: underscore
Encoding: 95 95 62
Width: 1418
Flags: W
LayerCount: 2
Fore
SplineSet
1435 -193 m 1,0,-1
 1435 -389 l 1,1,-1
 -20 -389 l 1,2,-1
 -20 -193 l 1,3,-1
 1435 -193 l 1,0,-1
EndSplineSet
EndChar

StartChar: grave
Encoding: 96 96 63
Width: 884
Flags: W
LayerCount: 2
Fore
SplineSet
669 1338 m 1,0,1
 617 1345 617 1345 554.5 1375 c 128,-1,2
 492 1405 492 1405 431 1448.5 c 128,-1,3
 370 1492 370 1492 316 1543.5 c 128,-1,4
 262 1595 262 1595 228 1646 c 1,5,-1
 436 1821 l 1,6,-1
 742 1412 l 1,7,-1
 669 1338 l 1,8,-1
 669 1338 l 1,0,1
EndSplineSet
EndChar

StartChar: a
Encoding: 97 97 64
Width: 1191
Flags: W
LayerCount: 2
Fore
SplineSet
88 363 m 0,0,1
 99 426 99 426 138 474.5 c 128,-1,2
 177 523 177 523 233 559 c 128,-1,3
 289 595 289 595 357 619.5 c 128,-1,4
 425 644 425 644 493 658.5 c 128,-1,5
 561 673 561 673 625 679.5 c 128,-1,6
 689 686 689 686 737 686 c 1,7,-1
 737 724 l 2,8,9
 737 803 737 803 720 853 c 128,-1,10
 703 903 703 903 671.5 931.5 c 128,-1,11
 640 960 640 960 596 970 c 128,-1,12
 552 980 552 980 498 980 c 0,13,14
 448 980 448 980 401 971.5 c 128,-1,15
 354 963 354 963 313 951 c 128,-1,16
 272 939 272 939 239 924.5 c 128,-1,17
 206 910 206 910 184 898 c 1,18,-1
 130 1025 l 1,19,20
 155 1046 155 1046 201.5 1067.5 c 128,-1,21
 248 1089 248 1089 309 1106.5 c 128,-1,22
 370 1124 370 1124 442 1135 c 128,-1,23
 514 1146 514 1146 591 1146 c 0,24,25
 682 1146 682 1146 761 1128.5 c 128,-1,26
 840 1111 840 1111 898 1066.5 c 128,-1,27
 956 1022 956 1022 989 946.5 c 128,-1,28
 1022 871 1022 871 1022 754 c 2,29,-1
 1021 114 l 1,30,-1
 1150 114 l 1,31,-1
 1150 25 l 1,32,33
 1128 11 1128 11 1100 1 c 128,-1,34
 1072 -9 1072 -9 1041.5 -15 c 128,-1,35
 1011 -21 1011 -21 980 -23.5 c 128,-1,36
 949 -26 949 -26 921 -26 c 0,37,38
 902 -26 902 -26 876 -22.5 c 128,-1,39
 850 -19 850 -19 826 -7.5 c 128,-1,40
 802 4 802 4 785 26.5 c 128,-1,41
 768 49 768 49 768 87 c 2,42,-1
 768 96 l 1,43,44
 717 45 717 45 642 9.5 c 128,-1,45
 567 -26 567 -26 460 -26 c 0,46,47
 352 -26 352 -26 275 6 c 128,-1,48
 198 38 198 38 151.5 92 c 128,-1,49
 105 146 105 146 89.5 216 c 128,-1,50
 74 286 74 286 88 363 c 0,0,1
368 328 m 0,51,52
 368 221 368 221 426 176 c 128,-1,53
 484 131 484 131 593 139 c 0,54,55
 636 143 636 143 671.5 162.5 c 128,-1,56
 707 182 707 182 736 205 c 1,57,58
 736 293 736 293 736.5 380 c 128,-1,59
 737 467 737 467 737 555 c 1,60,61
 701 555 701 555 659.5 551 c 128,-1,62
 618 547 618 547 577 537 c 128,-1,63
 536 527 536 527 498.5 510 c 128,-1,64
 461 493 461 493 432 468 c 128,-1,65
 403 443 403 443 385.5 408.5 c 128,-1,66
 368 374 368 374 368 328 c 0,51,52
EndSplineSet
EndChar

StartChar: b
Encoding: 98 98 65
Width: 1300
Flags: W
LayerCount: 2
Fore
SplineSet
172 1420 m 1,0,-1
 27 1467 l 1,1,-1
 27 1584 l 1,2,-1
 407 1627 l 1,3,-1
 456 1610 l 1,4,-1
 456 1064 l 1,5,6
 506 1099 506 1099 577.5 1125.5 c 128,-1,7
 649 1152 649 1152 746 1152 c 0,8,9
 835 1152 835 1152 919.5 1122.5 c 128,-1,10
 1004 1093 1004 1093 1069.5 1028 c 128,-1,11
 1135 963 1135 963 1175 859 c 128,-1,12
 1215 755 1215 755 1215 605 c 0,13,14
 1215 480 1215 480 1172 365.5 c 128,-1,15
 1129 251 1129 251 1050 163.5 c 128,-1,16
 971 76 971 76 859.5 24 c 128,-1,17
 748 -28 748 -28 612 -28 c 0,18,19
 537 -28 537 -28 462.5 -19.5 c 128,-1,20
 388 -11 388 -11 327.5 1.5 c 128,-1,21
 267 14 267 14 225 28 c 128,-1,22
 183 42 183 42 172 53 c 1,23,-1
 172 1420 l 1,0,-1
456 182 m 1,24,25
 470 150 470 150 517.5 125 c 128,-1,26
 565 100 565 100 643 100 c 0,27,28
 695 100 695 100 745.5 123.5 c 128,-1,29
 796 147 796 147 836 201.5 c 128,-1,30
 876 256 876 256 901.5 346 c 128,-1,31
 927 436 927 436 930 568 c 0,32,33
 933 680 933 680 907 760.5 c 128,-1,34
 881 841 881 841 838.5 892.5 c 128,-1,35
 796 944 796 944 742 968 c 128,-1,36
 688 992 688 992 634 992 c 0,37,38
 571 992 571 992 527 977.5 c 128,-1,39
 483 963 483 963 456 949 c 1,40,-1
 456 182 l 1,24,25
EndSplineSet
EndChar

StartChar: c
Encoding: 99 99 66
Width: 1095
Flags: W
LayerCount: 2
Fore
SplineSet
87 531 m 0,0,1
 86 673 86 673 131.5 786 c 128,-1,2
 177 899 177 899 256.5 978.5 c 128,-1,3
 336 1058 336 1058 443.5 1101.5 c 128,-1,4
 551 1145 551 1145 675 1150 c 0,5,6
 722 1151 722 1151 772 1148 c 128,-1,7
 822 1145 822 1145 867.5 1138.5 c 128,-1,8
 913 1132 913 1132 950.5 1122 c 128,-1,9
 988 1112 988 1112 1009 1099 c 1,10,-1
 1009 815 l 1,11,-1
 865 815 l 1,12,-1
 798 977 l 1,13,14
 768 997 768 997 727 1004 c 128,-1,15
 686 1011 686 1011 652 1011 c 0,16,17
 594 1011 594 1011 544.5 986 c 128,-1,18
 495 961 495 961 458 912.5 c 128,-1,19
 421 864 421 864 399 791.5 c 128,-1,20
 377 719 377 719 375 625 c 0,21,22
 372 497 372 497 400.5 406.5 c 128,-1,23
 429 316 429 316 477.5 258 c 128,-1,24
 526 200 526 200 589 173 c 128,-1,25
 652 146 652 146 717 146 c 0,26,27
 759 146 759 146 801.5 151.5 c 128,-1,28
 844 157 844 157 882 166 c 128,-1,29
 920 175 920 175 950.5 187 c 128,-1,30
 981 199 981 199 1001 213 c 1,31,-1
 1046 103 l 1,32,33
 1011 73 1011 73 963.5 49 c 128,-1,34
 916 25 916 25 860 8.5 c 128,-1,35
 804 -8 804 -8 740.5 -16.5 c 128,-1,36
 677 -25 677 -25 610 -25 c 0,37,38
 484 -25 484 -25 386.5 17 c 128,-1,39
 289 59 289 59 223 133 c 128,-1,40
 157 207 157 207 122.5 309 c 128,-1,41
 88 411 88 411 87 531 c 0,0,1
EndSplineSet
EndChar

StartChar: d
Encoding: 100 100 67
Width: 1334
Flags: W
LayerCount: 2
Fore
SplineSet
544 -26 m 0,0,1
 463 -26 463 -26 381 6.5 c 128,-1,2
 299 39 299 39 233.5 108 c 128,-1,3
 168 177 168 177 126.5 284 c 128,-1,4
 85 391 85 391 85 541 c 0,5,6
 85 675 85 675 133.5 787 c 128,-1,7
 182 899 182 899 266 980 c 128,-1,8
 350 1061 350 1061 462.5 1106.5 c 128,-1,9
 575 1152 575 1152 704 1152 c 0,10,11
 736 1152 736 1152 774 1149.5 c 128,-1,12
 812 1147 812 1147 854 1138 c 1,13,-1
 854 1417 l 1,14,-1
 636 1465 l 1,15,-1
 636 1582 l 1,16,-1
 1081 1628 l 1,17,-1
 1138 1603 l 1,18,-1
 1138 114 l 1,19,-1
 1277 114 l 1,20,-1
 1277 21 l 1,21,22
 1242 2 1242 2 1173 -14 c 128,-1,23
 1104 -30 1104 -30 1013 -30 c 0,24,25
 954 -30 954 -30 915.5 -10.5 c 128,-1,26
 877 9 877 9 866 60 c 1,27,28
 846 45 846 45 817.5 29.5 c 128,-1,29
 789 14 789 14 749 2 c 128,-1,30
 709 -10 709 -10 658 -18 c 128,-1,31
 607 -26 607 -26 544 -26 c 0,0,1
627 132 m 0,32,33
 672 125 672 125 715 131 c 1,34,35
 763 134 763 134 798 145 c 128,-1,36
 833 156 833 156 854 170 c 1,37,-1
 854 975 l 1,38,39
 792 1028 792 1028 676 1028 c 0,40,41
 651 1028 651 1028 619.5 1021 c 128,-1,42
 588 1014 588 1014 555 995.5 c 128,-1,43
 522 977 522 977 490.5 946.5 c 128,-1,44
 459 916 459 916 434.5 869 c 128,-1,45
 410 822 410 822 394 757 c 128,-1,46
 378 692 378 692 377 605 c 0,47,48
 375 494 375 494 394.5 410 c 128,-1,49
 414 326 414 326 448.5 267.5 c 128,-1,50
 483 209 483 209 529.5 175 c 128,-1,51
 576 141 576 141 627 132 c 0,32,33
EndSplineSet
EndChar

StartChar: e
Encoding: 101 101 68
Width: 1198
Flags: W
LayerCount: 2
Fore
SplineSet
85 542 m 0,0,1
 85 670 85 670 126 781 c 128,-1,2
 167 892 167 892 243.5 973.5 c 128,-1,3
 320 1055 320 1055 428.5 1102.5 c 128,-1,4
 537 1150 537 1150 672 1151 c 0,5,6
 779 1152 779 1152 859 1122.5 c 128,-1,7
 939 1093 939 1093 992.5 1038.5 c 128,-1,8
 1046 984 1046 984 1074 906.5 c 128,-1,9
 1102 829 1102 829 1106 734 c 0,10,11
 1108 671 1108 671 1103 623.5 c 128,-1,12
 1098 576 1098 576 1093 537 c 1,13,-1
 376 537 l 1,14,15
 376 534 376 534 376.5 531.5 c 128,-1,16
 377 529 377 529 377 527 c 0,17,18
 383 424 383 424 411.5 352 c 128,-1,19
 440 280 440 280 486.5 234.5 c 128,-1,20
 533 189 533 189 594 168 c 128,-1,21
 655 147 655 147 724 147 c 0,22,23
 761 147 761 147 802.5 151 c 128,-1,24
 844 155 844 155 884.5 163 c 128,-1,25
 925 171 925 171 963 183 c 128,-1,26
 1001 195 1001 195 1033 211 c 1,27,-1
 1079 103 l 1,28,29
 1045 74 1045 74 994 49.5 c 128,-1,30
 943 25 943 25 883 8 c 128,-1,31
 823 -9 823 -9 756.5 -18 c 128,-1,32
 690 -27 690 -27 624 -26 c 0,33,34
 495 -25 495 -25 394.5 15 c 128,-1,35
 294 55 294 55 225 128 c 128,-1,36
 156 201 156 201 120.5 305.5 c 128,-1,37
 85 410 85 410 85 542 c 0,0,1
822 679 m 1,38,39
 825 722 825 722 826 768.5 c 128,-1,40
 827 815 827 815 820.5 858 c 128,-1,41
 814 901 814 901 796.5 937 c 128,-1,42
 779 973 779 973 745 996 c 0,43,44
 724 1010 724 1010 696 1018 c 128,-1,45
 668 1026 668 1026 632 1026 c 0,46,47
 573 1026 573 1026 528.5 999 c 128,-1,48
 484 972 484 972 453 925 c 128,-1,49
 422 878 422 878 403.5 814.5 c 128,-1,50
 385 751 385 751 379 679 c 1,51,-1
 822 679 l 1,38,39
EndSplineSet
EndChar

StartChar: f
Encoding: 102 102 69
Width: 899
Flags: W
LayerCount: 2
Fore
SplineSet
88 114 m 1,0,-1
 267 141 l 1,1,-1
 267 944 l 1,2,-1
 68 944 l 1,3,-1
 68 1036 l 1,4,-1
 267 1107 l 1,5,-1
 267 1202 l 2,6,7
 267 1267 267 1267 284.5 1330.5 c 128,-1,8
 302 1394 302 1394 332.5 1451 c 128,-1,9
 363 1508 363 1508 406 1556 c 128,-1,10
 449 1604 449 1604 500 1639.5 c 128,-1,11
 551 1675 551 1675 608.5 1694.5 c 128,-1,12
 666 1714 666 1714 726 1714 c 256,13,14
 786 1714 786 1714 835 1707 c 128,-1,15
 884 1700 884 1700 910 1689 c 1,16,-1
 910 1468 l 1,17,18
 902 1471 902 1471 882 1478.5 c 128,-1,19
 862 1486 862 1486 834 1493.5 c 128,-1,20
 806 1501 806 1501 772 1507 c 128,-1,21
 738 1513 738 1513 704 1513 c 0,22,23
 668 1513 668 1513 639.5 1507 c 128,-1,24
 611 1501 611 1501 591.5 1479.5 c 128,-1,25
 572 1458 572 1458 561.5 1415 c 128,-1,26
 551 1372 551 1372 551 1298 c 2,27,-1
 551 1119 l 1,28,-1
 852 1119 l 1,29,-1
 852 944 l 1,30,-1
 551 944 l 1,31,-1
 551 139 l 1,32,-1
 787 114 l 1,33,-1
 787 0 l 1,34,-1
 88 0 l 1,35,-1
 88 114 l 1,0,-1
EndSplineSet
EndChar

StartChar: g
Encoding: 103 103 70
Width: 1244
Flags: W
LayerCount: 2
Fore
SplineSet
94 -234 m 0,0,1
 94 -185 94 -185 110 -143.5 c 128,-1,2
 126 -102 126 -102 151 -67.5 c 128,-1,3
 176 -33 176 -33 206 -7 c 128,-1,4
 236 19 236 19 264 37 c 1,5,6
 223 52 223 52 200 72.5 c 128,-1,7
 177 93 177 93 166 117 c 128,-1,8
 155 141 155 141 153 167 c 128,-1,9
 151 193 151 193 151 219 c 0,10,11
 151 241 151 241 161.5 270.5 c 128,-1,12
 172 300 172 300 190 331.5 c 128,-1,13
 208 363 208 363 232 393 c 128,-1,14
 256 423 256 423 283 446 c 1,15,16
 198 491 198 491 150 567 c 128,-1,17
 102 643 102 643 102 753 c 0,18,19
 102 858 102 858 145.5 933 c 128,-1,20
 189 1008 189 1008 260 1057 c 128,-1,21
 331 1106 331 1106 421 1129.5 c 128,-1,22
 511 1153 511 1153 604 1155 c 0,23,24
 704 1157 704 1157 789 1136 c 128,-1,25
 874 1115 874 1115 937 1068 c 1,26,27
 947 1084 947 1084 963 1098 c 128,-1,28
 979 1112 979 1112 1002.5 1122 c 128,-1,29
 1026 1132 1026 1132 1058 1137.5 c 128,-1,30
 1090 1143 1090 1143 1133 1143 c 2,31,-1
 1236 1143 l 1,32,-1
 1236 941 l 1,33,-1
 1035 941 l 1,34,35
 1063 873 1063 873 1063 788 c 0,36,37
 1063 687 1063 687 1025 611.5 c 128,-1,38
 987 536 987 536 921.5 485.5 c 128,-1,39
 856 435 856 435 767.5 409.5 c 128,-1,40
 679 384 679 384 578 384 c 0,41,42
 472 384 472 384 388 406 c 1,43,44
 380 381 380 381 376.5 356 c 128,-1,45
 373 331 373 331 373 312 c 0,46,47
 373 254 373 254 406.5 226 c 128,-1,48
 440 198 440 198 509 196 c 0,49,50
 556 194 556 194 616 193.5 c 128,-1,51
 676 193 676 193 754 193 c 0,52,53
 890 193 890 193 976.5 169.5 c 128,-1,54
 1063 146 1063 146 1112 103 c 128,-1,55
 1161 60 1161 60 1179.5 1 c 128,-1,56
 1198 -58 1198 -58 1198 -128 c 0,57,58
 1198 -214 1198 -214 1158.5 -287.5 c 128,-1,59
 1119 -361 1119 -361 1042.5 -415 c 128,-1,60
 966 -469 966 -469 853 -500 c 128,-1,61
 740 -531 740 -531 594 -531 c 0,62,63
 489 -531 489 -531 397.5 -515.5 c 128,-1,64
 306 -500 306 -500 238.5 -464.5 c 128,-1,65
 171 -429 171 -429 132.5 -372.5 c 128,-1,66
 94 -316 94 -316 94 -234 c 0,0,1
604 521 m 0,67,68
 658 521 658 521 694.5 540 c 128,-1,69
 731 559 731 559 753.5 592 c 128,-1,70
 776 625 776 625 785.5 670.5 c 128,-1,71
 795 716 795 716 795 769 c 0,72,73
 795 899 795 899 741 965 c 128,-1,74
 687 1031 687 1031 581 1031 c 0,75,76
 542 1031 542 1031 506 1020 c 128,-1,77
 470 1009 470 1009 442 983.5 c 128,-1,78
 414 958 414 958 397.5 916.5 c 128,-1,79
 381 875 381 875 381 814 c 0,80,81
 381 754 381 754 392 701 c 128,-1,82
 403 648 403 648 429 608 c 128,-1,83
 455 568 455 568 498 544.5 c 128,-1,84
 541 521 541 521 604 521 c 0,67,68
344 -151 m 0,85,86
 344 -214 344 -214 367 -259.5 c 128,-1,87
 390 -305 390 -305 430.5 -334.5 c 128,-1,88
 471 -364 471 -364 525 -378 c 128,-1,89
 579 -392 579 -392 642 -392 c 0,90,91
 715 -392 715 -392 772 -382 c 128,-1,92
 829 -372 829 -372 868 -348.5 c 128,-1,93
 907 -325 907 -325 927.5 -287 c 128,-1,94
 948 -249 948 -249 948 -193 c 0,95,96
 948 -154 948 -154 941.5 -119 c 128,-1,97
 935 -84 935 -84 909 -57 c 128,-1,98
 883 -30 883 -30 832 -14 c 128,-1,99
 781 2 781 2 693 2 c 2,100,-1
 538 3 l 2,101,102
 493 3 493 3 455 4.5 c 128,-1,103
 417 6 417 6 385 10 c 1,104,105
 368 -16 368 -16 356 -53.5 c 128,-1,106
 344 -91 344 -91 344 -151 c 0,85,86
EndSplineSet
EndChar

StartChar: h
Encoding: 104 104 71
Width: 1416
Flags: W
LayerCount: 2
Fore
SplineSet
88 114 m 1,0,-1
 234 139 l 1,1,-1
 234 1417 l 1,2,-1
 83 1465 l 1,3,-1
 83 1582 l 1,4,-1
 464 1628 l 1,5,-1
 518 1608 l 1,6,-1
 517 1137 l 1,7,-1
 503 1004 l 1,8,9
 548 1043 548 1043 598 1070 c 128,-1,10
 648 1097 648 1097 698.5 1114 c 128,-1,11
 749 1131 749 1131 796.5 1138.5 c 128,-1,12
 844 1146 844 1146 883 1146 c 0,13,14
 988 1146 988 1146 1053.5 1112 c 128,-1,15
 1119 1078 1119 1078 1156 1011.5 c 128,-1,16
 1193 945 1193 945 1205 846 c 128,-1,17
 1217 747 1217 747 1216 618 c 1,18,-1
 1216 139 l 1,19,-1
 1358 114 l 1,20,-1
 1358 0 l 1,21,-1
 777 1 l 1,22,-1
 777 114 l 1,23,-1
 932 140 l 1,24,-1
 932 554 l 2,25,26
 932 648 932 648 927 723 c 128,-1,27
 922 798 922 798 902 850 c 128,-1,28
 882 902 882 902 840.5 930 c 128,-1,29
 799 958 799 958 726 958 c 0,30,31
 672 958 672 958 619 944.5 c 128,-1,32
 566 931 566 931 518 896 c 1,33,-1
 518 139 l 1,34,-1
 637 114 l 1,35,-1
 637 0 l 1,36,-1
 88 0 l 1,37,-1
 88 114 l 1,0,-1
EndSplineSet
EndChar

StartChar: i
Encoding: 105 105 72
Width: 720
Flags: W
LayerCount: 2
Fore
SplineSet
348 1347 m 0,0,1
 315 1347 315 1347 284 1358 c 128,-1,2
 253 1369 253 1369 229 1389.5 c 128,-1,3
 205 1410 205 1410 190.5 1439.5 c 128,-1,4
 176 1469 176 1469 176 1506 c 0,5,6
 176 1547 176 1547 194 1582 c 128,-1,7
 212 1617 212 1617 241.5 1642.5 c 128,-1,8
 271 1668 271 1668 307.5 1682.5 c 128,-1,9
 344 1697 344 1697 380 1697 c 0,10,11
 425 1697 425 1697 457 1684 c 128,-1,12
 489 1671 489 1671 510 1649.5 c 128,-1,13
 531 1628 531 1628 541 1598.5 c 128,-1,14
 551 1569 551 1569 551 1536 c 0,15,16
 551 1493 551 1493 533.5 1458 c 128,-1,17
 516 1423 516 1423 487.5 1398.5 c 128,-1,18
 459 1374 459 1374 422.5 1360.5 c 128,-1,19
 386 1347 386 1347 348 1347 c 0,0,1
93 114 m 1,20,-1
 243 140 l 1,21,-1
 243 846 l 1,22,-1
 111 959 l 1,23,-1
 111 1039 l 1,24,-1
 456 1146 l 1,25,-1
 523 1123 l 1,26,-1
 523 138 l 1,27,-1
 675 114 l 1,28,-1
 675 0 l 1,29,-1
 93 0 l 1,30,-1
 93 114 l 1,20,-1
EndSplineSet
EndChar

StartChar: j
Encoding: 106 106 73
Width: 669
Flags: W
LayerCount: 2
Fore
SplineSet
322 1359 m 0,0,1
 289 1359 289 1359 258 1370 c 128,-1,2
 227 1381 227 1381 203.5 1401.5 c 128,-1,3
 180 1422 180 1422 165.5 1451.5 c 128,-1,4
 151 1481 151 1481 151 1519 c 0,5,6
 151 1559 151 1559 169 1594 c 128,-1,7
 187 1629 187 1629 216 1654.5 c 128,-1,8
 245 1680 245 1680 281.5 1694.5 c 128,-1,9
 318 1709 318 1709 354 1709 c 0,10,11
 399 1709 399 1709 431.5 1696 c 128,-1,12
 464 1683 464 1683 485 1661.5 c 128,-1,13
 506 1640 506 1640 516 1610.5 c 128,-1,14
 526 1581 526 1581 526 1548 c 0,15,16
 526 1505 526 1505 508.5 1470 c 128,-1,17
 491 1435 491 1435 462.5 1410.5 c 128,-1,18
 434 1386 434 1386 397.5 1372.5 c 128,-1,19
 361 1359 361 1359 322 1359 c 0,0,1
228 846 m 1,20,-1
 105 962 l 1,21,-1
 105 1037 l 1,22,-1
 444 1146 l 1,23,-1
 510 1122 l 1,24,-1
 510 -34 l 2,25,26
 510 -151 510 -151 484 -243 c 128,-1,27
 458 -335 458 -335 410 -399 c 128,-1,28
 362 -463 362 -463 293 -496.5 c 128,-1,29
 224 -530 224 -530 138 -530 c 0,30,31
 114 -530 114 -530 87 -527 c 128,-1,32
 60 -524 60 -524 36 -520 c 128,-1,33
 12 -516 12 -516 -5.5 -511 c 128,-1,34
 -23 -506 -23 -506 -27 -503 c 1,35,-1
 -27 -337 l 1,36,37
 -18 -340 -18 -340 -2.5 -342 c 128,-1,38
 13 -344 13 -344 30.5 -345.5 c 128,-1,39
 48 -347 48 -347 64.5 -347.5 c 128,-1,40
 81 -348 81 -348 90 -348 c 0,41,42
 132 -348 132 -348 159 -328.5 c 128,-1,43
 186 -309 186 -309 201.5 -267.5 c 128,-1,44
 217 -226 217 -226 222.5 -161 c 128,-1,45
 228 -96 228 -96 228 -4 c 2,46,-1
 228 846 l 1,20,-1
EndSplineSet
EndChar

StartChar: k
Encoding: 107 107 74
Width: 1322
Flags: W
LayerCount: 2
Fore
SplineSet
87 114 m 1,0,-1
 234 141 l 1,1,-1
 234 1399 l 1,2,-1
 65 1455 l 1,3,-1
 65 1573 l 1,4,-1
 466 1628 l 1,5,-1
 518 1603 l 1,6,-1
 518 708 l 1,7,-1
 509 562 l 1,8,-1
 885 957 l 1,9,-1
 716 976 l 1,10,-1
 716 1123 l 1,11,-1
 1283 1123 l 1,12,-1
 1283 976 l 1,13,-1
 1102 958 l 1,14,-1
 818 679 l 1,15,-1
 1194 136 l 1,16,-1
 1312 115 l 1,17,-1
 1312 0 l 1,18,-1
 767 0 l 1,19,-1
 767 115 l 1,20,-1
 871 141 l 1,21,-1
 637 520 l 1,22,-1
 508 382 l 1,23,-1
 517 253 l 1,24,-1
 517 138 l 1,25,-1
 646 114 l 1,26,-1
 646 0 l 1,27,-1
 87 0 l 1,28,-1
 87 114 l 1,0,-1
EndSplineSet
EndChar

StartChar: l
Encoding: 108 108 75
Width: 719
Flags: W
LayerCount: 2
Fore
SplineSet
86 114 m 1,0,-1
 227 139 l 1,1,-1
 227 1417 l 1,2,-1
 81 1465 l 1,3,-1
 81 1582 l 1,4,-1
 461 1628 l 1,5,-1
 511 1608 l 1,6,-1
 511 140 l 1,7,-1
 688 114 l 1,8,-1
 688 0 l 1,9,-1
 86 0 l 1,10,-1
 86 114 l 1,0,-1
EndSplineSet
EndChar

StartChar: m
Encoding: 109 109 76
Width: 2126
Flags: W
LayerCount: 2
Fore
SplineSet
115 114 m 1,0,-1
 245 138 l 1,1,-1
 245 863 l 1,2,-1
 106 951 l 1,3,-1
 106 1049 l 1,4,-1
 432 1146 l 1,5,-1
 493 1126 l 1,6,-1
 493 981 l 1,7,8
 525 1012 525 1012 569 1041 c 128,-1,9
 613 1070 613 1070 663 1093 c 128,-1,10
 713 1116 713 1116 766.5 1130.5 c 128,-1,11
 820 1145 820 1145 872 1147 c 0,12,13
 926 1150 926 1150 974 1143.5 c 128,-1,14
 1022 1137 1022 1137 1062.5 1119.5 c 128,-1,15
 1103 1102 1103 1102 1134.5 1071.5 c 128,-1,16
 1166 1041 1166 1041 1186 995 c 1,17,18
 1220 1023 1220 1023 1262.5 1050 c 128,-1,19
 1305 1077 1305 1077 1354 1098 c 128,-1,20
 1403 1119 1403 1119 1457 1132 c 128,-1,21
 1511 1145 1511 1145 1568 1146 c 0,22,23
 1665 1147 1665 1147 1732.5 1117.5 c 128,-1,24
 1800 1088 1800 1088 1843 1028.5 c 128,-1,25
 1886 969 1886 969 1905.5 878.5 c 128,-1,26
 1925 788 1925 788 1925 668 c 2,27,-1
 1925 139 l 1,28,-1
 2078 114 l 1,29,-1
 2078 0 l 1,30,-1
 1516 0 l 1,31,-1
 1516 114 l 1,32,-1
 1641 139 l 1,33,-1
 1641 628 l 2,34,35
 1641 724 1641 724 1630.5 787.5 c 128,-1,36
 1620 851 1620 851 1595 888.5 c 128,-1,37
 1570 926 1570 926 1527 940.5 c 128,-1,38
 1484 955 1484 955 1420 954 c 1,39,40
 1371 952 1371 952 1319 934.5 c 128,-1,41
 1267 917 1267 917 1222 888 c 1,42,43
 1229 854 1229 854 1233 807.5 c 128,-1,44
 1237 761 1237 761 1237 690 c 2,45,-1
 1237 139 l 1,46,-1
 1384 114 l 1,47,-1
 1384 0 l 1,48,-1
 808 0 l 1,49,-1
 808 114 l 1,50,-1
 954 140 l 1,51,-1
 954 639 l 2,52,53
 954 735 954 735 941.5 797 c 128,-1,54
 929 859 929 859 901 895 c 128,-1,55
 873 931 873 931 828 944 c 128,-1,56
 783 957 783 957 719 953 c 0,57,58
 700 951 700 951 676 945.5 c 128,-1,59
 652 940 652 940 626.5 931 c 128,-1,60
 601 922 601 922 576 908.5 c 128,-1,61
 551 895 551 895 530 879 c 1,62,-1
 530 605 l 2,63,64
 530 585 530 585 530 551.5 c 128,-1,65
 530 518 530 518 530 477 c 128,-1,66
 530 436 530 436 529.5 390 c 128,-1,67
 529 344 529 344 529 299 c 128,-1,68
 529 254 529 254 529 212.5 c 128,-1,69
 529 171 529 171 529 139 c 1,70,-1
 668 114 l 1,71,-1
 668 0 l 1,72,-1
 115 0 l 1,73,-1
 115 114 l 1,0,-1
EndSplineSet
EndChar

StartChar: n
Encoding: 110 110 77
Width: 1436
Flags: W
LayerCount: 2
Fore
SplineSet
115 114 m 1,0,-1
 245 137 l 1,1,-1
 245 863 l 1,2,-1
 106 951 l 1,3,-1
 106 1049 l 1,4,-1
 431 1146 l 1,5,-1
 493 1126 l 1,6,-1
 493 981 l 1,7,8
 530 1015 530 1015 578.5 1045 c 128,-1,9
 627 1075 627 1075 681.5 1097 c 128,-1,10
 736 1119 736 1119 793 1132 c 128,-1,11
 850 1145 850 1145 905 1146 c 0,12,13
 999 1147 999 1147 1062.5 1118.5 c 128,-1,14
 1126 1090 1126 1090 1164.5 1032.5 c 128,-1,15
 1203 975 1203 975 1219 888.5 c 128,-1,16
 1235 802 1235 802 1235 687 c 2,17,-1
 1235 138 l 1,18,-1
 1384 114 l 1,19,-1
 1384 0 l 1,20,-1
 805 0 l 1,21,-1
 805 114 l 1,22,-1
 951 140 l 1,23,-1
 951 646 l 2,24,25
 951 731 951 731 943 790 c 128,-1,26
 935 849 935 849 911.5 885.5 c 128,-1,27
 888 922 888 922 846 937.5 c 128,-1,28
 804 953 804 953 735 952 c 0,29,30
 716 951 716 951 690.5 946.5 c 128,-1,31
 665 942 665 942 637 933 c 128,-1,32
 609 924 609 924 581 911 c 128,-1,33
 553 898 553 898 529 881 c 1,34,-1
 529 139 l 1,35,-1
 663 114 l 1,36,-1
 663 0 l 1,37,-1
 115 0 l 1,38,-1
 115 114 l 1,0,-1
EndSplineSet
EndChar

StartChar: o
Encoding: 111 111 78
Width: 1290
Flags: W
LayerCount: 2
Fore
SplineSet
86 570 m 0,0,1
 88 715 88 715 136.5 824 c 128,-1,2
 185 933 185 933 264.5 1005 c 128,-1,3
 344 1077 344 1077 447.5 1113.5 c 128,-1,4
 551 1150 551 1150 663 1152 c 1,5,6
 794 1153 794 1153 895 1114 c 128,-1,7
 996 1075 996 1075 1065 1000.5 c 128,-1,8
 1134 926 1134 926 1169.5 820.5 c 128,-1,9
 1205 715 1205 715 1205 583 c 0,10,11
 1204 436 1204 436 1158 323 c 128,-1,12
 1112 210 1112 210 1034 133 c 128,-1,13
 956 56 956 56 853 16 c 128,-1,14
 750 -24 750 -24 636 -24 c 0,15,16
 486 -24 486 -24 380.5 23.5 c 128,-1,17
 275 71 275 71 209 153 c 128,-1,18
 143 235 143 235 113.5 342.5 c 128,-1,19
 84 450 84 450 86 570 c 0,0,1
646 107 m 0,20,21
 722 106 722 106 772 143 c 128,-1,22
 822 180 822 180 851 243 c 128,-1,23
 880 306 880 306 891.5 390.5 c 128,-1,24
 903 475 903 475 903 570 c 0,25,26
 903 654 903 654 891 735 c 128,-1,27
 879 816 879 816 850.5 880 c 128,-1,28
 822 944 822 944 773.5 983.5 c 128,-1,29
 725 1023 725 1023 653 1024 c 0,30,31
 576 1025 576 1025 525.5 990 c 128,-1,32
 475 955 475 955 444 895.5 c 128,-1,33
 413 836 413 836 400.5 757 c 128,-1,34
 388 678 388 678 388 590 c 0,35,36
 388 538 388 538 393.5 482 c 128,-1,37
 399 426 399 426 412 372.5 c 128,-1,38
 425 319 425 319 445 271 c 128,-1,39
 465 223 465 223 493.5 186.5 c 128,-1,40
 522 150 522 150 560 128.5 c 128,-1,41
 598 107 598 107 646 107 c 0,20,21
EndSplineSet
EndChar

StartChar: p
Encoding: 112 112 79
Width: 1338
Flags: W
LayerCount: 2
Fore
SplineSet
224 -370 m 1,0,-1
 224 863 l 1,1,-1
 85 951 l 1,2,-1
 85 1049 l 1,3,-1
 410 1146 l 1,4,-1
 470 1126 l 1,5,-1
 470 1003 l 1,6,7
 482 1020 482 1020 510.5 1045 c 128,-1,8
 539 1070 539 1070 582 1093.5 c 128,-1,9
 625 1117 625 1117 681.5 1134 c 128,-1,10
 738 1151 738 1151 806 1151 c 0,11,12
 893 1151 893 1151 973.5 1122.5 c 128,-1,13
 1054 1094 1054 1094 1116.5 1028.5 c 128,-1,14
 1179 963 1179 963 1216 857 c 128,-1,15
 1253 751 1253 751 1253 595 c 0,16,17
 1253 469 1253 469 1208 356.5 c 128,-1,18
 1163 244 1163 244 1083 159.5 c 128,-1,19
 1003 75 1003 75 892.5 25.5 c 128,-1,20
 782 -24 782 -24 652 -24 c 0,21,22
 607 -24 607 -24 566 -17 c 128,-1,23
 525 -10 525 -10 496 -3 c 1,24,-1
 506 -213 l 1,25,-1
 506 -370 l 1,26,-1
 712 -396 l 1,27,-1
 712 -511 l 1,28,-1
 88 -511 l 1,29,-1
 88 -396 l 1,30,-1
 224 -370 l 1,0,-1
506 199 m 1,31,32
 515 181 515 181 534 166.5 c 128,-1,33
 553 152 553 152 578.5 142 c 128,-1,34
 604 132 604 132 634.5 126.5 c 128,-1,35
 665 121 665 121 698 121 c 0,36,37
 744 121 744 121 792.5 142 c 128,-1,38
 841 163 841 163 881 213.5 c 128,-1,39
 921 264 921 264 946.5 346.5 c 128,-1,40
 972 429 972 429 973 552 c 0,41,42
 974 681 974 681 947.5 766 c 128,-1,43
 921 851 921 851 880 901.5 c 128,-1,44
 839 952 839 952 788.5 972 c 128,-1,45
 738 992 738 992 690 992 c 0,46,47
 655 992 655 992 626 983 c 128,-1,48
 597 974 597 974 574 961 c 128,-1,49
 551 948 551 948 533.5 933.5 c 128,-1,50
 516 919 516 919 505 908 c 1,51,-1
 506 530 l 1,52,-1
 506 199 l 1,31,32
EndSplineSet
EndChar

StartChar: q
Encoding: 113 113 80
Width: 1295
Flags: W
LayerCount: 2
Fore
SplineSet
85 549 m 0,0,1
 85 675 85 675 131.5 785 c 128,-1,2
 178 895 178 895 261.5 976.5 c 128,-1,3
 345 1058 345 1058 461 1105 c 128,-1,4
 577 1152 577 1152 716 1152 c 0,5,6
 744 1152 744 1152 777.5 1149 c 128,-1,7
 811 1146 811 1146 844.5 1139.5 c 128,-1,8
 878 1133 878 1133 909 1123.5 c 128,-1,9
 940 1114 940 1114 962 1101 c 1,10,-1
 1092 1146 l 1,11,-1
 1139 1125 l 1,12,-1
 1139 -372 l 1,13,-1
 1272 -395 l 1,14,-1
 1272 -511 l 1,15,-1
 657 -511 l 1,16,-1
 657 -395 l 1,17,-1
 855 -372 l 1,18,-1
 855 -47 l 1,19,-1
 865 89 l 1,20,21
 850 74 850 74 824 54 c 128,-1,22
 798 34 798 34 760.5 16.5 c 128,-1,23
 723 -1 723 -1 673.5 -13.5 c 128,-1,24
 624 -26 624 -26 562 -26 c 0,25,26
 517 -26 517 -26 464 -17.5 c 128,-1,27
 411 -9 411 -9 358 13.5 c 128,-1,28
 305 36 305 36 256 76.5 c 128,-1,29
 207 117 207 117 169 181 c 128,-1,30
 131 245 131 245 108 335.5 c 128,-1,31
 85 426 85 426 85 549 c 0,0,1
657 148 m 0,32,33
 725 148 725 148 775.5 167 c 128,-1,34
 826 186 826 186 855 212 c 1,35,-1
 855 954 l 1,36,37
 833 986 833 986 791 1003 c 128,-1,38
 749 1020 749 1020 698 1020 c 0,39,40
 617 1020 617 1020 557.5 991 c 128,-1,41
 498 962 498 962 458.5 907 c 128,-1,42
 419 852 419 852 399 772.5 c 128,-1,43
 379 693 379 693 377 593 c 0,44,45
 374 489 374 489 391 407 c 128,-1,46
 408 325 408 325 443.5 267 c 128,-1,47
 479 209 479 209 532.5 178.5 c 128,-1,48
 586 148 586 148 657 148 c 0,32,33
EndSplineSet
EndChar

StartChar: r
Encoding: 114 114 81
Width: 947
Flags: W
LayerCount: 2
Fore
SplineSet
104 114 m 1,0,-1
 244 138 l 1,1,-1
 244 863 l 1,2,-1
 105 951 l 1,3,-1
 105 1049 l 1,4,-1
 430 1146 l 1,5,-1
 491 1127 l 1,6,-1
 491 949 l 1,7,8
 506 990 506 990 543 1026 c 128,-1,9
 580 1062 580 1062 625 1088.5 c 128,-1,10
 670 1115 670 1115 717.5 1130.5 c 128,-1,11
 765 1146 765 1146 803 1146 c 0,12,13
 837 1146 837 1146 865.5 1143.5 c 128,-1,14
 894 1141 894 1141 906 1136 c 1,15,-1
 906 868 l 1,16,17
 877 887 877 887 829.5 898.5 c 128,-1,18
 782 910 782 910 732 910 c 0,19,20
 690 910 690 910 658 905 c 128,-1,21
 626 900 626 900 601 892 c 128,-1,22
 576 884 576 884 558.5 875 c 128,-1,23
 541 866 541 866 529 858 c 1,24,-1
 529 144 l 1,25,-1
 784 114 l 1,26,-1
 784 0 l 1,27,-1
 104 0 l 1,28,-1
 104 114 l 1,0,-1
EndSplineSet
EndChar

StartChar: s
Encoding: 115 115 82
Width: 1075
Flags: W
LayerCount: 2
Fore
SplineSet
129 312 m 1,0,-1
 261 312 l 1,1,-1
 314 197 l 1,2,3
 332 180 332 180 352 163.5 c 128,-1,4
 372 147 372 147 396 133.5 c 128,-1,5
 420 120 420 120 449.5 110.5 c 128,-1,6
 479 101 479 101 515 99 c 0,7,8
 615 94 615 94 672 134 c 128,-1,9
 729 174 729 174 729 252 c 0,10,11
 729 287 729 287 706 314.5 c 128,-1,12
 683 342 683 342 645.5 366 c 128,-1,13
 608 390 608 390 559 412.5 c 128,-1,14
 510 435 510 435 458 459 c 0,15,16
 392 490 392 490 331 525.5 c 128,-1,17
 270 561 270 561 223 606 c 128,-1,18
 176 651 176 651 148.5 708 c 128,-1,19
 121 765 121 765 122 839 c 0,20,21
 123 895 123 895 143.5 939.5 c 128,-1,22
 164 984 164 984 198 1018.5 c 128,-1,23
 232 1053 232 1053 276.5 1077.5 c 128,-1,24
 321 1102 321 1102 370 1118 c 128,-1,25
 419 1134 419 1134 470 1142 c 128,-1,26
 521 1150 521 1150 567 1151 c 0,27,28
 621 1152 621 1152 673.5 1147 c 128,-1,29
 726 1142 726 1142 773.5 1133 c 128,-1,30
 821 1124 821 1124 860.5 1112.5 c 128,-1,31
 900 1101 900 1101 927 1089 c 1,32,-1
 927 841 l 1,33,-1
 791 841 l 1,34,-1
 740 960 l 1,35,36
 713 990 713 990 674 1012.5 c 128,-1,37
 635 1035 635 1035 581 1036 c 0,38,39
 545 1036 545 1036 512.5 1029 c 128,-1,40
 480 1022 480 1022 455 1006.5 c 128,-1,41
 430 991 430 991 415.5 967.5 c 128,-1,42
 401 944 401 944 401 911 c 0,43,44
 400 873 400 873 418 842.5 c 128,-1,45
 436 812 436 812 466.5 786.5 c 128,-1,46
 497 761 497 761 538 739 c 128,-1,47
 579 717 579 717 624 695 c 1,48,49
 689 665 689 665 756 634 c 128,-1,50
 823 603 823 603 877 561.5 c 128,-1,51
 931 520 931 520 965.5 463.5 c 128,-1,52
 1000 407 1000 407 1000 328 c 0,53,54
 1000 235 1000 235 961 168.5 c 128,-1,55
 922 102 922 102 855 59.5 c 128,-1,56
 788 17 788 17 698.5 -3.5 c 128,-1,57
 609 -24 609 -24 508 -24 c 0,58,59
 461 -24 461 -24 410.5 -18.5 c 128,-1,60
 360 -13 360 -13 310.5 -2.5 c 128,-1,61
 261 8 261 8 214.5 24.5 c 128,-1,62
 168 41 168 41 129 64 c 1,63,-1
 129 312 l 1,0,-1
EndSplineSet
EndChar

StartChar: t
Encoding: 116 116 83
Width: 897
Flags: W
LayerCount: 2
Fore
SplineSet
217 963 m 1,0,-1
 65 963 l 1,1,-1
 65 1060 l 1,2,3
 99 1067 99 1067 126.5 1073.5 c 128,-1,4
 154 1080 154 1080 175.5 1088.5 c 128,-1,5
 197 1097 197 1097 214.5 1109 c 128,-1,6
 232 1121 232 1121 246 1141 c 1,7,8
 258 1156 258 1156 271.5 1183 c 128,-1,9
 285 1210 285 1210 298.5 1243 c 128,-1,10
 312 1276 312 1276 324.5 1313 c 128,-1,11
 337 1350 337 1350 347 1386 c 1,12,-1
 485 1386 l 1,13,-1
 485 1119 l 1,14,-1
 824 1119 l 1,15,-1
 824 963 l 1,16,-1
 494 963 l 1,17,-1
 494 538 l 2,18,19
 494 412 494 412 498.5 336 c 128,-1,20
 503 260 503 260 516.5 219 c 128,-1,21
 530 178 530 178 553 165 c 128,-1,22
 576 152 576 152 614 152 c 0,23,24
 636 152 636 152 663.5 155.5 c 128,-1,25
 691 159 691 159 717 164.5 c 128,-1,26
 743 170 743 170 765.5 177.5 c 128,-1,27
 788 185 788 185 801 193 c 1,28,-1
 844 90 l 1,29,30
 821 65 821 65 781 44 c 128,-1,31
 741 23 741 23 691.5 8 c 128,-1,32
 642 -7 642 -7 587.5 -15.5 c 128,-1,33
 533 -24 533 -24 480 -24 c 0,34,35
 407 -24 407 -24 357 -4.5 c 128,-1,36
 307 15 307 15 276 55.5 c 128,-1,37
 245 96 245 96 231 159 c 128,-1,38
 217 222 217 222 217 309 c 2,39,-1
 217 963 l 1,0,-1
EndSplineSet
EndChar

StartChar: u
Encoding: 117 117 84
Width: 1314
Flags: W
LayerCount: 2
Fore
SplineSet
176 915 m 1,0,-1
 78 968 l 1,1,-1
 78 1070 l 1,2,-1
 406 1146 l 1,3,-1
 451 1128 l 1,4,-1
 451 435 l 2,5,6
 451 361 451 361 458.5 306.5 c 128,-1,7
 466 252 466 252 486 216 c 128,-1,8
 506 180 506 180 541 162.5 c 128,-1,9
 576 145 576 145 631 145 c 0,10,11
 665 145 665 145 699 152.5 c 128,-1,12
 733 160 733 160 762.5 171.5 c 128,-1,13
 792 183 792 183 815.5 197 c 128,-1,14
 839 211 839 211 852 224 c 1,15,-1
 852 902 l 1,16,-1
 726 956 l 1,17,-1
 726 1070 l 1,18,-1
 1087 1146 l 1,19,-1
 1130 1129 l 1,20,-1
 1130 114 l 1,21,-1
 1247 114 l 1,22,-1
 1247 20 l 1,23,24
 1231 10 1231 10 1204 0.5 c 128,-1,25
 1177 -9 1177 -9 1144 -16 c 128,-1,26
 1111 -23 1111 -23 1075 -27 c 128,-1,27
 1039 -31 1039 -31 1006 -31 c 0,28,29
 951 -31 951 -31 915.5 -7.5 c 128,-1,30
 880 16 880 16 880 69 c 2,31,-1
 880 126 l 1,32,33
 845 90 845 90 801.5 62 c 128,-1,34
 758 34 758 34 711.5 14.5 c 128,-1,35
 665 -5 665 -5 619 -15 c 128,-1,36
 573 -25 573 -25 533 -25 c 0,37,38
 423 -25 423 -25 353.5 4.5 c 128,-1,39
 284 34 284 34 244.5 91 c 128,-1,40
 205 148 205 148 190.5 231 c 128,-1,41
 176 314 176 314 176 421 c 2,42,-1
 176 915 l 1,0,-1
EndSplineSet
EndChar

StartChar: v
Encoding: 118 118 85
Width: 1243
Flags: W
LayerCount: 2
Fore
SplineSet
104 950 m 1,0,-1
 3 974 l 1,1,-1
 3 1119 l 1,2,-1
 521 1119 l 1,3,-1
 521 973 l 1,4,-1
 417 947 l 1,5,-1
 604 448 l 1,6,-1
 677 212 l 1,7,-1
 740 444 l 1,8,-1
 905 948 l 1,9,-1
 781 972 l 1,10,-1
 781 1119 l 1,11,-1
 1239 1119 l 1,12,-1
 1239 973 l 1,13,-1
 1128 943 l 1,14,-1
 741 -13 l 1,15,-1
 519 -13 l 1,16,-1
 104 950 l 1,0,-1
EndSplineSet
EndChar

StartChar: w
Encoding: 119 119 86
Width: 1777
Flags: W
LayerCount: 2
Fore
SplineSet
112 948 m 1,0,-1
 3 972 l 1,1,-1
 3 1119 l 1,2,-1
 513 1119 l 1,3,-1
 513 972 l 1,4,-1
 398 946 l 1,5,-1
 544 420 l 1,6,-1
 587 236 l 1,7,-1
 619 403 l 1,8,-1
 809 1119 l 1,9,-1
 1049 1119 l 1,10,-1
 1234 403 l 1,11,-1
 1277 228 l 1,12,-1
 1316 399 l 1,13,-1
 1445 946 l 1,14,-1
 1317 972 l 1,15,-1
 1317 1119 l 1,16,-1
 1774 1119 l 1,17,-1
 1774 973 l 1,18,-1
 1641 944 l 1,19,-1
 1366 -14 l 1,20,-1
 1101 -14 l 1,21,-1
 920 607 l 1,22,-1
 878 793 l 1,23,-1
 840 607 l 1,24,-1
 675 -14 l 1,25,-1
 421 -14 l 1,26,-1
 112 948 l 1,0,-1
EndSplineSet
EndChar

StartChar: x
Encoding: 120 120 87
Width: 1242
Flags: W
LayerCount: 2
Fore
SplineSet
3 114 m 1,0,-1
 161 142 l 1,1,-1
 480 538 l 1,2,-1
 139 949 l 1,3,-1
 6 972 l 1,4,-1
 6 1119 l 1,5,-1
 579 1119 l 1,6,-1
 579 972 l 1,7,-1
 466 949 l 1,8,-1
 572 795 l 1,9,-1
 662 671 l 1,10,-1
 694 725 l 1,11,-1
 860 955 l 1,12,-1
 726 972 l 1,13,-1
 726 1119 l 1,14,-1
 1236 1119 l 1,15,-1
 1236 972 l 1,16,-1
 1066 947 l 1,17,-1
 756 580 l 1,18,-1
 1111 140 l 1,19,-1
 1240 114 l 1,20,-1
 1240 0 l 1,21,-1
 675 0 l 1,22,-1
 675 114 l 1,23,-1
 784 141 l 1,24,25
 737 208 737 208 704.5 250 c 128,-1,26
 672 292 672 292 669 297 c 2,27,-1
 570 431 l 1,28,-1
 544 377 l 1,29,-1
 385 143 l 1,30,-1
 545 114 l 1,31,-1
 545 0 l 1,32,-1
 3 0 l 1,33,-1
 3 114 l 1,0,-1
EndSplineSet
EndChar

StartChar: y
Encoding: 121 121 88
Width: 1197
Flags: W
LayerCount: 2
Fore
SplineSet
148 -295 m 1,0,1
 170 -300 170 -300 200.5 -305 c 128,-1,2
 231 -310 231 -310 267 -309 c 0,3,4
 296 -309 296 -309 333 -298.5 c 128,-1,5
 370 -288 370 -288 408 -255.5 c 128,-1,6
 446 -223 446 -223 482 -162 c 128,-1,7
 518 -101 518 -101 544 0 c 1,8,-1
 495 0 l 1,9,-1
 98 949 l 1,10,-1
 4 972 l 1,11,-1
 4 1119 l 1,12,-1
 536 1119 l 1,13,-1
 536 972 l 1,14,-1
 409 947 l 1,15,-1
 622 355 l 1,16,-1
 659 203 l 1,17,-1
 702 355 l 1,18,-1
 882 951 l 1,19,-1
 737 972 l 1,20,-1
 737 1119 l 1,21,-1
 1212 1119 l 1,22,-1
 1212 972 l 1,23,-1
 1107 953 l 1,24,25
 1036 762 1036 762 982 619 c 128,-1,26
 928 476 928 476 888.5 371.5 c 128,-1,27
 849 267 849 267 822 195.5 c 128,-1,28
 795 124 795 124 776.5 76.5 c 128,-1,29
 758 29 758 29 747 0.5 c 128,-1,30
 736 -28 736 -28 728 -48 c 0,31,32
 686 -158 686 -158 643.5 -244 c 128,-1,33
 601 -330 601 -330 552 -390.5 c 128,-1,34
 503 -451 503 -451 444 -485.5 c 128,-1,35
 385 -520 385 -520 311 -526 c 1,36,37
 269 -531 269 -531 221 -529 c 1,38,39
 199 -527 199 -527 177.5 -524 c 128,-1,40
 156 -521 156 -521 147 -515 c 1,41,-1
 148 -295 l 1,42,-1
 148 -295 l 1,0,1
EndSplineSet
EndChar

StartChar: z
Encoding: 122 122 89
Width: 1119
Flags: W
LayerCount: 2
Fore
SplineSet
68 92 m 1,0,-1
 163 238 l 1,1,-1
 644 899 l 1,2,-1
 728 993 l 1,3,-1
 320 974 l 1,4,-1
 256 780 l 1,5,-1
 113 780 l 1,6,-1
 113 1119 l 1,7,-1
 1023 1119 l 1,8,-1
 1063 1013 l 1,9,-1
 539 270 l 1,10,-1
 426 128 l 1,11,-1
 861 157 l 1,12,-1
 923 328 l 1,13,-1
 1073 328 l 1,14,-1
 1056 0 l 1,15,-1
 108 0 l 1,16,-1
 68 92 l 1,0,-1
EndSplineSet
EndChar

StartChar: braceleft
Encoding: 123 123 90
Width: 1091
Flags: W
LayerCount: 2
Fore
SplineSet
290 568 m 2,0,1
 290 590 290 590 271.5 610 c 128,-1,2
 253 630 253 630 223.5 646 c 128,-1,3
 194 662 194 662 156.5 673.5 c 128,-1,4
 119 685 119 685 81 691 c 1,5,-1
 81 871 l 1,6,7
 121 878 121 878 158.5 887 c 128,-1,8
 196 896 196 896 225 909.5 c 128,-1,9
 254 923 254 923 272 941.5 c 128,-1,10
 290 960 290 960 290 985 c 2,11,-1
 290 1527 l 2,12,13
 290 1601 290 1601 305.5 1649 c 128,-1,14
 321 1697 321 1697 351 1725.5 c 128,-1,15
 381 1754 381 1754 425.5 1765.5 c 128,-1,16
 470 1777 470 1777 528 1777 c 0,17,18
 569 1777 569 1777 610.5 1770.5 c 128,-1,19
 652 1764 652 1764 692 1755 c 128,-1,20
 732 1746 732 1746 769.5 1735.5 c 128,-1,21
 807 1725 807 1725 839 1716 c 1,22,23
 839 1688 839 1688 838.5 1661 c 128,-1,24
 838 1634 838 1634 838 1607 c 1,25,-1
 538 1607 l 1,26,-1
 538 971 l 2,27,28
 538 933 538 933 523 906 c 128,-1,29
 508 879 508 879 482 858 c 0,30,31
 452 833 452 833 411 815 c 128,-1,32
 370 797 370 797 322 776 c 1,33,34
 372 756 372 756 414.5 735 c 128,-1,35
 457 714 457 714 488 686 c 0,36,37
 511 665 511 665 524.5 637.5 c 128,-1,38
 538 610 538 610 538 575 c 2,39,-1
 538 -59 l 1,40,-1
 838 -59 l 1,41,42
 838 -87 838 -87 838.5 -114.5 c 128,-1,43
 839 -142 839 -142 839 -170 c 1,44,45
 807 -179 807 -179 771.5 -189.5 c 128,-1,46
 736 -200 736 -200 698 -209 c 128,-1,47
 660 -218 660 -218 620 -224 c 128,-1,48
 580 -230 580 -230 539 -230 c 0,49,50
 481 -230 481 -230 435 -219 c 128,-1,51
 389 -208 389 -208 356.5 -179 c 128,-1,52
 324 -150 324 -150 307 -99 c 128,-1,53
 290 -48 290 -48 290 32 c 2,54,-1
 290 568 l 2,0,1
EndSplineSet
EndChar

StartChar: bar
Encoding: 124 124 91
Width: 995
Flags: W
LayerCount: 2
Fore
SplineSet
363 1780 m 1,0,-1
 639 1780 l 1,1,-1
 639 -186 l 1,2,-1
 363 -186 l 1,3,-1
 363 1780 l 1,0,-1
EndSplineSet
EndChar

StartChar: braceright
Encoding: 125 125 92
Width: 1057
Flags: W
LayerCount: 2
Fore
SplineSet
515 -59 m 1,0,-1
 515 575 l 2,1,2
 515 610 515 610 529 637.5 c 128,-1,3
 543 665 543 665 566 686 c 0,4,5
 596 714 596 714 639 735 c 128,-1,6
 682 756 682 756 731 776 c 1,7,8
 684 797 684 797 642.5 815 c 128,-1,9
 601 833 601 833 572 858 c 1,10,11
 546 879 546 879 530.5 906 c 128,-1,12
 515 933 515 933 515 971 c 2,13,-1
 515 1607 l 1,14,-1
 215 1607 l 1,15,16
 215 1634 215 1634 214.5 1661 c 128,-1,17
 214 1688 214 1688 214 1716 c 1,18,19
 246 1725 246 1725 283.5 1735.5 c 128,-1,20
 321 1746 321 1746 361 1755 c 128,-1,21
 401 1764 401 1764 442.5 1770.5 c 128,-1,22
 484 1777 484 1777 525 1777 c 0,23,24
 583 1777 583 1777 627.5 1765.5 c 128,-1,25
 672 1754 672 1754 702.5 1725.5 c 128,-1,26
 733 1697 733 1697 748.5 1649 c 128,-1,27
 764 1601 764 1601 764 1527 c 2,28,-1
 764 985 l 2,29,30
 764 960 764 960 781.5 941.5 c 128,-1,31
 799 923 799 923 828.5 909.5 c 128,-1,32
 858 896 858 896 895.5 887 c 128,-1,33
 933 878 933 878 973 871 c 1,34,-1
 973 691 l 1,35,36
 935 685 935 685 897.5 673.5 c 128,-1,37
 860 662 860 662 830.5 646 c 128,-1,38
 801 630 801 630 782.5 610 c 128,-1,39
 764 590 764 590 764 568 c 2,40,-1
 764 32 l 2,41,42
 764 -48 764 -48 746.5 -99 c 128,-1,43
 729 -150 729 -150 696.5 -179 c 128,-1,44
 664 -208 664 -208 618 -219 c 128,-1,45
 572 -230 572 -230 514 -230 c 0,46,47
 473 -230 473 -230 433 -224 c 128,-1,48
 393 -218 393 -218 355 -209 c 128,-1,49
 317 -200 317 -200 281.5 -189.5 c 128,-1,50
 246 -179 246 -179 214 -170 c 1,51,52
 214 -142 214 -142 214.5 -114.5 c 128,-1,53
 215 -87 215 -87 215 -59 c 1,54,-1
 515 -59 l 1,0,-1
EndSplineSet
EndChar

StartChar: asciitilde
Encoding: 126 126 93
Width: 1291
Flags: W
LayerCount: 2
Fore
SplineSet
147 859 m 1,0,1
 160 892 160 892 193 930.5 c 128,-1,2
 226 969 226 969 272.5 1002 c 128,-1,3
 319 1035 319 1035 375.5 1057.5 c 128,-1,4
 432 1080 432 1080 491 1080 c 0,5,6
 533 1080 533 1080 566 1068.5 c 128,-1,7
 599 1057 599 1057 627 1040.5 c 128,-1,8
 655 1024 655 1024 679.5 1004 c 128,-1,9
 704 984 704 984 729 967.5 c 128,-1,10
 754 951 754 951 781 939.5 c 128,-1,11
 808 928 808 928 841 928 c 0,12,13
 876 928 876 928 908 938.5 c 128,-1,14
 940 949 940 949 967.5 964.5 c 128,-1,15
 995 980 995 980 1017.5 997.5 c 128,-1,16
 1040 1015 1040 1015 1056 1030 c 1,17,-1
 1143 920 l 1,18,19
 1131 885 1131 885 1098.5 846 c 128,-1,20
 1066 807 1066 807 1020.5 774 c 128,-1,21
 975 741 975 741 918.5 719 c 128,-1,22
 862 697 862 697 801 697 c 0,23,24
 759 697 759 697 727 708.5 c 128,-1,25
 695 720 695 720 667.5 737 c 128,-1,26
 640 754 640 754 615.5 773.5 c 128,-1,27
 591 793 591 793 565.5 810 c 128,-1,28
 540 827 540 827 511.5 838.5 c 128,-1,29
 483 850 483 850 448 850 c 256,30,31
 413 850 413 850 381.5 839.5 c 128,-1,32
 350 829 350 829 322.5 814 c 128,-1,33
 295 799 295 799 272.5 781.5 c 128,-1,34
 250 764 250 764 234 749 c 1,35,-1
 147 859 l 1,0,1
EndSplineSet
EndChar

StartChar: exclamdown
Encoding: 161 161 94
Width: 770
Flags: W
LayerCount: 2
Fore
SplineSet
379 1089 m 0,0,1
 347 1089 347 1089 316.5 1099.5 c 128,-1,2
 286 1110 286 1110 262.5 1130 c 128,-1,3
 239 1150 239 1150 224.5 1179.5 c 128,-1,4
 210 1209 210 1209 210 1247 c 0,5,6
 210 1288 210 1288 228 1323 c 128,-1,7
 246 1358 246 1358 274.5 1384 c 128,-1,8
 303 1410 303 1410 338.5 1424.5 c 128,-1,9
 374 1439 374 1439 409 1439 c 0,10,11
 453 1439 453 1439 485.5 1426 c 128,-1,12
 518 1413 518 1413 539 1391 c 128,-1,13
 560 1369 560 1369 570.5 1339 c 128,-1,14
 581 1309 581 1309 581 1275 c 0,15,16
 581 1232 581 1232 563.5 1197.5 c 128,-1,17
 546 1163 546 1163 517.5 1139 c 128,-1,18
 489 1115 489 1115 452.5 1102 c 128,-1,19
 416 1089 416 1089 379 1089 c 0,0,1
306 867 m 1,20,-1
 460 867 l 1,21,-1
 570 -429 l 1,22,-1
 188 -429 l 1,23,-1
 306 867 l 1,20,-1
EndSplineSet
EndChar

StartChar: sterling
Encoding: 163 163 95
Width: 1502
Flags: W
LayerCount: 2
Fore
SplineSet
40 67 m 0,0,1
 40 95 40 95 60 124.5 c 128,-1,2
 80 154 80 154 119.5 177.5 c 128,-1,3
 159 201 159 201 217 215.5 c 128,-1,4
 275 230 275 230 351 229 c 1,5,6
 369 271 369 271 375.5 328.5 c 128,-1,7
 382 386 382 386 382 461 c 2,8,-1
 382 707 l 1,9,-1
 214 707 l 1,10,-1
 214 883 l 1,11,-1
 382 883 l 1,12,-1
 382 960 l 2,13,14
 382 1036 382 1036 398.5 1111 c 128,-1,15
 415 1186 415 1186 447 1253.5 c 128,-1,16
 479 1321 479 1321 525.5 1378.5 c 128,-1,17
 572 1436 572 1436 632 1478 c 128,-1,18
 692 1520 692 1520 765 1544 c 128,-1,19
 838 1568 838 1568 923 1568 c 256,20,21
 1008 1568 1008 1568 1084 1547.5 c 128,-1,22
 1160 1527 1160 1527 1225 1472 c 1,23,-1
 1094 1232 l 1,24,25
 1088 1246 1088 1246 1066 1277 c 128,-1,26
 1044 1308 1044 1308 1008 1340 c 128,-1,27
 972 1372 972 1372 924.5 1396 c 128,-1,28
 877 1420 877 1420 821 1420 c 0,29,30
 783 1420 783 1420 754 1400 c 128,-1,31
 725 1380 725 1380 705.5 1331.5 c 128,-1,32
 686 1283 686 1283 676 1200 c 128,-1,33
 666 1117 666 1117 666 991 c 2,34,-1
 666 883 l 1,35,-1
 950 883 l 1,36,-1
 950 707 l 1,37,-1
 667 707 l 1,38,-1
 667 661 l 2,39,40
 667 573 667 573 661 506 c 128,-1,41
 655 439 655 439 640.5 385.5 c 128,-1,42
 626 332 626 332 603.5 287 c 128,-1,43
 581 242 581 242 548 197 c 1,44,45
 585 194 585 194 618.5 183 c 128,-1,46
 652 172 652 172 688.5 159.5 c 128,-1,47
 725 147 725 147 766 135.5 c 128,-1,48
 807 124 807 124 859 120 c 1,49,50
 929 112 929 112 980 125 c 128,-1,51
 1031 138 1031 138 1064.5 163.5 c 128,-1,52
 1098 189 1098 189 1114.5 223 c 128,-1,53
 1131 257 1131 257 1131 292 c 0,54,55
 1131 316 1131 316 1123 337.5 c 128,-1,56
 1115 359 1115 359 1102 377 c 128,-1,57
 1089 395 1089 395 1074 409.5 c 128,-1,58
 1059 424 1059 424 1045 434 c 1,59,-1
 1162 661 l 1,60,61
 1207 649 1207 649 1246 622 c 128,-1,62
 1285 595 1285 595 1314 556 c 128,-1,63
 1343 517 1343 517 1361 469 c 128,-1,64
 1379 421 1379 421 1381 368 c 0,65,66
 1383 335 1383 335 1378 293.5 c 128,-1,67
 1373 252 1373 252 1356.5 208 c 128,-1,68
 1340 164 1340 164 1310.5 121.5 c 128,-1,69
 1281 79 1281 79 1233.5 45 c 128,-1,70
 1186 11 1186 11 1118.5 -11.5 c 128,-1,71
 1051 -34 1051 -34 959 -37 c 0,72,73
 884 -40 884 -40 822 -31.5 c 128,-1,74
 760 -23 760 -23 709 -8 c 128,-1,75
 658 7 658 7 616 24.5 c 128,-1,76
 574 42 574 42 540 57 c 128,-1,77
 506 72 506 72 477.5 81 c 128,-1,78
 449 90 449 90 424 87 c 1,79,80
 384 39 384 39 322.5 5.5 c 128,-1,81
 261 -28 261 -28 181 -30 c 0,82,83
 155 -31 155 -31 129.5 -26 c 128,-1,84
 104 -21 104 -21 84 -9.5 c 128,-1,85
 64 2 64 2 52 21 c 128,-1,86
 40 40 40 40 40 67 c 0,0,1
EndSplineSet
EndChar

StartChar: currency
Encoding: 164 164 96
Width: 1467
Flags: W
LayerCount: 2
Fore
SplineSet
382 465 m 1,0,1
 350 513 350 513 333 569.5 c 128,-1,2
 316 626 316 626 316 689 c 256,3,4
 316 752 316 752 333.5 808.5 c 128,-1,5
 351 865 351 865 383 913 c 1,6,-1
 186 1113 l 1,7,-1
 311 1240 l 1,8,-1
 512 1036 l 1,9,10
 559 1064 559 1064 612 1079.5 c 128,-1,11
 665 1095 665 1095 724 1095 c 0,12,13
 785 1095 785 1095 841 1078 c 128,-1,14
 897 1061 897 1061 945 1031 c 1,15,-1
 1158 1241 l 1,16,-1
 1285 1113 l 1,17,-1
 1072 903 l 1,18,19
 1101 856 1101 856 1117 802.5 c 128,-1,20
 1133 749 1133 749 1133 689 c 256,21,22
 1133 629 1133 629 1116.5 574 c 128,-1,23
 1100 519 1100 519 1071 472 c 1,24,-1
 1271 270 l 1,25,-1
 1144 144 l 1,26,-1
 943 345 l 1,27,28
 895 315 895 315 840 299 c 128,-1,29
 785 283 785 283 724 283 c 0,30,31
 665 283 665 283 612 298 c 128,-1,32
 559 313 559 313 512 341 c 1,33,-1
 311 141 l 1,34,-1
 184 267 l 1,35,-1
 382 465 l 1,0,1
518 689 m 256,36,37
 518 646 518 646 534.5 607 c 128,-1,38
 551 568 551 568 579 538.5 c 128,-1,39
 607 509 607 509 645 491.5 c 128,-1,40
 683 474 683 474 725 474 c 0,41,42
 768 474 768 474 805 491.5 c 128,-1,43
 842 509 842 509 870 538.5 c 128,-1,44
 898 568 898 568 914 607 c 128,-1,45
 930 646 930 646 930 689 c 256,46,47
 930 732 930 732 914 770.5 c 128,-1,48
 898 809 898 809 870 838.5 c 128,-1,49
 842 868 842 868 805 885.5 c 128,-1,50
 768 903 768 903 725 903 c 0,51,52
 683 903 683 903 645 885.5 c 128,-1,53
 607 868 607 868 579 838.5 c 128,-1,54
 551 809 551 809 534.5 770.5 c 128,-1,55
 518 732 518 732 518 689 c 256,36,37
EndSplineSet
EndChar

StartChar: brokenbar
Encoding: 166 166 97
Width: 995
Flags: W
LayerCount: 2
Fore
SplineSet
363 1780 m 1,0,-1
 639 1780 l 1,1,-1
 639 898 l 1,2,-1
 363 898 l 1,3,-1
 363 1780 l 1,0,-1
363 697 m 1,4,-1
 639 697 l 1,5,-1
 639 -185 l 1,6,-1
 363 -185 l 1,7,-1
 363 697 l 1,4,-1
EndSplineSet
EndChar

StartChar: dieresis
Encoding: 168 168 98
Width: 1062
Flags: W
LayerCount: 2
Fore
SplineSet
768 1363 m 0,0,1
 738 1363 738 1363 710 1371.5 c 128,-1,2
 682 1380 682 1380 660 1397 c 128,-1,3
 638 1414 638 1414 625 1438.5 c 128,-1,4
 612 1463 612 1463 612 1495 c 0,5,6
 612 1528 612 1528 628 1556 c 128,-1,7
 644 1584 644 1584 669.5 1604.5 c 128,-1,8
 695 1625 695 1625 727.5 1636.5 c 128,-1,9
 760 1648 760 1648 793 1648 c 0,10,11
 835 1648 835 1648 864.5 1638 c 128,-1,12
 894 1628 894 1628 913 1610.5 c 128,-1,13
 932 1593 932 1593 940.5 1569 c 128,-1,14
 949 1545 949 1545 949 1517 c 0,15,16
 949 1481 949 1481 934 1452.5 c 128,-1,17
 919 1424 919 1424 894 1404 c 128,-1,18
 869 1384 869 1384 836 1373.5 c 128,-1,19
 803 1363 803 1363 768 1363 c 0,0,1
267 1363 m 0,20,21
 236 1363 236 1363 208 1371.5 c 128,-1,22
 180 1380 180 1380 159 1396.5 c 128,-1,23
 138 1413 138 1413 125.5 1437 c 128,-1,24
 113 1461 113 1461 113 1493 c 0,25,26
 113 1527 113 1527 128.5 1555.5 c 128,-1,27
 144 1584 144 1584 169.5 1604.5 c 128,-1,28
 195 1625 195 1625 227.5 1636.5 c 128,-1,29
 260 1648 260 1648 293 1648 c 0,30,31
 335 1648 335 1648 365 1638 c 128,-1,32
 395 1628 395 1628 414.5 1610 c 128,-1,33
 434 1592 434 1592 443 1568 c 128,-1,34
 452 1544 452 1544 452 1516 c 0,35,36
 452 1481 452 1481 436.5 1452.5 c 128,-1,37
 421 1424 421 1424 395 1404 c 128,-1,38
 369 1384 369 1384 336 1373.5 c 128,-1,39
 303 1363 303 1363 267 1363 c 0,20,21
EndSplineSet
EndChar

StartChar: copyright
Encoding: 169 169 99
Width: 2081
Flags: W
LayerCount: 2
Fore
SplineSet
1041 219 m 0,0,1
 918 219 918 219 806 249 c 128,-1,2
 694 279 694 279 598.5 334 c 128,-1,3
 503 389 503 389 426 466 c 128,-1,4
 349 543 349 543 294.5 637.5 c 128,-1,5
 240 732 240 732 210.5 841 c 128,-1,6
 181 950 181 950 181 1069 c 256,7,8
 181 1188 181 1188 211.5 1297.5 c 128,-1,9
 242 1407 242 1407 298 1501.5 c 128,-1,10
 354 1596 354 1596 432.5 1673 c 128,-1,11
 511 1750 511 1750 606.5 1805 c 128,-1,12
 702 1860 702 1860 812 1890 c 128,-1,13
 922 1920 922 1920 1041 1920 c 0,14,15
 1159 1920 1159 1920 1268.5 1890.5 c 128,-1,16
 1378 1861 1378 1861 1473.5 1806.5 c 128,-1,17
 1569 1752 1569 1752 1647.5 1675 c 128,-1,18
 1726 1598 1726 1598 1782 1503.5 c 128,-1,19
 1838 1409 1838 1409 1869 1299 c 128,-1,20
 1900 1189 1900 1189 1900 1069 c 0,21,22
 1900 953 1900 953 1869 845.5 c 128,-1,23
 1838 738 1838 738 1782 643.5 c 128,-1,24
 1726 549 1726 549 1647.5 471 c 128,-1,25
 1569 393 1569 393 1473.5 337 c 128,-1,26
 1378 281 1378 281 1268.5 250 c 128,-1,27
 1159 219 1159 219 1041 219 c 0,0,1
1040 359 m 256,28,29
 1136 359 1136 359 1225.5 384 c 128,-1,30
 1315 409 1315 409 1392.5 455 c 128,-1,31
 1470 501 1470 501 1533.5 565.5 c 128,-1,32
 1597 630 1597 630 1642.5 709 c 128,-1,33
 1688 788 1688 788 1713 879 c 128,-1,34
 1738 970 1738 970 1738 1069 c 256,35,36
 1738 1168 1738 1168 1713 1259.5 c 128,-1,37
 1688 1351 1688 1351 1642.5 1430 c 128,-1,38
 1597 1509 1597 1509 1533.5 1573.5 c 128,-1,39
 1470 1638 1470 1638 1392.5 1684 c 128,-1,40
 1315 1730 1315 1730 1225.5 1755 c 128,-1,41
 1136 1780 1136 1780 1040 1780 c 0,42,43
 943 1780 943 1780 854 1755 c 128,-1,44
 765 1730 765 1730 687.5 1684 c 128,-1,45
 610 1638 610 1638 546.5 1573.5 c 128,-1,46
 483 1509 483 1509 438 1430 c 128,-1,47
 393 1351 393 1351 368 1259.5 c 128,-1,48
 343 1168 343 1168 343 1069 c 256,49,50
 343 970 343 970 368 879 c 128,-1,51
 393 788 393 788 438.5 709 c 128,-1,52
 484 630 484 630 548 565.5 c 128,-1,53
 612 501 612 501 689.5 455 c 128,-1,54
 767 409 767 409 855.5 384 c 128,-1,55
 944 359 944 359 1040 359 c 256,28,29
1045 585 m 0,56,57
 931 585 931 585 844 620.5 c 128,-1,58
 757 656 757 656 698.5 719 c 128,-1,59
 640 782 640 782 610.5 869.5 c 128,-1,60
 581 957 581 957 581 1061 c 0,61,62
 581 1169 581 1169 621.5 1263.5 c 128,-1,63
 662 1358 662 1358 731 1428 c 128,-1,64
 800 1498 800 1498 892 1539 c 128,-1,65
 984 1580 984 1580 1087 1582 c 0,66,67
 1130 1583 1130 1583 1172.5 1580.5 c 128,-1,68
 1215 1578 1215 1578 1253 1572 c 128,-1,69
 1291 1566 1291 1566 1322 1555.5 c 128,-1,70
 1353 1545 1353 1545 1373 1529 c 1,71,-1
 1373 1264 l 1,72,-1
 1215 1264 l 1,73,-1
 1155 1406 l 1,74,75
 1139 1418 1139 1418 1113 1424 c 128,-1,76
 1087 1430 1087 1430 1039 1431 c 0,77,78
 992 1431 992 1431 956.5 1409 c 128,-1,79
 921 1387 921 1387 897.5 1346.5 c 128,-1,80
 874 1306 874 1306 862.5 1247 c 128,-1,81
 851 1188 851 1188 851 1115 c 0,82,83
 851 1034 851 1034 874 970.5 c 128,-1,84
 897 907 897 907 935.5 863.5 c 128,-1,85
 974 820 974 820 1024.5 797.5 c 128,-1,86
 1075 775 1075 775 1131 775 c 0,87,88
 1156 775 1156 775 1185.5 777.5 c 128,-1,89
 1215 780 1215 780 1244.5 786 c 128,-1,90
 1274 792 1274 792 1302 801 c 128,-1,91
 1330 810 1330 810 1352 824 c 1,92,-1
 1389 721 l 1,93,94
 1366 692 1366 692 1328 667 c 128,-1,95
 1290 642 1290 642 1243.5 624 c 128,-1,96
 1197 606 1197 606 1146 595.5 c 128,-1,97
 1095 585 1095 585 1045 585 c 0,56,57
EndSplineSet
EndChar

StartChar: guillemotleft
Encoding: 171 171 100
Width: 2043
Flags: W
LayerCount: 2
Fore
SplineSet
1037 729 m 1,0,-1
 1736 1114 l 1,1,-1
 1807 1000 l 1,2,-1
 1328 614 l 1,3,-1
 1807 245 l 1,4,-1
 1736 122 l 1,5,-1
 1037 485 l 1,6,-1
 1037 729 l 1,0,-1
236 729 m 1,7,-1
 935 1114 l 1,8,-1
 1006 1000 l 1,9,-1
 527 614 l 1,10,-1
 1006 245 l 1,11,-1
 935 122 l 1,12,-1
 236 485 l 1,13,-1
 236 729 l 1,7,-1
EndSplineSet
EndChar

StartChar: guilsinglleft
Encoding: 8249 8249 101
Width: 1242
Flags: W
LayerCount: 2
Fore
SplineSet
236 729 m 1,0,-1
 935 1114 l 1,1,-1
 1006 1000 l 1,2,-1
 527 614 l 1,3,-1
 1006 245 l 1,4,-1
 935 122 l 1,5,-1
 236 485 l 1,6,-1
 236 729 l 1,0,-1
EndSplineSet
EndChar

StartChar: registered
Encoding: 174 174 102
Width: 2081
Flags: W
LayerCount: 2
Fore
SplineSet
1041 219 m 0,0,1
 918 219 918 219 806 249 c 128,-1,2
 694 279 694 279 598.5 334 c 128,-1,3
 503 389 503 389 426 466 c 128,-1,4
 349 543 349 543 294.5 637.5 c 128,-1,5
 240 732 240 732 210.5 841 c 128,-1,6
 181 950 181 950 181 1069 c 256,7,8
 181 1188 181 1188 211.5 1297.5 c 128,-1,9
 242 1407 242 1407 298 1501.5 c 128,-1,10
 354 1596 354 1596 432.5 1673 c 128,-1,11
 511 1750 511 1750 606.5 1805 c 128,-1,12
 702 1860 702 1860 812 1890 c 128,-1,13
 922 1920 922 1920 1041 1920 c 0,14,15
 1159 1920 1159 1920 1268.5 1890.5 c 128,-1,16
 1378 1861 1378 1861 1473.5 1806.5 c 128,-1,17
 1569 1752 1569 1752 1647.5 1675 c 128,-1,18
 1726 1598 1726 1598 1782 1503.5 c 128,-1,19
 1838 1409 1838 1409 1869 1299 c 128,-1,20
 1900 1189 1900 1189 1900 1069 c 0,21,22
 1900 953 1900 953 1869 845.5 c 128,-1,23
 1838 738 1838 738 1782 643.5 c 128,-1,24
 1726 549 1726 549 1647.5 471 c 128,-1,25
 1569 393 1569 393 1473.5 337 c 128,-1,26
 1378 281 1378 281 1268.5 250 c 128,-1,27
 1159 219 1159 219 1041 219 c 0,0,1
1040 359 m 256,28,29
 1136 359 1136 359 1225.5 384 c 128,-1,30
 1315 409 1315 409 1392.5 455 c 128,-1,31
 1470 501 1470 501 1533.5 565.5 c 128,-1,32
 1597 630 1597 630 1642.5 709 c 128,-1,33
 1688 788 1688 788 1713 879 c 128,-1,34
 1738 970 1738 970 1738 1069 c 256,35,36
 1738 1168 1738 1168 1713 1259.5 c 128,-1,37
 1688 1351 1688 1351 1642.5 1430 c 128,-1,38
 1597 1509 1597 1509 1533.5 1573.5 c 128,-1,39
 1470 1638 1470 1638 1392.5 1684 c 128,-1,40
 1315 1730 1315 1730 1225.5 1755 c 128,-1,41
 1136 1780 1136 1780 1040 1780 c 0,42,43
 943 1780 943 1780 854 1755 c 128,-1,44
 765 1730 765 1730 687.5 1684 c 128,-1,45
 610 1638 610 1638 546.5 1573.5 c 128,-1,46
 483 1509 483 1509 438 1430 c 128,-1,47
 393 1351 393 1351 368 1259.5 c 128,-1,48
 343 1168 343 1168 343 1069 c 256,49,50
 343 970 343 970 368 879 c 128,-1,51
 393 788 393 788 438.5 709 c 128,-1,52
 484 630 484 630 548 565.5 c 128,-1,53
 612 501 612 501 689.5 455 c 128,-1,54
 767 409 767 409 855.5 384 c 128,-1,55
 944 359 944 359 1040 359 c 256,28,29
611 710 m 1,56,-1
 695 744 l 1,57,-1
 695 1423 l 1,58,-1
 611 1448 l 1,59,-1
 611 1567 l 1,60,-1
 806 1567 l 1,61,62
 831 1566 831 1566 859 1566.5 c 128,-1,63
 887 1567 887 1567 919.5 1567.5 c 128,-1,64
 952 1568 952 1568 991 1569.5 c 128,-1,65
 1030 1571 1030 1571 1079 1571 c 0,66,67
 1265 1571 1265 1571 1360.5 1511 c 128,-1,68
 1456 1451 1456 1451 1459 1323 c 1,69,70
 1459 1276 1459 1276 1446 1227.5 c 128,-1,71
 1433 1179 1433 1179 1403 1137.5 c 128,-1,72
 1373 1096 1373 1096 1323.5 1067.5 c 128,-1,73
 1274 1039 1274 1039 1200 1033 c 1,74,75
 1247 1021 1247 1021 1279.5 993.5 c 128,-1,76
 1312 966 1312 966 1336 931 c 128,-1,77
 1360 896 1360 896 1378.5 859 c 128,-1,78
 1397 822 1397 822 1417 791 c 128,-1,79
 1437 760 1437 760 1461.5 740 c 128,-1,80
 1486 720 1486 720 1521 720 c 1,81,-1
 1521 606 l 1,82,-1
 1283 606 l 2,83,84
 1249 606 1249 606 1226.5 631 c 128,-1,85
 1204 656 1204 656 1186.5 694 c 128,-1,86
 1169 732 1169 732 1153 778.5 c 128,-1,87
 1137 825 1137 825 1114.5 868.5 c 128,-1,88
 1092 912 1092 912 1060 946.5 c 128,-1,89
 1028 981 1028 981 979 996 c 1,90,-1
 954 996 l 1,91,-1
 954 732 l 1,92,-1
 1034 710 l 1,93,-1
 1034 605 l 1,94,-1
 611 605 l 1,95,-1
 611 710 l 1,56,-1
954 1126 m 1,96,97
 977 1120 977 1120 998 1119 c 128,-1,98
 1019 1118 1019 1118 1053 1118 c 0,99,100
 1081 1118 1081 1118 1107.5 1128 c 128,-1,101
 1134 1138 1134 1138 1154 1158.5 c 128,-1,102
 1174 1179 1174 1179 1186 1209.5 c 128,-1,103
 1198 1240 1198 1240 1198 1280 c 0,104,105
 1198 1368 1198 1368 1153 1402.5 c 128,-1,106
 1108 1437 1108 1437 1014 1437 c 0,107,108
 997 1437 997 1437 984 1435 c 128,-1,109
 971 1433 971 1433 954 1428 c 1,110,-1
 954 1126 l 1,96,97
EndSplineSet
EndChar

StartChar: macron
Encoding: 175 175 103
Width: 997
Flags: W
LayerCount: 2
Fore
SplineSet
231 1587 m 1,0,-1
 782 1587 l 1,1,-1
 782 1386 l 1,2,-1
 231 1386 l 1,3,-1
 231 1587 l 1,0,-1
EndSplineSet
EndChar

StartChar: degree
Encoding: 176 176 104
Width: 810
Flags: W
LayerCount: 2
Fore
SplineSet
404 922 m 0,0,1
 334 922 334 922 272.5 949 c 128,-1,2
 211 976 211 976 164.5 1021.5 c 128,-1,3
 118 1067 118 1067 91 1128 c 128,-1,4
 64 1189 64 1189 64 1258 c 256,5,6
 64 1327 64 1327 91 1388 c 128,-1,7
 118 1449 118 1449 164.5 1495 c 128,-1,8
 211 1541 211 1541 272.5 1567.5 c 128,-1,9
 334 1594 334 1594 404 1594 c 0,10,11
 475 1594 475 1594 537 1567 c 128,-1,12
 599 1540 599 1540 645.5 1494 c 128,-1,13
 692 1448 692 1448 718.5 1387 c 128,-1,14
 745 1326 745 1326 745 1258 c 0,15,16
 745 1189 745 1189 718.5 1128 c 128,-1,17
 692 1067 692 1067 645.5 1021.5 c 128,-1,18
 599 976 599 976 537 949 c 128,-1,19
 475 922 475 922 404 922 c 0,0,1
404 1075 m 0,20,21
 442 1075 442 1075 474.5 1089 c 128,-1,22
 507 1103 507 1103 531 1127.5 c 128,-1,23
 555 1152 555 1152 568.5 1185.5 c 128,-1,24
 582 1219 582 1219 582 1259 c 0,25,26
 582 1297 582 1297 568 1330.5 c 128,-1,27
 554 1364 554 1364 530 1389.5 c 128,-1,28
 506 1415 506 1415 473.5 1429.5 c 128,-1,29
 441 1444 441 1444 404 1444 c 0,30,31
 365 1444 365 1444 332 1430 c 128,-1,32
 299 1416 299 1416 275.5 1391 c 128,-1,33
 252 1366 252 1366 239 1332.5 c 128,-1,34
 226 1299 226 1299 226 1259 c 0,35,36
 226 1220 226 1220 239.5 1186.5 c 128,-1,37
 253 1153 253 1153 276.5 1128 c 128,-1,38
 300 1103 300 1103 332.5 1089 c 128,-1,39
 365 1075 365 1075 404 1075 c 0,20,21
EndSplineSet
EndChar

StartChar: plusminus
Encoding: 177 177 105
Width: 1302
Flags: W
LayerCount: 2
Fore
SplineSet
546 546 m 1,0,-1
 554 724 l 1,1,-1
 395 715 l 1,2,-1
 180 715 l 1,3,-1
 180 928 l 1,4,-1
 395 928 l 1,5,-1
 554 917 l 1,6,-1
 546 1097 l 1,7,-1
 546 1316 l 1,8,-1
 761 1316 l 1,9,-1
 761 1097 l 1,10,-1
 752 917 l 1,11,-1
 899 928 l 1,12,-1
 1127 928 l 1,13,-1
 1127 715 l 1,14,-1
 899 715 l 1,15,-1
 752 724 l 1,16,-1
 761 546 l 1,17,-1
 761 333 l 1,18,-1
 546 333 l 1,19,-1
 546 546 l 1,0,-1
186 210 m 1,20,-1
 1111 210 l 1,21,-1
 1111 13 l 1,22,-1
 186 13 l 1,23,-1
 186 210 l 1,20,-1
EndSplineSet
EndChar

StartChar: acute
Encoding: 180 180 106
Width: 886
Flags: W
LayerCount: 2
Fore
SplineSet
304 1412 m 1,0,-1
 609 1820 l 1,1,-1
 817 1645 l 1,2,3
 784 1593 784 1593 731 1546 c 128,-1,4
 678 1499 678 1499 617.5 1459 c 128,-1,5
 557 1419 557 1419 493.5 1388 c 128,-1,6
 430 1357 430 1357 376 1338 c 1,7,-1
 304 1412 l 1,0,-1
EndSplineSet
EndChar

StartChar: paragraph
Encoding: 182 182 107
Width: 1497
Flags: W
LayerCount: 2
Fore
SplineSet
400 118 m 1,0,-1
 606 159 l 1,1,-1
 606 665 l 1,2,3
 505 665 505 665 420 691.5 c 128,-1,4
 335 718 335 718 273.5 773.5 c 128,-1,5
 212 829 212 829 178 914 c 128,-1,6
 144 999 144 999 144 1116 c 0,7,8
 144 1216 144 1216 174 1300 c 128,-1,9
 204 1384 204 1384 269.5 1444.5 c 128,-1,10
 335 1505 335 1505 437.5 1539 c 128,-1,11
 540 1573 540 1573 686 1573 c 0,12,13
 709 1573 709 1573 751 1571.5 c 128,-1,14
 793 1570 793 1570 845 1568.5 c 128,-1,15
 897 1567 897 1567 954 1564.5 c 128,-1,16
 1011 1562 1011 1562 1064.5 1559.5 c 128,-1,17
 1118 1557 1118 1557 1164 1555.5 c 128,-1,18
 1210 1554 1210 1554 1239 1553 c 1,19,-1
 1434 1553 l 1,20,-1
 1434 1413 l 1,21,-1
 1246 1366 l 1,22,-1
 1246 159 l 1,23,-1
 1426 118 l 1,24,-1
 1426 0 l 1,25,-1
 1024 0 l 1,26,-1
 1022 1386 l 1,27,-1
 837 1386 l 1,28,-1
 837 0 l 1,29,-1
 400 0 l 1,30,-1
 400 118 l 1,0,-1
EndSplineSet
EndChar

StartChar: periodcentered
Encoding: 183 183 108
Width: 744
Flags: W
LayerCount: 2
Fore
SplineSet
356 672 m 0,0,1
 324 672 324 672 293.5 682.5 c 128,-1,2
 263 693 263 693 239 713.5 c 128,-1,3
 215 734 215 734 200.5 763 c 128,-1,4
 186 792 186 792 186 830 c 0,5,6
 186 871 186 871 204 906.5 c 128,-1,7
 222 942 222 942 251 967.5 c 128,-1,8
 280 993 280 993 315.5 1007.5 c 128,-1,9
 351 1022 351 1022 386 1022 c 0,10,11
 430 1022 430 1022 462.5 1009 c 128,-1,12
 495 996 495 996 516 974 c 128,-1,13
 537 952 537 952 547.5 922.5 c 128,-1,14
 558 893 558 893 558 859 c 0,15,16
 558 816 558 816 540.5 781.5 c 128,-1,17
 523 747 523 747 494.5 722.5 c 128,-1,18
 466 698 466 698 429.5 685 c 128,-1,19
 393 672 393 672 356 672 c 0,0,1
EndSplineSet
EndChar

StartChar: cedilla
Encoding: 184 184 109
Width: 648
Flags: W
LayerCount: 2
Fore
SplineSet
354 6 m 1,0,1
 350 -19 350 -19 350 -58 c 128,-1,2
 350 -97 350 -97 353 -128 c 1,3,4
 419 -132 419 -132 463.5 -152 c 128,-1,5
 508 -172 508 -172 535 -200.5 c 128,-1,6
 562 -229 562 -229 573.5 -261 c 128,-1,7
 585 -293 585 -293 585 -320 c 0,8,9
 585 -370 585 -370 566 -407.5 c 128,-1,10
 547 -445 547 -445 513 -471.5 c 128,-1,11
 479 -498 479 -498 432 -512 c 128,-1,12
 385 -526 385 -526 328 -529 c 0,13,14
 283 -531 283 -531 246.5 -529 c 128,-1,15
 210 -527 210 -527 181 -522.5 c 128,-1,16
 152 -518 152 -518 130.5 -512.5 c 128,-1,17
 109 -507 109 -507 93 -503 c 1,18,-1
 93 -375 l 1,19,20
 105 -378 105 -378 122.5 -380.5 c 128,-1,21
 140 -383 140 -383 157.5 -385 c 128,-1,22
 175 -387 175 -387 190 -388 c 128,-1,23
 205 -389 205 -389 213 -389 c 0,24,25
 256 -389 256 -389 284.5 -373 c 128,-1,26
 313 -357 313 -357 313 -310 c 0,27,28
 313 -274 313 -274 286.5 -254 c 128,-1,29
 260 -234 260 -234 210 -234 c 0,30,31
 204 -234 204 -234 195.5 -234.5 c 128,-1,32
 187 -235 187 -235 178.5 -235.5 c 128,-1,33
 170 -236 170 -236 163.5 -237 c 128,-1,34
 157 -238 157 -238 156 -238 c 1,35,36
 156 -214 156 -214 160.5 -180.5 c 128,-1,37
 165 -147 165 -147 171.5 -112.5 c 128,-1,38
 178 -78 178 -78 186.5 -46.5 c 128,-1,39
 195 -15 195 -15 204 6 c 1,40,-1
 354 6 l 1,0,1
EndSplineSet
EndChar

StartChar: guillemotright
Encoding: 187 187 110
Width: 2043
Flags: W
LayerCount: 2
Fore
SplineSet
1512 621 m 1,0,-1
 1034 991 l 1,1,-1
 1105 1114 l 1,2,-1
 1804 751 l 1,3,-1
 1804 506 l 1,4,-1
 1105 122 l 1,5,-1
 1034 236 l 1,6,-1
 1512 621 l 1,0,-1
233 236 m 1,7,-1
 711 621 l 1,8,-1
 233 991 l 1,9,-1
 303 1114 l 1,10,-1
 1003 751 l 1,11,-1
 1003 506 l 1,12,-1
 303 122 l 1,13,-1
 233 236 l 1,7,-1
EndSplineSet
EndChar

StartChar: questiondown
Encoding: 191 191 111
Width: 1041
Flags: W
LayerCount: 2
Fore
SplineSet
470 1099 m 0,0,1
 438 1099 438 1099 407.5 1109.5 c 128,-1,2
 377 1120 377 1120 353.5 1140.5 c 128,-1,3
 330 1161 330 1161 315.5 1190.5 c 128,-1,4
 301 1220 301 1220 301 1258 c 0,5,6
 301 1299 301 1299 319 1334 c 128,-1,7
 337 1369 337 1369 365.5 1395 c 128,-1,8
 394 1421 394 1421 429.5 1435.5 c 128,-1,9
 465 1450 465 1450 500 1450 c 0,10,11
 544 1450 544 1450 576.5 1437 c 128,-1,12
 609 1424 609 1424 630 1401.5 c 128,-1,13
 651 1379 651 1379 661.5 1349.5 c 128,-1,14
 672 1320 672 1320 672 1286 c 0,15,16
 672 1243 672 1243 654.5 1208.5 c 128,-1,17
 637 1174 637 1174 608.5 1149.5 c 128,-1,18
 580 1125 580 1125 543.5 1112 c 128,-1,19
 507 1099 507 1099 470 1099 c 0,0,1
120 296 m 1,20,21
 125 320 125 320 153 342.5 c 128,-1,22
 181 365 181 365 222 386.5 c 128,-1,23
 263 408 263 408 311 429 c 128,-1,24
 359 450 359 450 403 472.5 c 128,-1,25
 447 495 447 495 482.5 519 c 128,-1,26
 518 543 518 543 534 571 c 1,27,28
 547 600 547 600 539.5 644.5 c 128,-1,29
 532 689 532 689 515.5 737.5 c 128,-1,30
 499 786 499 786 478 831.5 c 128,-1,31
 457 877 457 877 443 908 c 1,32,-1
 631 908 l 1,33,34
 667 876 667 876 698 834 c 128,-1,35
 729 792 729 792 752.5 748 c 128,-1,36
 776 704 776 704 790 661.5 c 128,-1,37
 804 619 804 619 805 585 c 0,38,39
 806 537 806 537 769 500.5 c 128,-1,40
 732 464 732 464 676 435.5 c 128,-1,41
 620 407 620 407 553.5 383.5 c 128,-1,42
 487 360 487 360 428.5 339.5 c 128,-1,43
 370 319 370 319 328 298.5 c 128,-1,44
 286 278 286 278 279 254 c 1,45,46
 279 182 279 182 301 121.5 c 128,-1,47
 323 61 323 61 358.5 13 c 128,-1,48
 394 -35 394 -35 441 -71 c 128,-1,49
 488 -107 488 -107 538.5 -131.5 c 128,-1,50
 589 -156 589 -156 640.5 -168.5 c 128,-1,51
 692 -181 692 -181 737 -182 c 0,52,53
 806 -184 806 -184 858.5 -177.5 c 128,-1,54
 911 -171 911 -171 938 -153 c 1,55,-1
 946 -373 l 1,56,57
 939 -383 939 -383 916 -392.5 c 128,-1,58
 893 -402 893 -402 861 -408.5 c 128,-1,59
 829 -415 829 -415 792.5 -419 c 128,-1,60
 756 -423 756 -423 722 -422 c 0,61,62
 576 -418 576 -418 469.5 -378 c 128,-1,63
 363 -338 363 -338 291 -276.5 c 128,-1,64
 219 -215 219 -215 177 -138 c 128,-1,65
 135 -61 135 -61 117 17.5 c 128,-1,66
 99 96 99 96 101.5 169 c 128,-1,67
 104 242 104 242 120 296 c 1,20,21
EndSplineSet
EndChar

StartChar: multiply
Encoding: 215 215 112
Width: 1344
Flags: W
LayerCount: 2
Fore
SplineSet
183 476 m 1,0,-1
 536 815 l 1,1,-1
 183 1153 l 1,2,-1
 333 1309 l 1,3,-1
 671 951 l 1,4,-1
 1009 1309 l 1,5,-1
 1159 1153 l 1,6,-1
 806 815 l 1,7,-1
 1159 476 l 1,8,-1
 1010 321 l 1,9,-1
 672 679 l 1,10,-1
 334 321 l 1,11,-1
 183 476 l 1,0,-1
EndSplineSet
EndChar

StartChar: germandbls
Encoding: 223 223 113
Width: 1416
Flags: W
LayerCount: 2
Fore
SplineSet
55 119 m 1,0,-1
 211 161 l 1,1,-1
 211 871 l 2,2,3
 211 999 211 999 234.5 1100 c 128,-1,4
 258 1201 258 1201 300 1278.5 c 128,-1,5
 342 1356 342 1356 399 1411 c 128,-1,6
 456 1466 456 1466 523 1501 c 128,-1,7
 590 1536 590 1536 664 1552 c 128,-1,8
 738 1568 738 1568 814 1568 c 0,9,10
 870 1568 870 1568 932.5 1554.5 c 128,-1,11
 995 1541 995 1541 1048 1508 c 128,-1,12
 1101 1475 1101 1475 1135.5 1420 c 128,-1,13
 1170 1365 1170 1365 1170 1283 c 0,14,15
 1170 1223 1170 1223 1152 1179 c 128,-1,16
 1134 1135 1134 1135 1107 1100 c 128,-1,17
 1080 1065 1080 1065 1048 1036 c 128,-1,18
 1016 1007 1016 1007 989 977.5 c 128,-1,19
 962 948 962 948 944 915 c 128,-1,20
 926 882 926 882 926 839 c 0,21,22
 926 798 926 798 946 769 c 128,-1,23
 966 740 966 740 998 717.5 c 128,-1,24
 1030 695 1030 695 1071.5 676 c 128,-1,25
 1113 657 1113 657 1156.5 637.5 c 128,-1,26
 1200 618 1200 618 1241.5 594 c 128,-1,27
 1283 570 1283 570 1315 537 c 128,-1,28
 1347 504 1347 504 1367 459 c 128,-1,29
 1387 414 1387 414 1387 352 c 0,30,31
 1387 266 1387 266 1358 196.5 c 128,-1,32
 1329 127 1329 127 1272.5 78.5 c 128,-1,33
 1216 30 1216 30 1133.5 4 c 128,-1,34
 1051 -22 1051 -22 945 -22 c 0,35,36
 916 -22 916 -22 877.5 -20.5 c 128,-1,37
 839 -19 839 -19 800.5 -15.5 c 128,-1,38
 762 -12 762 -12 728 -6 c 128,-1,39
 694 0 694 0 674 9 c 1,40,-1
 674 196 l 1,41,42
 692 184 692 184 719 169.5 c 128,-1,43
 746 155 746 155 779 143 c 128,-1,44
 812 131 812 131 849 122.5 c 128,-1,45
 886 114 886 114 923 114 c 256,46,47
 960 114 960 114 995 123.5 c 128,-1,48
 1030 133 1030 133 1057 153.5 c 128,-1,49
 1084 174 1084 174 1100 207 c 128,-1,50
 1116 240 1116 240 1116 288 c 0,51,52
 1116 330 1116 330 1097.5 358 c 128,-1,53
 1079 386 1079 386 1048 407 c 128,-1,54
 1017 428 1017 428 978 444 c 128,-1,55
 939 460 939 460 898.5 477 c 128,-1,56
 858 494 858 494 819 515 c 128,-1,57
 780 536 780 536 749 566 c 128,-1,58
 718 596 718 596 699.5 638 c 128,-1,59
 681 680 681 680 681 740 c 0,60,61
 681 786 681 786 698 824 c 128,-1,62
 715 862 715 862 741 897 c 128,-1,63
 767 932 767 932 796.5 966.5 c 128,-1,64
 826 1001 826 1001 852 1039.5 c 128,-1,65
 878 1078 878 1078 895 1122.5 c 128,-1,66
 912 1167 912 1167 912 1223 c 0,67,68
 912 1265 912 1265 902.5 1302 c 128,-1,69
 893 1339 893 1339 873 1366.5 c 128,-1,70
 853 1394 853 1394 822 1410 c 128,-1,71
 791 1426 791 1426 748 1426 c 0,72,73
 682 1426 682 1426 634 1401 c 128,-1,74
 586 1376 586 1376 555 1318.5 c 128,-1,75
 524 1261 524 1261 509 1167 c 128,-1,76
 494 1073 494 1073 494 935 c 2,77,-1
 494 0 l 1,78,-1
 55 0 l 1,79,-1
 55 119 l 1,0,-1
EndSplineSet
EndChar

StartChar: eth
Encoding: 240 240 114
Width: 1283
Flags: W
LayerCount: 2
Fore
SplineSet
80 502 m 0,0,1
 80 642 80 642 126 745.5 c 128,-1,2
 172 849 172 849 248 917.5 c 128,-1,3
 324 986 324 986 423 1019.5 c 128,-1,4
 522 1053 522 1053 627 1053 c 0,5,6
 672 1053 672 1053 715 1044 c 128,-1,7
 758 1035 758 1035 797 1019.5 c 128,-1,8
 836 1004 836 1004 868.5 982.5 c 128,-1,9
 901 961 901 961 925 937 c 1,10,11
 912 1003 912 1003 887 1064 c 128,-1,12
 862 1125 862 1125 827 1180.5 c 128,-1,13
 792 1236 792 1236 749 1285.5 c 128,-1,14
 706 1335 706 1335 657 1377 c 1,15,-1
 490 1230 l 1,16,-1
 388 1312 l 1,17,-1
 547 1457 l 1,18,19
 433 1528 433 1528 312 1557 c 1,20,-1
 338 1688 l 1,21,22
 423 1669 423 1669 502.5 1638.5 c 128,-1,23
 582 1608 582 1608 657 1565 c 1,24,25
 683 1588 683 1588 713.5 1615.5 c 128,-1,26
 744 1643 744 1643 770 1667 c 0,27,28
 801 1695 801 1695 832 1723 c 1,29,-1
 939 1632 l 1,30,31
 912 1608 912 1608 884 1583 c 0,32,33
 860 1562 860 1562 830.5 1537 c 128,-1,34
 801 1512 801 1512 775 1489 c 1,35,36
 867 1419 867 1419 944 1330 c 128,-1,37
 1021 1241 1021 1241 1076 1133.5 c 128,-1,38
 1131 1026 1131 1026 1161.5 902 c 128,-1,39
 1192 778 1192 778 1192 638 c 0,40,41
 1192 488 1192 488 1158 365.5 c 128,-1,42
 1124 243 1124 243 1053.5 156 c 128,-1,43
 983 69 983 69 875.5 21.5 c 128,-1,44
 768 -26 768 -26 621 -27 c 0,45,46
 501 -28 501 -28 401.5 10.5 c 128,-1,47
 302 49 302 49 230.5 119 c 128,-1,48
 159 189 159 189 119.5 287 c 128,-1,49
 80 385 80 385 80 502 c 0,0,1
375 516 m 0,50,51
 375 432 375 432 395.5 357 c 128,-1,52
 416 282 416 282 452.5 226.5 c 128,-1,53
 489 171 489 171 539 138.5 c 128,-1,54
 589 106 589 106 647 106 c 0,55,56
 703 106 703 106 751.5 135.5 c 128,-1,57
 800 165 800 165 835.5 223 c 128,-1,58
 871 281 871 281 891 366 c 128,-1,59
 911 451 911 451 911 562 c 0,60,61
 911 581 911 581 910.5 611.5 c 128,-1,62
 910 642 910 642 903 673 c 0,63,64
 896 707 896 707 875.5 749.5 c 128,-1,65
 855 792 855 792 821.5 829 c 128,-1,66
 788 866 788 866 741.5 891 c 128,-1,67
 695 916 695 916 636 916 c 0,68,69
 564 916 564 916 514 889 c 128,-1,70
 464 862 464 862 433.5 811 c 128,-1,71
 403 760 403 760 389 685.5 c 128,-1,72
 375 611 375 611 375 516 c 0,50,51
EndSplineSet
EndChar

StartChar: endash
Encoding: 8211 8211 115
Width: 1454
Flags: W
LayerCount: 2
Fore
SplineSet
181 922 m 1,0,-1
 1273 922 l 1,1,-1
 1273 724 l 1,2,-1
 181 724 l 1,3,-1
 181 922 l 1,0,-1
EndSplineSet
EndChar

StartChar: emdash
Encoding: 8212 8212 116
Width: 2410
Flags: W
LayerCount: 2
Fore
SplineSet
181 922 m 1,0,-1
 2229 922 l 1,1,-1
 2229 725 l 1,2,-1
 181 725 l 1,3,-1
 181 922 l 1,0,-1
EndSplineSet
EndChar

StartChar: quoteleft
Encoding: 8216 8216 117
Width: 858
Flags: W
LayerCount: 2
Fore
SplineSet
441 838 m 1,0,1
 372 860 372 860 325 905.5 c 128,-1,2
 278 951 278 951 249.5 1006 c 128,-1,3
 221 1061 221 1061 208.5 1118.5 c 128,-1,4
 196 1176 196 1176 197 1222 c 0,5,6
 198 1325 198 1325 234 1410.5 c 128,-1,7
 270 1496 270 1496 325 1563 c 128,-1,8
 380 1630 380 1630 447 1676.5 c 128,-1,9
 514 1723 514 1723 579 1748 c 1,10,-1
 658 1669 l 1,11,-1
 658 1633 l 1,12,13
 625 1621 625 1621 591.5 1590.5 c 128,-1,14
 558 1560 558 1560 531 1518 c 128,-1,15
 504 1476 504 1476 487 1427.5 c 128,-1,16
 470 1379 470 1379 470 1331 c 0,17,18
 470 1295 470 1295 482.5 1260 c 128,-1,19
 495 1225 495 1225 516 1196.5 c 128,-1,20
 537 1168 537 1168 564 1149.5 c 128,-1,21
 591 1131 591 1131 621 1128 c 1,22,-1
 621 1064 l 1,23,-1
 441 838 l 1,24,-1
 441 838 l 1,0,1
EndSplineSet
EndChar

StartChar: quoteright
Encoding: 8217 8217 118
Width: 858
Flags: W
LayerCount: 2
Fore
SplineSet
200 927 m 1,0,-1
 200 962 l 1,1,2
 233 974 233 974 266.5 1005 c 128,-1,3
 300 1036 300 1036 327.5 1077.5 c 128,-1,4
 355 1119 355 1119 372 1168 c 128,-1,5
 389 1217 389 1217 389 1265 c 0,6,7
 389 1301 389 1301 376.5 1336 c 128,-1,8
 364 1371 364 1371 342.5 1399.5 c 128,-1,9
 321 1428 321 1428 293.5 1446.5 c 128,-1,10
 266 1465 266 1465 236 1468 c 1,11,-1
 236 1531 l 1,12,-1
 416 1757 l 1,13,14
 485 1735 485 1735 532.5 1689.5 c 128,-1,15
 580 1644 580 1644 608.5 1589.5 c 128,-1,16
 637 1535 637 1535 649.5 1477.5 c 128,-1,17
 662 1420 662 1420 661 1374 c 0,18,19
 659 1271 659 1271 623.5 1185.5 c 128,-1,20
 588 1100 588 1100 532.5 1033 c 128,-1,21
 477 966 477 966 410 919.5 c 128,-1,22
 343 873 343 873 279 848 c 1,23,-1
 200 927 l 1,0,-1
EndSplineSet
EndChar

StartChar: quotesinglbase
Encoding: 8218 8218 119
Width: 858
Flags: W
LayerCount: 2
Fore
SplineSet
236 143 m 1,0,-1
 416 369 l 1,1,2
 485 347 485 347 532.5 301.5 c 128,-1,3
 580 256 580 256 608.5 201 c 128,-1,4
 637 146 637 146 649.5 88.5 c 128,-1,5
 662 31 662 31 661 -15 c 0,6,7
 659 -117 659 -117 623.5 -200 c 128,-1,8
 588 -283 588 -283 532.5 -346.5 c 128,-1,9
 477 -410 477 -410 410 -454 c 128,-1,10
 343 -498 343 -498 279 -523 c 1,11,-1
 200 -444 l 1,12,-1
 200 -409 l 1,13,14
 233 -397 233 -397 266.5 -369 c 128,-1,15
 300 -341 300 -341 327 -302 c 128,-1,16
 354 -263 354 -263 371 -217 c 128,-1,17
 388 -171 388 -171 388 -123 c 0,18,19
 388 -87 388 -87 375.5 -52 c 128,-1,20
 363 -17 363 -17 342 11.5 c 128,-1,21
 321 40 321 40 293.5 58.5 c 128,-1,22
 266 77 266 77 236 80 c 1,23,-1
 236 143 l 1,0,-1
EndSplineSet
EndChar

StartChar: quotedblleft
Encoding: 8220 8220 120
Width: 1435
Flags: W
LayerCount: 2
Fore
SplineSet
1018 837 m 1,0,1
 949 859 949 859 901.5 905 c 128,-1,2
 854 951 854 951 825 1006 c 128,-1,3
 796 1061 796 1061 783.5 1118.5 c 128,-1,4
 771 1176 771 1176 773 1221 c 1,5,6
 774 1289 774 1289 791 1350.5 c 128,-1,7
 808 1412 808 1412 836 1464.5 c 128,-1,8
 864 1517 864 1517 901.5 1562 c 128,-1,9
 939 1607 939 1607 981 1642.5 c 128,-1,10
 1023 1678 1023 1678 1067.5 1704 c 128,-1,11
 1112 1730 1112 1730 1154 1747 c 1,12,-1
 1235 1668 l 1,13,-1
 1235 1633 l 1,14,15
 1202 1621 1202 1621 1168 1590 c 128,-1,16
 1134 1559 1134 1559 1107 1517.5 c 128,-1,17
 1080 1476 1080 1476 1063 1427 c 128,-1,18
 1046 1378 1046 1378 1046 1330 c 0,19,20
 1046 1294 1046 1294 1058.5 1259 c 128,-1,21
 1071 1224 1071 1224 1092 1195.5 c 128,-1,22
 1113 1167 1113 1167 1140.5 1148.5 c 128,-1,23
 1168 1130 1168 1130 1198 1127 c 1,24,-1
 1198 1064 l 1,25,-1
 1018 837 l 1,0,1
441 837 m 1,26,27
 372 859 372 859 324.5 905 c 128,-1,28
 277 951 277 951 248.5 1006 c 128,-1,29
 220 1061 220 1061 208 1118.5 c 128,-1,30
 196 1176 196 1176 197 1221 c 0,31,32
 198 1324 198 1324 234 1409.5 c 128,-1,33
 270 1495 270 1495 325 1562 c 128,-1,34
 380 1629 380 1629 447.5 1675.5 c 128,-1,35
 515 1722 515 1722 579 1747 c 1,36,-1
 658 1668 l 1,37,-1
 658 1633 l 1,38,39
 625 1621 625 1621 591.5 1590 c 128,-1,40
 558 1559 558 1559 531 1517.5 c 128,-1,41
 504 1476 504 1476 487 1427 c 128,-1,42
 470 1378 470 1378 470 1330 c 0,43,44
 470 1294 470 1294 482.5 1259 c 128,-1,45
 495 1224 495 1224 516 1195.5 c 128,-1,46
 537 1167 537 1167 564 1148.5 c 128,-1,47
 591 1130 591 1130 621 1127 c 1,48,-1
 621 1064 l 1,49,-1
 441 837 l 1,26,27
EndSplineSet
EndChar

StartChar: quotedblright
Encoding: 8221 8221 121
Width: 1446
Flags: W
LayerCount: 2
Fore
SplineSet
786 924 m 1,0,-1
 786 960 l 1,1,2
 820 972 820 972 853.5 1002.5 c 128,-1,3
 887 1033 887 1033 914 1075 c 128,-1,4
 941 1117 941 1117 958 1166 c 128,-1,5
 975 1215 975 1215 975 1263 c 0,6,7
 975 1299 975 1299 962.5 1333.5 c 128,-1,8
 950 1368 950 1368 929.5 1396.5 c 128,-1,9
 909 1425 909 1425 881.5 1443.5 c 128,-1,10
 854 1462 854 1462 824 1465 c 1,11,-1
 824 1529 l 1,12,-1
 1003 1755 l 1,13,14
 1073 1733 1073 1733 1120.5 1687.5 c 128,-1,15
 1168 1642 1168 1642 1196.5 1587 c 128,-1,16
 1225 1532 1225 1532 1237.5 1474.5 c 128,-1,17
 1250 1417 1250 1417 1249 1371 c 0,18,19
 1247 1268 1247 1268 1211.5 1182.5 c 128,-1,20
 1176 1097 1176 1097 1120.5 1030 c 128,-1,21
 1065 963 1065 963 998 916.5 c 128,-1,22
 931 870 931 870 867 846 c 1,23,-1
 786 924 l 1,0,-1
200 924 m 1,24,-1
 200 960 l 1,25,26
 233 972 233 972 267 1002.5 c 128,-1,27
 301 1033 301 1033 328 1075 c 128,-1,28
 355 1117 355 1117 372 1166 c 128,-1,29
 389 1215 389 1215 389 1263 c 0,30,31
 389 1299 389 1299 376.5 1333.5 c 128,-1,32
 364 1368 364 1368 343 1396.5 c 128,-1,33
 322 1425 322 1425 294.5 1443.5 c 128,-1,34
 267 1462 267 1462 237 1465 c 1,35,-1
 237 1529 l 1,36,-1
 416 1755 l 1,37,38
 485 1733 485 1733 532.5 1687.5 c 128,-1,39
 580 1642 580 1642 609.5 1587 c 128,-1,40
 639 1532 639 1532 651 1474.5 c 128,-1,41
 663 1417 663 1417 662 1371 c 0,42,43
 660 1268 660 1268 624.5 1182.5 c 128,-1,44
 589 1097 589 1097 533.5 1030 c 128,-1,45
 478 963 478 963 411 916.5 c 128,-1,46
 344 870 344 870 280 846 c 1,47,-1
 200 924 l 1,24,-1
EndSplineSet
EndChar

StartChar: quotedblbase
Encoding: 8222 8222 122
Width: 1417
Flags: W
LayerCount: 2
Fore
SplineSet
796 146 m 1,0,-1
 976 372 l 1,1,2
 1045 350 1045 350 1092.5 304.5 c 128,-1,3
 1140 259 1140 259 1169 204 c 128,-1,4
 1198 149 1198 149 1210 91.5 c 128,-1,5
 1222 34 1222 34 1221 -12 c 0,6,7
 1219 -114 1219 -114 1183.5 -199.5 c 128,-1,8
 1148 -285 1148 -285 1092.5 -352 c 128,-1,9
 1037 -419 1037 -419 970 -465.5 c 128,-1,10
 903 -512 903 -512 839 -537 c 1,11,-1
 758 -458 l 1,12,-1
 758 -423 l 1,13,14
 792 -411 792 -411 826 -380.5 c 128,-1,15
 860 -350 860 -350 887 -308 c 128,-1,16
 914 -266 914 -266 930.5 -217.5 c 128,-1,17
 947 -169 947 -169 947 -121 c 0,18,19
 947 -85 947 -85 934.5 -50 c 128,-1,20
 922 -15 922 -15 901 13.5 c 128,-1,21
 880 42 880 42 853 61 c 128,-1,22
 826 80 826 80 796 83 c 1,23,-1
 796 146 l 1,0,-1
237 146 m 1,24,-1
 418 372 l 1,25,26
 487 350 487 350 534.5 304.5 c 128,-1,27
 582 259 582 259 610.5 204 c 128,-1,28
 639 149 639 149 651 91.5 c 128,-1,29
 663 34 663 34 662 -12 c 0,30,31
 660 -114 660 -114 624.5 -199.5 c 128,-1,32
 589 -285 589 -285 534 -352 c 128,-1,33
 479 -419 479 -419 412 -465.5 c 128,-1,34
 345 -512 345 -512 281 -537 c 1,35,-1
 200 -458 l 1,36,-1
 200 -423 l 1,37,38
 234 -411 234 -411 267.5 -380.5 c 128,-1,39
 301 -350 301 -350 328 -308 c 128,-1,40
 355 -266 355 -266 372 -217.5 c 128,-1,41
 389 -169 389 -169 389 -121 c 0,42,43
 389 -85 389 -85 376.5 -50 c 128,-1,44
 364 -15 364 -15 343 13.5 c 128,-1,45
 322 42 322 42 294.5 61 c 128,-1,46
 267 80 267 80 237 83 c 1,47,-1
 237 146 l 1,24,-1
EndSplineSet
EndChar

StartChar: dagger
Encoding: 8224 8224 123
Width: 1035
Flags: W
LayerCount: 2
Fore
SplineSet
390 918 m 1,0,-1
 410 1112 l 1,1,-1
 112 1089 l 1,2,-1
 113 1305 l 1,3,-1
 419 1276 l 1,4,-1
 387 1521 l 1,5,-1
 385 1648 l 1,6,-1
 650 1648 l 1,7,-1
 648 1521 l 1,8,-1
 617 1276 l 1,9,-1
 922 1305 l 1,10,-1
 923 1089 l 1,11,-1
 625 1112 l 1,12,-1
 645 918 l 1,13,-1
 584 272 l 1,14,-1
 440 272 l 1,15,-1
 390 918 l 1,0,-1
EndSplineSet
EndChar

StartChar: bullet
Encoding: 8226 8226 124
Width: 885
Flags: W
LayerCount: 2
Fore
SplineSet
429 471 m 256,0,1
 372 471 372 471 321.5 494 c 128,-1,2
 271 517 271 517 233.5 556 c 128,-1,3
 196 595 196 595 176 646 c 128,-1,4
 156 697 156 697 161 754 c 1,5,6
 165 813 165 813 190.5 864 c 128,-1,7
 216 915 216 915 256 953 c 128,-1,8
 296 991 296 991 348 1012.5 c 128,-1,9
 400 1034 400 1034 457 1034 c 256,10,11
 514 1034 514 1034 564.5 1012.5 c 128,-1,12
 615 991 615 991 652 953 c 128,-1,13
 689 915 689 915 709 864 c 128,-1,14
 729 813 729 813 725 754 c 0,15,16
 720 695 720 695 695 643.5 c 128,-1,17
 670 592 670 592 630 553.5 c 128,-1,18
 590 515 590 515 538 493 c 128,-1,19
 486 471 486 471 429 471 c 256,0,1
EndSplineSet
EndChar

StartChar: guilsinglright
Encoding: 8250 8250 125
Width: 1242
Flags: W
LayerCount: 2
Fore
SplineSet
233 236 m 1,0,-1
 711 621 l 1,1,-1
 233 991 l 1,2,-1
 303 1114 l 1,3,-1
 1003 751 l 1,4,-1
 1003 506 l 1,5,-1
 303 122 l 1,6,-1
 233 236 l 1,0,-1
EndSplineSet
EndChar

StartChar: quotedbl
Encoding: 34 34 126
Width: 1261
Flags: W
LayerCount: 2
Fore
SplineSet
729 1782 m 1,0,-1
 1033 1782 l 1,1,-1
 964 960 l 1,2,-1
 798 960 l 1,3,-1
 729 1782 l 1,0,-1
227 1782 m 1,4,-1
 532 1782 l 1,5,-1
 463 960 l 1,6,-1
 297 960 l 1,7,-1
 227 1782 l 1,4,-1
EndSplineSet
EndChar

StartChar: exclam
Encoding: 33 33 127
Width: 767
Flags: W
LayerCount: 2
Fore
SplineSet
188 1780 m 1,0,-1
 570 1780 l 1,1,-1
 452 534 l 1,2,-1
 298 534 l 1,3,-1
 188 1780 l 1,0,-1
195 131 m 0,4,5
 195 172 195 172 213 207 c 128,-1,6
 231 242 231 242 259.5 268 c 128,-1,7
 288 294 288 294 323.5 308.5 c 128,-1,8
 359 323 359 323 394 323 c 0,9,10
 438 323 438 323 470.5 310 c 128,-1,11
 503 297 503 297 524 274.5 c 128,-1,12
 545 252 545 252 555.5 222.5 c 128,-1,13
 566 193 566 193 566 159 c 0,14,15
 566 116 566 116 548.5 81.5 c 128,-1,16
 531 47 531 47 502.5 22.5 c 128,-1,17
 474 -2 474 -2 437.5 -15 c 128,-1,18
 401 -28 401 -28 364 -28 c 0,19,20
 332 -28 332 -28 301.5 -17.5 c 128,-1,21
 271 -7 271 -7 247.5 13.5 c 128,-1,22
 224 34 224 34 209.5 63.5 c 128,-1,23
 195 93 195 93 195 131 c 0,4,5
EndSplineSet
EndChar

StartChar: logicalnot
Encoding: 172 172 128
Width: 1323
Flags: W
LayerCount: 2
Fore
SplineSet
181 921 m 1,0,-1
 1142 921 l 1,1,-1
 1142 357 l 1,2,-1
 893 357 l 1,3,-1
 893 745 l 1,4,-1
 181 745 l 1,5,-1
 181 921 l 1,0,-1
EndSplineSet
EndChar

StartChar: yen
Encoding: 165 165 129
Width: 1474
Flags: W
LayerCount: 2
Fore
SplineSet
363 116 m 1,0,-1
 583 155 l 1,1,-1
 583 362 l 1,2,-1
 195 362 l 1,3,-1
 195 511 l 1,4,-1
 583 511 l 1,5,-1
 583 700 l 1,6,-1
 570 721 l 1,7,-1
 195 721 l 1,8,-1
 195 871 l 1,9,-1
 477 871 l 1,10,-1
 153 1398 l 1,11,-1
 30 1418 l 1,12,-1
 30 1553 l 1,13,-1
 605 1553 l 1,14,-1
 605 1419 l 1,15,-1
 482 1400 l 1,16,-1
 697 997 l 1,17,-1
 751 871 l 1,18,-1
 771 871 l 1,19,-1
 834 1005 l 1,20,21
 882 1099 882 1099 930.5 1199 c 128,-1,22
 979 1299 979 1299 1029 1397 c 1,23,-1
 879 1418 l 1,24,-1
 879 1553 l 1,25,-1
 1396 1553 l 1,26,-1
 1396 1418 l 1,27,-1
 1254 1382 l 1,28,-1
 957 871 l 1,29,-1
 1259 871 l 1,30,-1
 1259 721 l 1,31,-1
 870 721 l 1,32,-1
 869 719 l 1,33,-1
 869 511 l 1,34,-1
 1259 511 l 1,35,-1
 1259 362 l 1,36,-1
 869 362 l 1,37,-1
 869 157 l 1,38,-1
 1104 116 l 1,39,-1
 1104 0 l 1,40,-1
 363 0 l 1,41,-1
 363 116 l 1,0,-1
EndSplineSet
EndChar

StartChar: divide
Encoding: 247 247 130
Width: 1348
Flags: W
LayerCount: 2
Fore
SplineSet
677 1105 m 0,0,1
 645 1105 645 1105 615 1115.5 c 128,-1,2
 585 1126 585 1126 562 1146.5 c 128,-1,3
 539 1167 539 1167 525 1196 c 128,-1,4
 511 1225 511 1225 511 1263 c 0,5,6
 511 1304 511 1304 528.5 1338.5 c 128,-1,7
 546 1373 546 1373 574.5 1398.5 c 128,-1,8
 603 1424 603 1424 637.5 1438 c 128,-1,9
 672 1452 672 1452 707 1452 c 0,10,11
 751 1452 751 1452 783 1439.5 c 128,-1,12
 815 1427 815 1427 835.5 1405.5 c 128,-1,13
 856 1384 856 1384 866 1355 c 128,-1,14
 876 1326 876 1326 876 1292 c 0,15,16
 876 1248 876 1248 859 1213.5 c 128,-1,17
 842 1179 842 1179 814 1155 c 128,-1,18
 786 1131 786 1131 750 1118 c 128,-1,19
 714 1105 714 1105 677 1105 c 0,0,1
181 922 m 1,20,-1
 1168 922 l 1,21,-1
 1168 724 l 1,22,-1
 181 724 l 1,23,-1
 181 922 l 1,20,-1
510 350 m 0,24,25
 510 391 510 391 527.5 425.5 c 128,-1,26
 545 460 545 460 573.5 485.5 c 128,-1,27
 602 511 602 511 637 525 c 128,-1,28
 672 539 672 539 707 539 c 0,29,30
 751 539 751 539 783 526.5 c 128,-1,31
 815 514 815 514 835.5 492 c 128,-1,32
 856 470 856 470 866 441 c 128,-1,33
 876 412 876 412 876 378 c 0,34,35
 876 335 876 335 859 300.5 c 128,-1,36
 842 266 842 266 814 241.5 c 128,-1,37
 786 217 786 217 750 204 c 128,-1,38
 714 191 714 191 677 191 c 0,39,40
 645 191 645 191 614.5 201.5 c 128,-1,41
 584 212 584 212 561 232.5 c 128,-1,42
 538 253 538 253 524 282.5 c 128,-1,43
 510 312 510 312 510 350 c 0,24,25
EndSplineSet
EndChar

StartChar: daggerdbl
Encoding: 8225 8225 131
Width: 1035
Flags: W
LayerCount: 2
Fore
SplineSet
113 666 m 1,0,-1
 418 637 l 1,1,-1
 390 917 l 1,2,-1
 410 1112 l 1,3,-1
 112 1089 l 1,4,-1
 113 1305 l 1,5,-1
 418 1276 l 1,6,-1
 387 1520 l 1,7,-1
 385 1648 l 1,8,-1
 650 1648 l 1,9,-1
 648 1520 l 1,10,-1
 617 1276 l 1,11,-1
 922 1305 l 1,12,-1
 923 1089 l 1,13,-1
 625 1112 l 1,14,-1
 645 917 l 1,15,-1
 617 637 l 1,16,-1
 922 666 l 1,17,-1
 923 450 l 1,18,-1
 625 474 l 1,19,-1
 645 279 l 1,20,-1
 583 -367 l 1,21,-1
 442 -367 l 1,22,-1
 390 279 l 1,23,-1
 410 474 l 1,24,-1
 112 450 l 1,25,-1
 113 666 l 1,0,-1
EndSplineSet
EndChar

StartChar: cent
Encoding: 162 162 142
Width: 1172
Flags: W
LayerCount: 2
Fore
SplineSet
514 -14 m 1,0,1
 415 4 415 4 339.5 52 c 128,-1,2
 264 100 264 100 212.5 171 c 128,-1,3
 161 242 161 242 134.5 334 c 128,-1,4
 108 426 108 426 107 531 c 0,5,6
 106 662 106 662 145 768 c 128,-1,7
 184 874 184 874 252.5 952 c 128,-1,8
 321 1030 321 1030 415.5 1078.5 c 128,-1,9
 510 1127 510 1127 620 1143 c 1,10,-1
 633 1362 l 1,11,-1
 796 1362 l 1,12,-1
 784 1149 l 1,13,14
 822 1147 822 1147 859 1142.5 c 128,-1,15
 896 1138 896 1138 928 1131.5 c 128,-1,16
 960 1125 960 1125 986 1117 c 128,-1,17
 1012 1109 1012 1109 1029 1099 c 1,18,-1
 1029 815 l 1,19,-1
 885 815 l 1,20,-1
 818 977 l 1,21,22
 788 997 788 997 747 1004 c 128,-1,23
 706 1011 706 1011 672 1011 c 0,24,25
 614 1011 614 1011 564.5 986 c 128,-1,26
 515 961 515 961 478 912.5 c 128,-1,27
 441 864 441 864 419 791.5 c 128,-1,28
 397 719 397 719 395 625 c 0,29,30
 392 497 392 497 420.5 406.5 c 128,-1,31
 449 316 449 316 497.5 258 c 128,-1,32
 546 200 546 200 609 173 c 128,-1,33
 672 146 672 146 737 146 c 0,34,35
 779 146 779 146 821.5 151.5 c 128,-1,36
 864 157 864 157 902 166 c 128,-1,37
 940 175 940 175 970.5 187 c 128,-1,38
 1001 199 1001 199 1021 213 c 1,39,-1
 1066 103 l 1,40,41
 1001 47 1001 47 899 14.5 c 128,-1,42
 797 -18 797 -18 676 -24 c 1,43,-1
 666 -217 l 1,44,-1
 502 -217 l 1,45,-1
 514 -14 l 1,46,-1
 514 -14 l 1,0,1
EndSplineSet
EndChar

StartChar: circumflex
Encoding: 710 710 144
Width: 1063
Flags: W
LayerCount: 2
Fore
SplineSet
145 1397 m 1,0,-1
 417 1775 l 1,1,-1
 642 1775 l 1,2,-1
 913 1398 l 1,3,-1
 794 1336 l 1,4,-1
 529 1568 l 1,5,-1
 252 1335 l 1,6,-1
 145 1397 l 1,0,-1
EndSplineSet
EndChar

StartChar: caron
Encoding: 711 711 145
Width: 1062
Flags: W
LayerCount: 2
Fore
SplineSet
148 1713 m 1,0,-1
 259 1775 l 1,1,-1
 532 1542 l 1,2,-1
 801 1774 l 1,3,-1
 915 1713 l 1,4,-1
 644 1335 l 1,5,-1
 419 1335 l 1,6,-1
 148 1713 l 1,0,-1
EndSplineSet
EndChar

StartChar: breve
Encoding: 728 728 146
Width: 1274
Flags: W
LayerCount: 2
Fore
SplineSet
637 1359 m 0,0,1
 551 1359 551 1359 484.5 1388.5 c 128,-1,2
 418 1418 418 1418 372.5 1466 c 128,-1,3
 327 1514 327 1514 303.5 1574 c 128,-1,4
 280 1634 280 1634 280 1695 c 1,5,-1
 441 1695 l 1,6,7
 445 1684 445 1684 454.5 1657.5 c 128,-1,8
 464 1631 464 1631 485 1604 c 128,-1,9
 506 1577 506 1577 542.5 1556 c 128,-1,10
 579 1535 579 1535 638 1535 c 0,11,12
 695 1535 695 1535 731.5 1556 c 128,-1,13
 768 1577 768 1577 790 1604.5 c 128,-1,14
 812 1632 812 1632 822 1658.5 c 128,-1,15
 832 1685 832 1685 837 1696 c 1,16,-1
 994 1696 l 1,17,18
 994 1635 994 1635 969 1574.5 c 128,-1,19
 944 1514 944 1514 897.5 1466 c 128,-1,20
 851 1418 851 1418 785 1388.5 c 128,-1,21
 719 1359 719 1359 637 1359 c 0,0,1
EndSplineSet
EndChar

StartChar: dotaccent
Encoding: 729 729 147
Width: 651
Flags: W
LayerCount: 2
Fore
SplineSet
309 1342 m 0,0,1
 278 1342 278 1342 250 1351 c 128,-1,2
 222 1360 222 1360 200.5 1376.5 c 128,-1,3
 179 1393 179 1393 166.5 1417.5 c 128,-1,4
 154 1442 154 1442 154 1473 c 0,5,6
 154 1507 154 1507 170 1536 c 128,-1,7
 186 1565 186 1565 211.5 1586 c 128,-1,8
 237 1607 237 1607 269.5 1618.5 c 128,-1,9
 302 1630 302 1630 335 1630 c 0,10,11
 377 1630 377 1630 407 1619.5 c 128,-1,12
 437 1609 437 1609 456.5 1591 c 128,-1,13
 476 1573 476 1573 485 1549 c 128,-1,14
 494 1525 494 1525 494 1497 c 0,15,16
 494 1461 494 1461 478.5 1432.5 c 128,-1,17
 463 1404 463 1404 437 1384 c 128,-1,18
 411 1364 411 1364 378 1353 c 128,-1,19
 345 1342 345 1342 309 1342 c 0,0,1
EndSplineSet
EndChar

StartChar: ring
Encoding: 730 730 148
Width: 609
Flags: W
LayerCount: 2
Fore
SplineSet
305 1300 m 256,0,1
 248 1300 248 1300 198 1320.5 c 128,-1,2
 148 1341 148 1341 110.5 1376.5 c 128,-1,3
 73 1412 73 1412 51 1459 c 128,-1,4
 29 1506 29 1506 29 1560 c 256,5,6
 29 1614 29 1614 51 1661.5 c 128,-1,7
 73 1709 73 1709 110.5 1744.5 c 128,-1,8
 148 1780 148 1780 198 1800.5 c 128,-1,9
 248 1821 248 1821 305 1821 c 256,10,11
 362 1821 362 1821 412 1800 c 128,-1,12
 462 1779 462 1779 499.5 1743.5 c 128,-1,13
 537 1708 537 1708 559 1660.5 c 128,-1,14
 581 1613 581 1613 581 1560 c 0,15,16
 581 1506 581 1506 559 1459 c 128,-1,17
 537 1412 537 1412 499.5 1376.5 c 128,-1,18
 462 1341 462 1341 412 1320.5 c 128,-1,19
 362 1300 362 1300 305 1300 c 256,0,1
305 1427 m 0,20,21
 333 1427 333 1427 357 1437 c 128,-1,22
 381 1447 381 1447 399 1465 c 128,-1,23
 417 1483 417 1483 427 1507 c 128,-1,24
 437 1531 437 1531 437 1560 c 0,25,26
 437 1587 437 1587 427 1611 c 128,-1,27
 417 1635 417 1635 399 1653.5 c 128,-1,28
 381 1672 381 1672 357 1682.5 c 128,-1,29
 333 1693 333 1693 305 1693 c 0,30,31
 276 1693 276 1693 251.5 1682.5 c 128,-1,32
 227 1672 227 1672 209.5 1654 c 128,-1,33
 192 1636 192 1636 182 1612 c 128,-1,34
 172 1588 172 1588 172 1560 c 0,35,36
 172 1531 172 1531 182 1507 c 128,-1,37
 192 1483 192 1483 209.5 1465 c 128,-1,38
 227 1447 227 1447 251.5 1437 c 128,-1,39
 276 1427 276 1427 305 1427 c 0,20,21
EndSplineSet
EndChar

StartChar: tilde
Encoding: 732 732 149
Width: 996
Flags: W
LayerCount: 2
Fore
SplineSet
88 1477 m 1,0,1
 105 1517 105 1517 139.5 1552.5 c 128,-1,2
 174 1588 174 1588 216 1614 c 128,-1,3
 258 1640 258 1640 302 1655.5 c 128,-1,4
 346 1671 346 1671 382 1671 c 0,5,6
 434 1671 434 1671 471.5 1653 c 128,-1,7
 509 1635 509 1635 540 1613 c 128,-1,8
 571 1591 571 1591 599 1573 c 128,-1,9
 627 1555 627 1555 661 1555 c 0,10,11
 689 1555 689 1555 713.5 1562.5 c 128,-1,12
 738 1570 738 1570 759.5 1582 c 128,-1,13
 781 1594 781 1594 800 1608.5 c 128,-1,14
 819 1623 819 1623 835 1637 c 1,15,-1
 908 1550 l 1,16,17
 890 1510 890 1510 856.5 1474.5 c 128,-1,18
 823 1439 823 1439 782 1412 c 128,-1,19
 741 1385 741 1385 698 1369.5 c 128,-1,20
 655 1354 655 1354 618 1354 c 0,21,22
 566 1354 566 1354 528 1372.5 c 128,-1,23
 490 1391 490 1391 458.5 1413 c 128,-1,24
 427 1435 427 1435 398 1453.5 c 128,-1,25
 369 1472 369 1472 335 1472 c 0,26,27
 310 1472 310 1472 285.5 1464.5 c 128,-1,28
 261 1457 261 1457 238.5 1445 c 128,-1,29
 216 1433 216 1433 196 1418.5 c 128,-1,30
 176 1404 176 1404 160 1390 c 1,31,-1
 88 1477 l 1,0,1
EndSplineSet
EndChar

StartChar: hungarumlaut
Encoding: 733 733 150
Width: 949
Flags: W
LayerCount: 2
Fore
SplineSet
612 1409 m 1,0,-1
 914 1825 l 1,1,-1
 1100 1680 l 1,2,3
 1079 1653 1079 1653 1050 1620 c 128,-1,4
 1021 1587 1021 1587 987.5 1552.5 c 128,-1,5
 954 1518 954 1518 917.5 1484 c 128,-1,6
 881 1450 881 1450 845 1420 c 128,-1,7
 809 1390 809 1390 775 1366.5 c 128,-1,8
 741 1343 741 1343 712 1330 c 1,9,-1
 612 1409 l 1,0,-1
75 1409 m 1,10,-1
 380 1825 l 1,11,-1
 560 1680 l 1,12,13
 530 1639 530 1639 482.5 1588 c 128,-1,14
 435 1537 435 1537 382 1487 c 128,-1,15
 329 1437 329 1437 275.5 1395 c 128,-1,16
 222 1353 222 1353 179 1330 c 1,17,-1
 75 1409 l 1,10,-1
EndSplineSet
EndChar

StartChar: ogonek
Encoding: 731 731 151
Width: 743
Flags: W
LayerCount: 2
Fore
SplineSet
287 9 m 1,0,-1
 398 0 l 1,1,2
 347 -18 347 -18 297.5 -47 c 128,-1,3
 248 -76 248 -76 209 -108.5 c 128,-1,4
 170 -141 170 -141 144.5 -173.5 c 128,-1,5
 119 -206 119 -206 115 -232 c 1,6,7
 108 -267 108 -267 113 -288 c 128,-1,8
 118 -309 118 -309 131 -320.5 c 128,-1,9
 144 -332 144 -332 163.5 -336.5 c 128,-1,10
 183 -341 183 -341 206 -342 c 0,11,12
 236 -344 236 -344 268 -337.5 c 128,-1,13
 300 -331 300 -331 330 -321 c 128,-1,14
 360 -311 360 -311 387 -299.5 c 128,-1,15
 414 -288 414 -288 435 -280 c 1,16,-1
 464 -394 l 1,17,18
 428 -421 428 -421 385 -444.5 c 128,-1,19
 342 -468 342 -468 292 -485 c 128,-1,20
 242 -502 242 -502 183.5 -511.5 c 128,-1,21
 125 -521 125 -521 57 -519 c 0,22,23
 0 -518 0 -518 -39 -502 c 128,-1,24
 -78 -486 -78 -486 -102 -461.5 c 128,-1,25
 -126 -437 -126 -437 -137.5 -406 c 128,-1,26
 -149 -375 -149 -375 -150 -345 c 0,27,28
 -151 -305 -151 -305 -126 -257 c 128,-1,29
 -101 -209 -101 -209 -55.5 -161.5 c 128,-1,30
 -10 -114 -10 -114 52.5 -71.5 c 128,-1,31
 115 -29 115 -29 189 0 c 1,32,-1
 287 9 l 1,0,-1
EndSplineSet
EndChar

StartChar: onehalf
Encoding: 189 189 152
Width: 2686
Flags: W
LayerCount: 2
Fore
SplineSet
1609 1881 m 1,0,-1
 1787 1829 l 1,1,-1
 998 -343 l 1,2,-1
 822 -287 l 1,3,-1
 1609 1881 l 1,0,-1
273 833 m 1,4,-1
 538 868 l 1,5,-1
 538 1444 l 1,6,7
 512 1440 512 1440 480.5 1435 c 128,-1,8
 449 1430 449 1430 416 1424.5 c 128,-1,9
 383 1419 383 1419 350.5 1413 c 128,-1,10
 318 1407 318 1407 289 1402 c 1,11,-1
 260 1532 l 1,12,13
 293 1539 293 1539 338 1553 c 128,-1,14
 383 1567 383 1567 432.5 1585 c 128,-1,15
 482 1603 482 1603 532 1623 c 128,-1,16
 582 1643 582 1643 624.5 1662 c 128,-1,17
 667 1681 667 1681 698 1697 c 128,-1,18
 729 1713 729 1713 741 1723 c 1,19,-1
 810 1708 l 1,20,-1
 809 867 l 1,21,-1
 1055 833 l 1,22,-1
 1055 718 l 1,23,-1
 273 718 l 1,24,-1
 273 833 l 1,4,-1
1521 137 m 1,25,26
 1548 152 1548 152 1589.5 175 c 128,-1,27
 1631 198 1631 198 1680 227.5 c 128,-1,28
 1729 257 1729 257 1782.5 291.5 c 128,-1,29
 1836 326 1836 326 1886.5 364 c 128,-1,30
 1937 402 1937 402 1982.5 442 c 128,-1,31
 2028 482 2028 482 2061 522 c 128,-1,32
 2094 562 2094 562 2112 601 c 128,-1,33
 2130 640 2130 640 2126 675 c 1,34,35
 2120 747 2120 747 2068.5 785.5 c 128,-1,36
 2017 824 2017 824 1931 824 c 0,37,38
 1885 824 1885 824 1839.5 809.5 c 128,-1,39
 1794 795 1794 795 1752 771.5 c 128,-1,40
 1710 748 1710 748 1674 718.5 c 128,-1,41
 1638 689 1638 689 1611 659 c 1,42,-1
 1532 763 l 1,43,44
 1555 802 1555 802 1600.5 845.5 c 128,-1,45
 1646 889 1646 889 1707 925 c 128,-1,46
 1768 961 1768 961 1840 984.5 c 128,-1,47
 1912 1008 1912 1008 1989 1008 c 0,48,49
 2101 1008 2101 1008 2180 984.5 c 128,-1,50
 2259 961 2259 961 2308.5 921 c 128,-1,51
 2358 881 2358 881 2381 829.5 c 128,-1,52
 2404 778 2404 778 2404 722 c 0,53,54
 2404 632 2404 632 2357 557 c 128,-1,55
 2310 482 2310 482 2227.5 412 c 128,-1,56
 2145 342 2145 342 2032 274.5 c 128,-1,57
 1919 207 1919 207 1788 132 c 1,58,-1
 2284 197 l 1,59,-1
 2392 342 l 1,60,-1
 2529 299 l 1,61,-1
 2466 -2 l 1,62,-1
 1575 -2 l 1,63,-1
 1521 137 l 1,25,26
EndSplineSet
EndChar

StartChar: onesuperior
Encoding: 185 185 153
Width: 1107
Flags: W
LayerCount: 2
Fore
SplineSet
206 833 m 1,0,-1
 471 868 l 1,1,-1
 471 1444 l 1,2,3
 445 1440 445 1440 413.5 1435 c 128,-1,4
 382 1430 382 1430 349 1424.5 c 128,-1,5
 316 1419 316 1419 283.5 1413 c 128,-1,6
 251 1407 251 1407 222 1402 c 1,7,-1
 193 1532 l 1,8,9
 226 1539 226 1539 271 1553 c 128,-1,10
 316 1567 316 1567 365.5 1585 c 128,-1,11
 415 1603 415 1603 465 1623 c 128,-1,12
 515 1643 515 1643 557.5 1662 c 128,-1,13
 600 1681 600 1681 631 1697 c 128,-1,14
 662 1713 662 1713 674 1723 c 1,15,-1
 742 1708 l 1,16,-1
 741 867 l 1,17,-1
 987 833 l 1,18,-1
 987 718 l 1,19,-1
 206 718 l 1,20,-1
 206 833 l 1,0,-1
EndSplineSet
EndChar

StartChar: twosuperior
Encoding: 178 178 154
Width: 1246
Flags: W
LayerCount: 2
Fore
SplineSet
141 859 m 1,0,1
 178 878 178 878 238.5 912.5 c 128,-1,2
 299 947 299 947 368 991 c 128,-1,3
 437 1035 437 1035 507 1086.5 c 128,-1,4
 577 1138 577 1138 632 1191 c 128,-1,5
 687 1244 687 1244 719.5 1297 c 128,-1,6
 752 1350 752 1350 746 1397 c 1,7,8
 741 1469 741 1469 689.5 1507.5 c 128,-1,9
 638 1546 638 1546 551 1546 c 0,10,11
 505 1546 505 1546 459.5 1531.5 c 128,-1,12
 414 1517 414 1517 372 1493.5 c 128,-1,13
 330 1470 330 1470 294 1440.5 c 128,-1,14
 258 1411 258 1411 231 1381 c 1,15,-1
 152 1485 l 1,16,17
 175 1524 175 1524 220.5 1567.5 c 128,-1,18
 266 1611 266 1611 327 1647 c 128,-1,19
 388 1683 388 1683 460 1706.5 c 128,-1,20
 532 1730 532 1730 609 1730 c 0,21,22
 721 1730 721 1730 800 1706.5 c 128,-1,23
 879 1683 879 1683 928.5 1643 c 128,-1,24
 978 1603 978 1603 1001 1551.5 c 128,-1,25
 1024 1500 1024 1500 1024 1444 c 0,26,27
 1024 1354 1024 1354 977 1279 c 128,-1,28
 930 1204 930 1204 847.5 1134 c 128,-1,29
 765 1064 765 1064 652 996.5 c 128,-1,30
 539 929 539 929 408 854 c 1,31,-1
 904 919 l 1,32,-1
 1012 1064 l 1,33,-1
 1149 1021 l 1,34,-1
 1087 720 l 1,35,-1
 195 720 l 1,36,-1
 141 859 l 1,0,1
EndSplineSet
EndChar

StartChar: onequarter
Encoding: 188 188 155
Width: 2686
Flags: W
LayerCount: 2
Fore
SplineSet
1609 1886 m 1,0,-1
 1787 1827 l 1,1,-1
 998 -343 l 1,2,-1
 822 -281 l 1,3,-1
 1609 1886 l 1,0,-1
273 833 m 1,4,-1
 538 868 l 1,5,-1
 538 1444 l 1,6,7
 512 1440 512 1440 480.5 1435 c 128,-1,8
 449 1430 449 1430 416 1424.5 c 128,-1,9
 383 1419 383 1419 350.5 1413 c 128,-1,10
 318 1407 318 1407 289 1402 c 1,11,-1
 260 1532 l 1,12,13
 293 1539 293 1539 338 1553 c 128,-1,14
 383 1567 383 1567 432.5 1585 c 128,-1,15
 482 1603 482 1603 532 1623 c 128,-1,16
 582 1643 582 1643 624.5 1662 c 128,-1,17
 667 1681 667 1681 698 1697 c 128,-1,18
 729 1713 729 1713 741 1723 c 1,19,-1
 810 1708 l 1,20,-1
 809 867 l 1,21,-1
 1055 833 l 1,22,-1
 1055 718 l 1,23,-1
 273 718 l 1,24,-1
 273 833 l 1,4,-1
1987 1081 m 1,25,-1
 2087 1081 l 1,26,-1
 2211 949 l 1,27,-1
 1731 379 l 1,28,-1
 1654 284 l 1,29,-1
 2012 318 l 1,30,-1
 2020 539 l 1,31,-1
 2238 564 l 1,32,-1
 2238 339 l 1,33,-1
 2469 361 l 1,34,-1
 2470 142 l 1,35,-1
 2238 142 l 1,36,-1
 2238 -177 l 1,37,-1
 1995 -177 l 1,38,-1
 2006 142 l 1,39,-1
 1495 142 l 1,40,-1
 1444 267 l 1,41,-1
 1987 1081 l 1,25,-1
EndSplineSet
EndChar

StartChar: threequarters
Encoding: 190 190 156
Width: 2782
Flags: W
LayerCount: 2
Fore
SplineSet
1609 1881 m 1,0,-1
 1787 1829 l 1,1,-1
 998 -343 l 1,2,-1
 822 -287 l 1,3,-1
 1609 1881 l 1,0,-1
290 795 m 1,4,5
 315 787 315 787 347 780 c 128,-1,6
 379 773 379 773 412 768 c 128,-1,7
 445 763 445 763 477 760.5 c 128,-1,8
 509 758 509 758 535 759 c 0,9,10
 669 764 669 764 742 812 c 128,-1,11
 815 860 815 860 823 934 c 1,12,13
 824 959 824 959 818 988.5 c 128,-1,14
 812 1018 812 1018 794 1044.5 c 128,-1,15
 776 1071 776 1071 742.5 1092.5 c 128,-1,16
 709 1114 709 1114 657 1123 c 1,17,-1
 441 1074 l 1,18,-1
 443 1218 l 1,19,20
 584 1253 584 1253 660.5 1299 c 128,-1,21
 737 1345 737 1345 762 1407 c 0,22,23
 767 1422 767 1422 768.5 1440 c 128,-1,24
 770 1458 770 1458 768 1476 c 1,25,26
 767 1502 767 1502 750 1519.5 c 128,-1,27
 733 1537 733 1537 708 1548 c 128,-1,28
 683 1559 683 1559 655.5 1563.5 c 128,-1,29
 628 1568 628 1568 606 1568 c 0,30,31
 574 1568 574 1568 537 1562 c 128,-1,32
 500 1556 500 1556 461 1544.5 c 128,-1,33
 422 1533 422 1533 384 1516 c 128,-1,34
 346 1499 346 1499 313 1478 c 1,35,-1
 252 1585 l 1,36,37
 277 1608 277 1608 321.5 1631 c 128,-1,38
 366 1654 366 1654 420 1673 c 128,-1,39
 474 1692 474 1692 534 1704.5 c 128,-1,40
 594 1717 594 1717 651 1719 c 0,41,42
 752 1722 752 1722 823.5 1699.5 c 128,-1,43
 895 1677 895 1677 940 1641 c 128,-1,44
 985 1605 985 1605 1006 1561 c 128,-1,45
 1027 1517 1027 1517 1027 1477 c 0,46,47
 1027 1393 1027 1393 979.5 1328.5 c 128,-1,48
 932 1264 932 1264 818 1217 c 1,49,50
 876 1214 876 1214 919 1198 c 128,-1,51
 962 1182 962 1182 992.5 1158 c 128,-1,52
 1023 1134 1023 1134 1042.5 1105 c 128,-1,53
 1062 1076 1062 1076 1073.5 1048.5 c 128,-1,54
 1085 1021 1085 1021 1089 997.5 c 128,-1,55
 1093 974 1093 974 1093 961 c 0,56,57
 1093 893 1093 893 1063 830 c 128,-1,58
 1033 767 1033 767 972.5 718.5 c 128,-1,59
 912 670 912 670 821 641 c 128,-1,60
 730 612 730 612 607 612 c 0,61,62
 506 612 506 612 426 627.5 c 128,-1,63
 346 643 346 643 290 664 c 1,64,-1
 290 795 l 1,4,5
1976 1081 m 1,65,-1
 2087 1081 l 1,66,-1
 2211 949 l 1,67,-1
 1731 379 l 1,68,-1
 1654 284 l 1,69,-1
 2012 318 l 1,70,-1
 2020 539 l 1,71,-1
 2238 564 l 1,72,-1
 2238 339 l 1,73,-1
 2469 361 l 1,74,-1
 2470 142 l 1,75,-1
 2238 142 l 1,76,-1
 2238 -177 l 1,77,-1
 1995 -177 l 1,78,-1
 2006 142 l 1,79,-1
 1495 142 l 1,80,-1
 1444 267 l 1,81,-1
 1976 1081 l 1,65,-1
EndSplineSet
EndChar

StartChar: threesuperior
Encoding: 179 179 157
Width: 1140
Flags: W
LayerCount: 2
Fore
SplineSet
210 795 m 1,0,1
 235 787 235 787 267 780 c 128,-1,2
 299 773 299 773 332 768 c 128,-1,3
 365 763 365 763 397 760.5 c 128,-1,4
 429 758 429 758 455 759 c 0,5,6
 589 764 589 764 662 812 c 128,-1,7
 735 860 735 860 743 934 c 1,8,9
 744 959 744 959 738 988.5 c 128,-1,10
 732 1018 732 1018 714 1044.5 c 128,-1,11
 696 1071 696 1071 662.5 1092.5 c 128,-1,12
 629 1114 629 1114 577 1123 c 1,13,-1
 361 1074 l 1,14,-1
 363 1218 l 1,15,16
 504 1253 504 1253 580.5 1299 c 128,-1,17
 657 1345 657 1345 682 1407 c 0,18,19
 688 1422 688 1422 689 1440 c 128,-1,20
 690 1458 690 1458 688 1476 c 1,21,22
 687 1502 687 1502 670 1519.5 c 128,-1,23
 653 1537 653 1537 628 1548 c 128,-1,24
 603 1559 603 1559 575.5 1563.5 c 128,-1,25
 548 1568 548 1568 526 1568 c 0,26,27
 494 1568 494 1568 457 1562 c 128,-1,28
 420 1556 420 1556 381 1544.5 c 128,-1,29
 342 1533 342 1533 304 1516 c 128,-1,30
 266 1499 266 1499 233 1478 c 1,31,-1
 172 1585 l 1,32,33
 197 1608 197 1608 241.5 1631 c 128,-1,34
 286 1654 286 1654 340 1673 c 128,-1,35
 394 1692 394 1692 454 1704.5 c 128,-1,36
 514 1717 514 1717 571 1719 c 0,37,38
 672 1722 672 1722 743.5 1699.5 c 128,-1,39
 815 1677 815 1677 860 1641 c 128,-1,40
 905 1605 905 1605 926 1561 c 128,-1,41
 947 1517 947 1517 947 1477 c 0,42,43
 947 1393 947 1393 899.5 1328.5 c 128,-1,44
 852 1264 852 1264 738 1217 c 1,45,46
 796 1214 796 1214 839 1198 c 128,-1,47
 882 1182 882 1182 912.5 1158 c 128,-1,48
 943 1134 943 1134 962.5 1105 c 128,-1,49
 982 1076 982 1076 993.5 1048.5 c 128,-1,50
 1005 1021 1005 1021 1009 997.5 c 128,-1,51
 1013 974 1013 974 1013 961 c 0,52,53
 1013 893 1013 893 983 830 c 128,-1,54
 953 767 953 767 892.5 718.5 c 128,-1,55
 832 670 832 670 741 641 c 128,-1,56
 650 612 650 612 528 612 c 0,57,58
 426 612 426 612 346 627.5 c 128,-1,59
 266 643 266 643 210 664 c 1,60,-1
 210 795 l 1,0,1
EndSplineSet
EndChar

StartChar: grave.cap
Encoding: 65539 -1 158
Width: 1062
Flags: W
LayerCount: 2
Fore
SplineSet
560 1599 m 1,0,1
 530 1602 530 1602 475 1614 c 128,-1,2
 420 1626 420 1626 356.5 1645 c 128,-1,3
 293 1664 293 1664 230.5 1690 c 128,-1,4
 168 1716 168 1716 124 1747 c 1,5,-1
 297 1920 l 1,6,-1
 641 1683 l 1,7,-1
 560 1599 l 1,8,-1
 560 1599 l 1,0,1
EndSplineSet
EndChar

StartChar: dieresis.cap
Encoding: 65540 -1 159
Width: 1062
Flags: W
LayerCount: 2
Fore
SplineSet
774 1633 m 0,0,1
 744 1633 744 1633 715.5 1642 c 128,-1,2
 687 1651 687 1651 665 1668 c 128,-1,3
 643 1685 643 1685 630 1709.5 c 128,-1,4
 617 1734 617 1734 617 1766 c 0,5,6
 617 1799 617 1799 633 1827 c 128,-1,7
 649 1855 649 1855 675 1876 c 128,-1,8
 701 1897 701 1897 733.5 1908.5 c 128,-1,9
 766 1920 766 1920 799 1920 c 0,10,11
 841 1920 841 1920 870.5 1910 c 128,-1,12
 900 1900 900 1900 919 1882 c 128,-1,13
 938 1864 938 1864 946.5 1840 c 128,-1,14
 955 1816 955 1816 955 1788 c 0,15,16
 955 1752 955 1752 940 1723.5 c 128,-1,17
 925 1695 925 1695 899.5 1675 c 128,-1,18
 874 1655 874 1655 841.5 1644 c 128,-1,19
 809 1633 809 1633 774 1633 c 0,0,1
262 1632 m 0,20,21
 231 1632 231 1632 203 1641 c 128,-1,22
 175 1650 175 1650 153.5 1666.5 c 128,-1,23
 132 1683 132 1683 119.5 1707.5 c 128,-1,24
 107 1732 107 1732 107 1764 c 0,25,26
 107 1798 107 1798 122.5 1826.5 c 128,-1,27
 138 1855 138 1855 163.5 1876 c 128,-1,28
 189 1897 189 1897 221.5 1908.5 c 128,-1,29
 254 1920 254 1920 287 1920 c 0,30,31
 329 1920 329 1920 359 1909.5 c 128,-1,32
 389 1899 389 1899 408.5 1881 c 128,-1,33
 428 1863 428 1863 437.5 1839 c 128,-1,34
 447 1815 447 1815 447 1787 c 0,35,36
 447 1752 447 1752 431.5 1723 c 128,-1,37
 416 1694 416 1694 390 1674 c 128,-1,38
 364 1654 364 1654 330.5 1643 c 128,-1,39
 297 1632 297 1632 262 1632 c 0,20,21
EndSplineSet
EndChar

StartChar: commabelow
Encoding: 65541 -1 160
Width: 741
Flags: W
LayerCount: 2
Fore
SplineSet
334 -40 m 1,0,1
 386 -46 386 -46 430 -69 c 128,-1,2
 474 -92 474 -92 505.5 -128 c 128,-1,3
 537 -164 537 -164 554.5 -210.5 c 128,-1,4
 572 -257 572 -257 572 -310 c 0,5,6
 572 -376 572 -376 544.5 -432.5 c 128,-1,7
 517 -489 517 -489 477.5 -532 c 128,-1,8
 438 -575 438 -575 394.5 -603 c 128,-1,9
 351 -631 351 -631 320 -640 c 1,10,-1
 223 -589 l 1,11,-1
 223 -566 l 1,12,13
 242 -553 242 -553 259.5 -534.5 c 128,-1,14
 277 -516 277 -516 290.5 -492 c 128,-1,15
 304 -468 304 -468 312.5 -440 c 128,-1,16
 321 -412 321 -412 321 -380 c 0,17,18
 321 -353 321 -353 310.5 -328.5 c 128,-1,19
 300 -304 300 -304 283.5 -285.5 c 128,-1,20
 267 -267 267 -267 246.5 -256 c 128,-1,21
 226 -245 226 -245 206 -245 c 1,22,-1
 206 -178 l 1,23,-1
 334 -40 l 1,0,1
EndSplineSet
EndChar

StartChar: commaaccent
Encoding: 65542 -1 161
Width: 741
Flags: W
LayerCount: 2
Fore
SplineSet
334 -40 m 1,0,1
 386 -46 386 -46 430 -69 c 128,-1,2
 474 -92 474 -92 505.5 -128 c 128,-1,3
 537 -164 537 -164 554.5 -210.5 c 128,-1,4
 572 -257 572 -257 572 -310 c 0,5,6
 572 -376 572 -376 544.5 -432.5 c 128,-1,7
 517 -489 517 -489 477.5 -532 c 128,-1,8
 438 -575 438 -575 394.5 -603 c 128,-1,9
 351 -631 351 -631 320 -640 c 1,10,-1
 223 -589 l 1,11,-1
 223 -566 l 1,12,13
 242 -553 242 -553 259.5 -534.5 c 128,-1,14
 277 -516 277 -516 290.5 -492 c 128,-1,15
 304 -468 304 -468 312.5 -440 c 128,-1,16
 321 -412 321 -412 321 -380 c 0,17,18
 321 -353 321 -353 310.5 -328.5 c 128,-1,19
 300 -304 300 -304 283.5 -285.5 c 128,-1,20
 267 -267 267 -267 246.5 -256 c 128,-1,21
 226 -245 226 -245 206 -245 c 1,22,-1
 206 -178 l 1,23,-1
 334 -40 l 1,0,1
EndSplineSet
EndChar

StartChar: circumflex.cap
Encoding: 65543 -1 162
Width: 1062
Flags: W
LayerCount: 2
Fore
SplineSet
160 1667 m 1,0,-1
 426 1920 l 1,1,-1
 639 1920 l 1,2,-1
 903 1668 l 1,3,-1
 802 1605 l 1,4,-1
 534 1751 l 1,5,-1
 257 1605 l 1,6,-1
 160 1667 l 1,0,-1
EndSplineSet
EndChar

StartChar: caron.cap
Encoding: 65544 -1 163
Width: 910
Flags: W
LayerCount: 2
Fore
SplineSet
163 1857 m 1,0,-1
 264 1920 l 1,1,-1
 530 1775 l 1,2,-1
 804 1920 l 1,3,-1
 900 1859 l 1,4,-1
 638 1605 l 1,5,-1
 424 1605 l 1,6,-1
 163 1857 l 1,0,-1
EndSplineSet
EndChar

StartChar: breve.cap
Encoding: 65545 -1 164
Width: 661
Flags: W
LayerCount: 2
Fore
SplineSet
331 1593 m 0,0,1
 245 1593 245 1593 179 1621 c 128,-1,2
 113 1649 113 1649 68.5 1695 c 128,-1,3
 24 1741 24 1741 1 1800 c 128,-1,4
 -22 1859 -22 1859 -22 1920 c 1,5,-1
 134 1920 l 1,6,7
 138 1909 138 1909 148 1884.5 c 128,-1,8
 158 1860 158 1860 179 1834.5 c 128,-1,9
 200 1809 200 1809 236.5 1789.5 c 128,-1,10
 273 1770 273 1770 332 1770 c 0,11,12
 389 1770 389 1770 425.5 1789 c 128,-1,13
 462 1808 462 1808 484 1833.5 c 128,-1,14
 506 1859 506 1859 516 1884 c 128,-1,15
 526 1909 526 1909 531 1920 c 1,16,-1
 683 1920 l 1,17,18
 683 1859 683 1859 658.5 1800 c 128,-1,19
 634 1741 634 1741 588.5 1695 c 128,-1,20
 543 1649 543 1649 478 1621 c 128,-1,21
 413 1593 413 1593 331 1593 c 0,0,1
EndSplineSet
EndChar

StartChar: ring.cap
Encoding: 65546 -1 165
Width: 708
Flags: W
LayerCount: 2
Fore
SplineSet
353 1437 m 0,0,1
 299 1437 299 1437 248.5 1454 c 128,-1,2
 198 1471 198 1471 160 1502 c 128,-1,3
 122 1533 122 1533 99 1577.5 c 128,-1,4
 76 1622 76 1622 76 1678 c 0,5,6
 76 1733 76 1733 97.5 1778 c 128,-1,7
 119 1823 119 1823 156 1854.5 c 128,-1,8
 193 1886 193 1886 243.5 1903 c 128,-1,9
 294 1920 294 1920 353 1920 c 256,10,11
 412 1920 412 1920 463 1902.5 c 128,-1,12
 514 1885 514 1885 551.5 1853 c 128,-1,13
 589 1821 589 1821 610.5 1776.5 c 128,-1,14
 632 1732 632 1732 632 1678 c 0,15,16
 632 1622 632 1622 609 1577.5 c 128,-1,17
 586 1533 586 1533 547.5 1502 c 128,-1,18
 509 1471 509 1471 458.5 1454 c 128,-1,19
 408 1437 408 1437 353 1437 c 0,0,1
353 1555 m 0,20,21
 380 1555 380 1555 403.5 1564 c 128,-1,22
 427 1573 427 1573 444.5 1589.5 c 128,-1,23
 462 1606 462 1606 472 1628 c 128,-1,24
 482 1650 482 1650 482 1677 c 0,25,26
 482 1703 482 1703 472 1725.5 c 128,-1,27
 462 1748 462 1748 444.5 1765 c 128,-1,28
 427 1782 427 1782 403.5 1791.5 c 128,-1,29
 380 1801 380 1801 353 1801 c 0,30,31
 325 1801 325 1801 301.5 1791.5 c 128,-1,32
 278 1782 278 1782 260.5 1765.5 c 128,-1,33
 243 1749 243 1749 233.5 1726.5 c 128,-1,34
 224 1704 224 1704 224 1677 c 0,35,36
 224 1623 224 1623 260.5 1589 c 128,-1,37
 297 1555 297 1555 353 1555 c 0,20,21
EndSplineSet
EndChar

StartChar: ogonek.cap
Encoding: 65547 -1 166
Width: 743
Flags: W
LayerCount: 2
Fore
SplineSet
286 6 m 1,0,-1
 397 0 l 1,1,2
 347 -15 347 -15 298 -43.5 c 128,-1,3
 249 -72 249 -72 210 -105.5 c 128,-1,4
 171 -139 171 -139 145.5 -172.5 c 128,-1,5
 120 -206 120 -206 116 -230 c 1,6,7
 109 -262 109 -262 113 -283 c 128,-1,8
 117 -304 117 -304 129 -317 c 128,-1,9
 141 -330 141 -330 160.5 -336 c 128,-1,10
 180 -342 180 -342 205 -342 c 0,11,12
 224 -342 224 -342 246 -338.5 c 128,-1,13
 268 -335 268 -335 290.5 -328.5 c 128,-1,14
 313 -322 313 -322 334 -314 c 128,-1,15
 355 -306 355 -306 373 -298 c 1,16,-1
 403 -412 l 1,17,18
 337 -467 337 -467 247 -493 c 128,-1,19
 157 -519 157 -519 56 -519 c 0,20,21
 6 -519 6 -519 -32.5 -504.5 c 128,-1,22
 -71 -490 -71 -490 -97 -466 c 128,-1,23
 -123 -442 -123 -442 -136.5 -410 c 128,-1,24
 -150 -378 -150 -378 -151 -343 c 0,25,26
 -152 -304 -152 -304 -127 -256 c 128,-1,27
 -102 -208 -102 -208 -56.5 -160.5 c 128,-1,28
 -11 -113 -11 -113 53 -70.5 c 128,-1,29
 117 -28 117 -28 194 0 c 1,30,-1
 286 6 l 1,0,-1
EndSplineSet
EndChar

StartChar: tilde.cap
Encoding: 65548 -1 167
Width: 1063
Flags: W
LayerCount: 2
Fore
SplineSet
117 1728 m 1,0,1
 134 1768 134 1768 168.5 1803.5 c 128,-1,2
 203 1839 203 1839 245 1864.5 c 128,-1,3
 287 1890 287 1890 331 1905 c 128,-1,4
 375 1920 375 1920 411 1920 c 0,5,6
 446 1920 446 1920 474 1912 c 128,-1,7
 502 1904 502 1904 525.5 1891.5 c 128,-1,8
 549 1879 549 1879 569 1864.5 c 128,-1,9
 589 1850 589 1850 608.5 1837.5 c 128,-1,10
 628 1825 628 1825 647.5 1817 c 128,-1,11
 667 1809 667 1809 690 1809 c 0,12,13
 746 1809 746 1809 789 1831.5 c 128,-1,14
 832 1854 832 1854 864 1884 c 1,15,-1
 937 1797 l 1,16,17
 919 1757 919 1757 885.5 1723.5 c 128,-1,18
 852 1690 852 1690 811 1666 c 128,-1,19
 770 1642 770 1642 727 1628.5 c 128,-1,20
 684 1615 684 1615 647 1615 c 0,21,22
 595 1615 595 1615 557 1633 c 128,-1,23
 519 1651 519 1651 487.5 1672.5 c 128,-1,24
 456 1694 456 1694 427 1712 c 128,-1,25
 398 1730 398 1730 364 1730 c 0,26,27
 340 1730 340 1730 316 1723.5 c 128,-1,28
 292 1717 292 1717 269 1706 c 128,-1,29
 246 1695 246 1695 225.5 1681.5 c 128,-1,30
 205 1668 205 1668 189 1653 c 1,31,-1
 117 1728 l 1,0,1
EndSplineSet
EndChar

StartChar: hungarumlaut.cap
Encoding: 65549 -1 168
Width: 920
Flags: W
LayerCount: 2
Fore
SplineSet
537 1570 m 1,0,-1
 829 1920 l 1,1,-1
 1014 1747 l 1,2,3
 967 1691 967 1691 909.5 1648.5 c 128,-1,4
 852 1606 852 1606 795.5 1576 c 128,-1,5
 739 1546 739 1546 689.5 1526.5 c 128,-1,6
 640 1507 640 1507 609 1498 c 1,7,-1
 537 1570 l 1,0,-1
28 1570 m 1,8,-1
 321 1920 l 1,9,-1
 504 1747 l 1,10,11
 457 1691 457 1691 399.5 1648.5 c 128,-1,12
 342 1606 342 1606 286 1576 c 128,-1,13
 230 1546 230 1546 181 1526.5 c 128,-1,14
 132 1507 132 1507 101 1498 c 1,15,-1
 28 1570 l 1,8,-1
EndSplineSet
EndChar

StartChar: percent
Encoding: 37 37 169
Width: 1978
Flags: W
LayerCount: 2
Fore
SplineSet
1193 1697 m 1,0,-1
 1398 1697 l 1,1,-1
 751 -100 l 1,2,-1
 547 -100 l 1,3,-1
 1193 1697 l 1,0,-1
445 692 m 0,4,5
 365 691 365 691 301.5 720 c 128,-1,6
 238 749 238 749 194 798.5 c 128,-1,7
 150 848 150 848 126 914 c 128,-1,8
 102 980 102 980 102 1053 c 0,9,10
 102 1143 102 1143 133 1212 c 128,-1,11
 164 1281 164 1281 215.5 1328.5 c 128,-1,12
 267 1376 267 1376 335 1401 c 128,-1,13
 403 1426 403 1426 477 1427 c 0,14,15
 567 1428 567 1428 631.5 1400 c 128,-1,16
 696 1372 696 1372 738 1322 c 128,-1,17
 780 1272 780 1272 799.5 1205 c 128,-1,18
 819 1138 819 1138 819 1062 c 0,19,20
 819 973 819 973 788.5 904.5 c 128,-1,21
 758 836 758 836 706 789 c 128,-1,22
 654 742 654 742 586.5 717.5 c 128,-1,23
 519 693 519 693 445 692 c 0,4,5
466 818 m 0,24,25
 533 818 533 818 570 881.5 c 128,-1,26
 607 945 607 945 607 1055 c 0,27,28
 607 1110 607 1110 595.5 1156 c 128,-1,29
 584 1202 584 1202 564.5 1234 c 128,-1,30
 545 1266 545 1266 518.5 1284 c 128,-1,31
 492 1302 492 1302 462 1302 c 0,32,33
 428 1302 428 1302 401 1285 c 128,-1,34
 374 1268 374 1268 354.5 1237 c 128,-1,35
 335 1206 335 1206 324.5 1161 c 128,-1,36
 314 1116 314 1116 314 1061 c 0,37,38
 314 1010 314 1010 326.5 966 c 128,-1,39
 339 922 339 922 360 889 c 128,-1,40
 381 856 381 856 408.5 837 c 128,-1,41
 436 818 436 818 466 818 c 0,24,25
1145 525 m 0,42,43
 1145 615 1145 615 1176 684 c 128,-1,44
 1207 753 1207 753 1258.5 800.5 c 128,-1,45
 1310 848 1310 848 1378 873 c 128,-1,46
 1446 898 1446 898 1520 899 c 0,47,48
 1610 900 1610 900 1674.5 872 c 128,-1,49
 1739 844 1739 844 1780.5 794 c 128,-1,50
 1822 744 1822 744 1842 677 c 128,-1,51
 1862 610 1862 610 1862 534 c 0,52,53
 1862 445 1862 445 1831 376 c 128,-1,54
 1800 307 1800 307 1748.5 260.5 c 128,-1,55
 1697 214 1697 214 1629 189.5 c 128,-1,56
 1561 165 1561 165 1488 164 c 0,57,58
 1408 163 1408 163 1344.5 192 c 128,-1,59
 1281 221 1281 221 1237 270.5 c 128,-1,60
 1193 320 1193 320 1169 386 c 128,-1,61
 1145 452 1145 452 1145 525 c 0,42,43
1360 533 m 0,62,63
 1360 482 1360 482 1372.5 438 c 128,-1,64
 1385 394 1385 394 1406 361 c 128,-1,65
 1427 328 1427 328 1454.5 309 c 128,-1,66
 1482 290 1482 290 1513 290 c 0,67,68
 1579 290 1579 290 1616.5 353.5 c 128,-1,69
 1654 417 1654 417 1654 527 c 0,70,71
 1654 582 1654 582 1642.5 628 c 128,-1,72
 1631 674 1631 674 1611.5 706 c 128,-1,73
 1592 738 1592 738 1565.5 756 c 128,-1,74
 1539 774 1539 774 1509 774 c 0,75,76
 1475 774 1475 774 1447.5 757 c 128,-1,77
 1420 740 1420 740 1400.5 709 c 128,-1,78
 1381 678 1381 678 1370.5 633 c 128,-1,79
 1360 588 1360 588 1360 533 c 0,62,63
EndSplineSet
EndChar

StartChar: foundryicon
Encoding: 65550 -1 170
Width: 1939
Flags: W
LayerCount: 2
Fore
SplineSet
618 1701 m 0,0,1
 589 1701 589 1701 568.5 1718 c 128,-1,2
 548 1735 548 1735 548 1759 c 0,3,4
 548 1772 548 1772 555 1791.5 c 128,-1,5
 562 1811 562 1811 572.5 1833.5 c 128,-1,6
 583 1856 583 1856 595 1879 c 128,-1,7
 607 1902 607 1902 618 1920 c 1,8,9
 652 1871 652 1871 671 1828 c 128,-1,10
 690 1785 690 1785 690 1759 c 0,11,12
 690 1735 690 1735 669 1718 c 128,-1,13
 648 1701 648 1701 618 1701 c 0,0,1
605 128 m 0,14,15
 605 145 605 145 610.5 156.5 c 128,-1,16
 616 168 616 168 624 175 c 128,-1,17
 632 182 632 182 641 185 c 128,-1,18
 650 188 650 188 658 188 c 0,19,20
 675 188 675 188 691.5 174.5 c 128,-1,21
 708 161 708 161 708 128 c 0,22,23
 708 87 708 87 712.5 60 c 128,-1,24
 717 33 717 33 728 17 c 128,-1,25
 739 1 739 1 756.5 -6 c 128,-1,26
 774 -13 774 -13 800 -13 c 0,27,28
 820 -13 820 -13 835.5 -5.5 c 128,-1,29
 851 2 851 2 862 23 c 128,-1,30
 873 44 873 44 879 81 c 128,-1,31
 885 118 885 118 885 177 c 1,32,-1
 907 177 l 1,33,-1
 907 669 l 1,34,-1
 872 669 l 1,35,36
 872 686 872 686 882 699 c 128,-1,37
 892 712 892 712 907 717 c 1,38,-1
 907 909 l 1,39,-1
 132 909 l 1,40,41
 132 977 132 977 159.5 1042 c 128,-1,42
 187 1107 187 1107 237.5 1164 c 128,-1,43
 288 1221 288 1221 359 1268.5 c 128,-1,44
 430 1316 430 1316 516 1349.5 c 128,-1,45
 602 1383 602 1383 700.5 1400.5 c 128,-1,46
 799 1418 799 1418 905 1416 c 1,47,-1
 910 1576 l 1,48,-1
 950 1576 l 1,49,-1
 959 1416 l 1,50,51
 1065 1418 1065 1418 1164 1400 c 128,-1,52
 1263 1382 1263 1382 1349 1349 c 128,-1,53
 1435 1316 1435 1316 1505.5 1268.5 c 128,-1,54
 1576 1221 1576 1221 1626.5 1164 c 128,-1,55
 1677 1107 1677 1107 1704.5 1042 c 128,-1,56
 1732 977 1732 977 1732 909 c 1,57,-1
 964 909 l 1,58,-1
 964 177 l 1,59,-1
 985 178 l 1,60,61
 985 30 985 30 940.5 -39 c 128,-1,62
 896 -108 896 -108 800 -108 c 0,63,64
 755 -108 755 -108 719 -96.5 c 128,-1,65
 683 -85 683 -85 657.5 -57.5 c 128,-1,66
 632 -30 632 -30 618.5 15.5 c 128,-1,67
 605 61 605 61 605 128 c 0,14,15
EndSplineSet
EndChar

StartChar: dotlessi
Encoding: 305 305 171
Width: 720
Flags: W
LayerCount: 2
Fore
SplineSet
93 114 m 1,0,-1
 243 140 l 1,1,-1
 243 846 l 1,2,-1
 111 959 l 1,3,-1
 111 1039 l 1,4,-1
 456 1149 l 1,5,-1
 523 1126 l 1,6,-1
 523 138 l 1,7,-1
 673 114 l 1,8,-1
 673 0 l 1,9,-1
 93 0 l 1,10,-1
 93 114 l 1,0,-1
EndSplineSet
EndChar

StartChar: oslash
Encoding: 248 248 172
Width: 1290
Flags: W
LayerCount: 2
Fore
SplineSet
411 11 m 1,0,1
 323 43 323 43 261 99 c 128,-1,2
 199 155 199 155 159.5 228.5 c 128,-1,3
 120 302 120 302 102.5 389 c 128,-1,4
 85 476 85 476 86 570 c 0,5,6
 88 715 88 715 136.5 824 c 128,-1,7
 185 933 185 933 264.5 1005 c 128,-1,8
 344 1077 344 1077 447.5 1113.5 c 128,-1,9
 551 1150 551 1150 663 1152 c 1,10,11
 726 1152 726 1152 785 1143 c 1,12,-1
 838 1308 l 1,13,-1
 936 1279 l 1,14,-1
 884 1118 l 1,15,16
 1041 1061 1041 1061 1123.5 923 c 128,-1,17
 1206 785 1206 785 1205 583 c 0,18,19
 1204 436 1204 436 1158 323 c 128,-1,20
 1112 210 1112 210 1034 133 c 128,-1,21
 956 56 956 56 853 16 c 128,-1,22
 750 -24 750 -24 636 -24 c 0,23,24
 568 -24 568 -24 512 -14 c 1,25,-1
 453 -200 l 1,26,-1
 352 -171 l 1,27,-1
 411 11 l 1,0,1
736 1006 m 1,28,29
 700 1022 700 1022 653 1024 c 1,30,31
 576 1025 576 1025 525.5 990 c 128,-1,32
 475 955 475 955 444 895.5 c 128,-1,33
 413 836 413 836 400.5 757 c 128,-1,34
 388 678 388 678 388 590 c 0,35,36
 388 541 388 541 393 488.5 c 128,-1,37
 398 436 398 436 409 385 c 128,-1,38
 420 334 420 334 437 288 c 128,-1,39
 454 242 454 242 479 205 c 1,40,-1
 736 1006 l 1,28,29
564 126 m 1,41,42
 602 107 602 107 646 107 c 0,43,44
 722 106 722 106 772 143 c 128,-1,45
 822 180 822 180 851 243 c 128,-1,46
 880 306 880 306 891.5 390.5 c 128,-1,47
 903 475 903 475 903 570 c 0,48,49
 903 621 903 621 899 672 c 128,-1,50
 895 723 895 723 885 770 c 128,-1,51
 875 817 875 817 859.5 858.5 c 128,-1,52
 844 900 844 900 821 933 c 1,53,-1
 564 126 l 1,41,42
EndSplineSet
EndChar

StartChar: aogonek
Encoding: 261 261 173
Width: 1191
Flags: W
LayerCount: 2
Fore
SplineSet
88 363 m 0,0,1
 99 426 99 426 138 474.5 c 128,-1,2
 177 523 177 523 233 559 c 128,-1,3
 289 595 289 595 357 619.5 c 128,-1,4
 425 644 425 644 493 658.5 c 128,-1,5
 561 673 561 673 625 679.5 c 128,-1,6
 689 686 689 686 737 686 c 1,7,-1
 737 724 l 2,8,9
 737 803 737 803 720 853 c 128,-1,10
 703 903 703 903 671.5 931.5 c 128,-1,11
 640 960 640 960 596 970 c 128,-1,12
 552 980 552 980 498 980 c 0,13,14
 448 980 448 980 401 971.5 c 128,-1,15
 354 963 354 963 313 951 c 128,-1,16
 272 939 272 939 239 924.5 c 128,-1,17
 206 910 206 910 184 898 c 1,18,-1
 130 1025 l 1,19,20
 155 1046 155 1046 201.5 1067.5 c 128,-1,21
 248 1089 248 1089 309 1106.5 c 128,-1,22
 370 1124 370 1124 442 1135 c 128,-1,23
 514 1146 514 1146 591 1146 c 0,24,25
 682 1146 682 1146 761 1128.5 c 128,-1,26
 840 1111 840 1111 898 1066.5 c 128,-1,27
 956 1022 956 1022 989 946.5 c 128,-1,28
 1022 871 1022 871 1022 754 c 2,29,-1
 1021 114 l 1,30,-1
 1150 114 l 1,31,-1
 1150 25 l 1,32,33
 1149 24 1149 24 1148 24 c 2,34,-1
 1154 25 l 1,35,36
 1106 -3 1106 -3 1059.5 -35.5 c 128,-1,37
 1013 -68 1013 -68 977 -104 c 128,-1,38
 941 -140 941 -140 920 -178.5 c 128,-1,39
 899 -217 899 -217 902 -256 c 1,40,41
 904 -297 904 -297 927 -318 c 128,-1,42
 950 -339 950 -339 985.5 -345.5 c 128,-1,43
 1021 -352 1021 -352 1065.5 -346 c 128,-1,44
 1110 -340 1110 -340 1154 -327 c 1,45,-1
 1154 -449 l 1,46,47
 1118 -476 1118 -476 1068 -493 c 128,-1,48
 1018 -510 1018 -510 964.5 -515.5 c 128,-1,49
 911 -521 911 -521 858.5 -513.5 c 128,-1,50
 806 -506 806 -506 764 -484.5 c 128,-1,51
 722 -463 722 -463 694.5 -426 c 128,-1,52
 667 -389 667 -389 665 -335 c 1,53,54
 662 -283 662 -283 681.5 -236 c 128,-1,55
 701 -189 701 -189 733.5 -149.5 c 128,-1,56
 766 -110 766 -110 806.5 -78 c 128,-1,57
 847 -46 847 -46 886 -24 c 1,58,59
 866 -21 866 -21 845.5 -15 c 128,-1,60
 825 -9 825 -9 807.5 3.5 c 128,-1,61
 790 16 790 16 779 36.5 c 128,-1,62
 768 57 768 57 768 87 c 2,63,-1
 768 96 l 1,64,65
 717 45 717 45 642 9.5 c 128,-1,66
 567 -26 567 -26 460 -26 c 0,67,68
 352 -26 352 -26 275 6 c 128,-1,69
 198 38 198 38 151.5 92 c 128,-1,70
 105 146 105 146 89.5 216 c 128,-1,71
 74 286 74 286 88 363 c 0,0,1
368 328 m 0,72,73
 368 221 368 221 426 176 c 128,-1,74
 484 131 484 131 593 139 c 0,75,76
 636 143 636 143 671.5 162.5 c 128,-1,77
 707 182 707 182 736 205 c 1,78,79
 736 293 736 293 736.5 380 c 128,-1,80
 737 467 737 467 737 555 c 1,81,82
 701 555 701 555 659.5 551 c 128,-1,83
 618 547 618 547 577 537 c 128,-1,84
 536 527 536 527 498.5 510 c 128,-1,85
 461 493 461 493 432 468 c 128,-1,86
 403 443 403 443 385.5 408.5 c 128,-1,87
 368 374 368 374 368 328 c 0,72,73
EndSplineSet
EndChar

StartChar: Thorn
Encoding: 222 222 174
Width: 1342
Flags: W
LayerCount: 2
Fore
SplineSet
78 116 m 1,0,-1
 252 154 l 1,1,-1
 252 1397 l 1,2,-1
 57 1418 l 1,3,-1
 57 1553 l 1,4,-1
 726 1553 l 1,5,-1
 726 1418 l 1,6,-1
 537 1396 l 1,7,-1
 537 1219 l 1,8,9
 593 1226 593 1226 655 1232.5 c 128,-1,10
 717 1239 717 1239 775 1239 c 0,11,12
 898 1239 898 1239 998.5 1215.5 c 128,-1,13
 1099 1192 1099 1192 1171 1141 c 128,-1,14
 1243 1090 1243 1090 1282 1011 c 128,-1,15
 1321 932 1321 932 1321 821 c 0,16,17
 1321 698 1321 698 1276.5 603.5 c 128,-1,18
 1232 509 1232 509 1153.5 445 c 128,-1,19
 1075 381 1075 381 967.5 349 c 128,-1,20
 860 317 860 317 733 318 c 0,21,22
 667 319 667 319 617.5 320.5 c 128,-1,23
 568 322 568 322 537 324 c 1,24,-1
 537 153 l 1,25,-1
 797 116 l 1,26,-1
 797 0 l 1,27,-1
 78 0 l 1,28,-1
 78 116 l 1,0,-1
537 463 m 1,29,30
 573 458 573 458 618.5 456.5 c 128,-1,31
 664 455 664 455 707 455 c 0,32,33
 774 455 774 455 832 475.5 c 128,-1,34
 890 496 890 496 933 539 c 128,-1,35
 976 582 976 582 1001 648.5 c 128,-1,36
 1026 715 1026 715 1026 807 c 0,37,38
 1026 882 1026 882 1001 936.5 c 128,-1,39
 976 991 976 991 930.5 1027 c 128,-1,40
 885 1063 885 1063 821 1079.5 c 128,-1,41
 757 1096 757 1096 680 1094 c 0,42,43
 629 1092 629 1092 596.5 1088 c 128,-1,44
 564 1084 564 1084 537 1078 c 1,45,-1
 537 463 l 1,29,30
EndSplineSet
EndChar

StartChar: ordfeminine
Encoding: 170 170 175
Width: 1080
Flags: W
LayerCount: 2
Fore
SplineSet
386 734 m 0,0,1
 344 734 344 734 298 749 c 128,-1,2
 252 764 252 764 214.5 795 c 128,-1,3
 177 826 177 826 152.5 872 c 128,-1,4
 128 918 128 918 128 981 c 0,5,6
 128 1041 128 1041 153 1086 c 128,-1,7
 178 1131 178 1131 220 1163.5 c 128,-1,8
 262 1196 262 1196 316.5 1216.5 c 128,-1,9
 371 1237 371 1237 430 1249.5 c 128,-1,10
 489 1262 489 1262 548 1266.5 c 128,-1,11
 607 1271 607 1271 658 1271 c 1,12,-1
 658 1292 l 2,13,14
 658 1342 658 1342 644 1371.5 c 128,-1,15
 630 1401 630 1401 604.5 1416.5 c 128,-1,16
 579 1432 579 1432 543.5 1436.5 c 128,-1,17
 508 1441 508 1441 465 1441 c 0,18,19
 428 1441 428 1441 392 1436.5 c 128,-1,20
 356 1432 356 1432 324.5 1424.5 c 128,-1,21
 293 1417 293 1417 268 1406.5 c 128,-1,22
 243 1396 243 1396 228 1385 c 1,23,-1
 182 1507 l 1,24,25
 200 1521 200 1521 236.5 1536 c 128,-1,26
 273 1551 273 1551 322.5 1563.5 c 128,-1,27
 372 1576 372 1576 430.5 1584 c 128,-1,28
 489 1592 489 1592 550 1592 c 0,29,30
 598 1592 598 1592 643.5 1588 c 128,-1,31
 689 1584 689 1584 729 1573 c 128,-1,32
 769 1562 769 1562 802 1541.5 c 128,-1,33
 835 1521 835 1521 859 1488 c 128,-1,34
 883 1455 883 1455 896 1408 c 128,-1,35
 909 1361 909 1361 909 1296 c 2,36,-1
 907 866 l 1,37,-1
 992 866 l 1,38,-1
 992 773 l 1,39,40
 974 768 974 768 947.5 761 c 128,-1,41
 921 754 921 754 891.5 747.5 c 128,-1,42
 862 741 862 741 832 736.5 c 128,-1,43
 802 732 802 732 775 732 c 0,44,45
 754 732 754 732 736 735 c 128,-1,46
 718 738 718 738 704 747.5 c 128,-1,47
 690 757 690 757 680.5 775 c 128,-1,48
 671 793 671 793 667 822 c 1,49,50
 649 806 649 806 623 790 c 128,-1,51
 597 774 597 774 562.5 761.5 c 128,-1,52
 528 749 528 749 484 741.5 c 128,-1,53
 440 734 440 734 386 734 c 0,0,1
478 882 m 0,54,55
 515 876 515 876 560.5 884 c 128,-1,56
 606 892 606 892 657 912 c 1,57,-1
 656 914 l 1,58,-1
 657 1167 l 1,59,60
 619 1165 619 1165 570.5 1158 c 128,-1,61
 522 1151 522 1151 478.5 1134 c 128,-1,62
 435 1117 435 1117 405.5 1087 c 128,-1,63
 376 1057 376 1057 376 1011 c 0,64,65
 376 960 376 960 403 925 c 128,-1,66
 430 890 430 890 478 882 c 0,54,55
EndSplineSet
EndChar

StartChar: ordmasculine
Encoding: 186 186 176
Width: 1095
Flags: W
LayerCount: 2
Fore
SplineSet
533 734 m 0,0,1
 438 734 438 734 359.5 761.5 c 128,-1,2
 281 789 281 789 224.5 843.5 c 128,-1,3
 168 898 168 898 137.5 979 c 128,-1,4
 107 1060 107 1060 109 1166 c 0,5,6
 110 1244 110 1244 130 1305.5 c 128,-1,7
 150 1367 150 1367 183 1414 c 128,-1,8
 216 1461 216 1461 259.5 1495 c 128,-1,9
 303 1529 303 1529 352 1550.5 c 128,-1,10
 401 1572 401 1572 452.5 1582 c 128,-1,11
 504 1592 504 1592 553 1593 c 0,12,13
 657 1594 657 1594 738 1563.5 c 128,-1,14
 819 1533 819 1533 874.5 1475.5 c 128,-1,15
 930 1418 930 1418 958.5 1337 c 128,-1,16
 987 1256 987 1256 986 1156 c 0,17,18
 985 1079 985 1079 965 1017.5 c 128,-1,19
 945 956 945 956 911 909.5 c 128,-1,20
 877 863 877 863 832.5 829.5 c 128,-1,21
 788 796 788 796 738 775 c 128,-1,22
 688 754 688 754 635 744 c 128,-1,23
 582 734 582 734 533 734 c 0,0,1
545 854 m 0,24,25
 588 854 588 854 621.5 866 c 128,-1,26
 655 878 655 878 677.5 910.5 c 128,-1,27
 700 943 700 943 711.5 1000 c 128,-1,28
 723 1057 723 1057 723 1148 c 0,29,30
 723 1224 723 1224 710.5 1285 c 128,-1,31
 698 1346 698 1346 675 1388 c 128,-1,32
 652 1430 652 1430 620.5 1452.5 c 128,-1,33
 589 1475 589 1475 551 1475 c 1,34,35
 517 1474 517 1474 484.5 1460.5 c 128,-1,36
 452 1447 452 1447 427 1413 c 128,-1,37
 402 1379 402 1379 386.5 1320.5 c 128,-1,38
 371 1262 371 1262 371 1172 c 0,39,40
 371 1095 371 1095 385 1035.5 c 128,-1,41
 399 976 399 976 423 935.5 c 128,-1,42
 447 895 447 895 478.5 874.5 c 128,-1,43
 510 854 510 854 545 854 c 0,24,25
EndSplineSet
EndChar

StartChar: section
Encoding: 167 167 177
Width: 1342
Flags: W
LayerCount: 2
Fore
SplineSet
297 181 m 1,0,-1
 380 -19 l 1,1,2
 404 -53 404 -53 435.5 -73.5 c 128,-1,3
 467 -94 467 -94 502.5 -105.5 c 128,-1,4
 538 -117 538 -117 576.5 -120.5 c 128,-1,5
 615 -124 615 -124 652 -124 c 0,6,7
 700 -124 700 -124 746.5 -114.5 c 128,-1,8
 793 -105 793 -105 829.5 -83 c 128,-1,9
 866 -61 866 -61 888.5 -25.5 c 128,-1,10
 911 10 911 10 911 62 c 0,11,12
 911 121 911 121 878.5 166.5 c 128,-1,13
 846 212 846 212 793 249 c 128,-1,14
 740 286 740 286 672.5 318.5 c 128,-1,15
 605 351 605 351 534 384.5 c 128,-1,16
 463 418 463 418 395.5 455.5 c 128,-1,17
 328 493 328 493 275 541 c 128,-1,18
 222 589 222 589 189.5 650.5 c 128,-1,19
 157 712 157 712 157 792 c 0,20,21
 157 832 157 832 167.5 876 c 128,-1,22
 178 920 178 920 197 962 c 128,-1,23
 216 1004 216 1004 242 1041.5 c 128,-1,24
 268 1079 268 1079 299 1106 c 1,25,26
 245 1154 245 1154 211.5 1214.5 c 128,-1,27
 178 1275 178 1275 178 1353 c 0,28,29
 178 1422 178 1422 200 1480 c 128,-1,30
 222 1538 222 1538 260.5 1584.5 c 128,-1,31
 299 1631 299 1631 350.5 1666 c 128,-1,32
 402 1701 402 1701 460.5 1724.5 c 128,-1,33
 519 1748 519 1748 581.5 1760 c 128,-1,34
 644 1772 644 1772 704 1772 c 0,35,36
 774 1772 774 1772 834.5 1765.5 c 128,-1,37
 895 1759 895 1759 944.5 1749 c 128,-1,38
 994 1739 994 1739 1031 1726 c 128,-1,39
 1068 1713 1068 1713 1091 1700 c 1,40,-1
 1091 1406 l 1,41,-1
 974 1406 l 1,42,-1
 871 1586 l 1,43,44
 851 1609 851 1609 802.5 1624.5 c 128,-1,45
 754 1640 754 1640 683 1640 c 0,46,47
 650 1640 650 1640 609.5 1627.5 c 128,-1,48
 569 1615 569 1615 533 1587.5 c 128,-1,49
 497 1560 497 1560 473 1516 c 128,-1,50
 449 1472 449 1472 449 1410 c 0,51,52
 449 1354 449 1354 480 1312 c 128,-1,53
 511 1270 511 1270 562 1236 c 128,-1,54
 613 1202 613 1202 678.5 1172 c 128,-1,55
 744 1142 744 1142 812.5 1110.5 c 128,-1,56
 881 1079 881 1079 946.5 1042 c 128,-1,57
 1012 1005 1012 1005 1063 957 c 128,-1,58
 1114 909 1114 909 1145 846 c 128,-1,59
 1176 783 1176 783 1176 699 c 0,60,61
 1176 655 1176 655 1168 611 c 128,-1,62
 1160 567 1160 567 1145 526.5 c 128,-1,63
 1130 486 1130 486 1109 450.5 c 128,-1,64
 1088 415 1088 415 1062 387 c 1,65,66
 1118 339 1118 339 1152 280.5 c 128,-1,67
 1186 222 1186 222 1186 144 c 0,68,69
 1186 28 1186 28 1142.5 -50.5 c 128,-1,70
 1099 -129 1099 -129 1025 -176.5 c 128,-1,71
 951 -224 951 -224 854 -244.5 c 128,-1,72
 757 -265 757 -265 651 -265 c 0,73,74
 574 -265 574 -265 498.5 -257.5 c 128,-1,75
 423 -250 423 -250 359.5 -238 c 128,-1,76
 296 -226 296 -226 248 -212 c 128,-1,77
 200 -198 200 -198 178 -185 c 1,78,-1
 178 181 l 1,79,-1
 297 181 l 1,0,-1
403 849 m 0,80,81
 403 804 403 804 424.5 768 c 128,-1,82
 446 732 446 732 483.5 701.5 c 128,-1,83
 521 671 521 671 570.5 644 c 128,-1,84
 620 617 620 617 676 591.5 c 128,-1,85
 732 566 732 566 791.5 540.5 c 128,-1,86
 851 515 851 515 907 486 c 1,87,88
 920 517 920 517 929 552.5 c 128,-1,89
 938 588 938 588 938 617 c 0,90,91
 938 664 938 664 916.5 703 c 128,-1,92
 895 742 895 742 858.5 775.5 c 128,-1,93
 822 809 822 809 773 838 c 128,-1,94
 724 867 724 867 669.5 894.5 c 128,-1,95
 615 922 615 922 557 949.5 c 128,-1,96
 499 977 499 977 444 1008 c 1,97,98
 427 975 427 975 415 933.5 c 128,-1,99
 403 892 403 892 403 849 c 0,80,81
EndSplineSet
EndChar

StartChar: acute.cap
Encoding: 65551 -1 178
Width: 973
Flags: W
LayerCount: 2
Fore
SplineSet
321 1683 m 1,0,-1
 676 1920 l 1,1,-1
 849 1747 l 1,2,3
 805 1716 805 1716 740.5 1690 c 128,-1,4
 676 1664 676 1664 610.5 1645 c 128,-1,5
 545 1626 545 1626 488 1614 c 128,-1,6
 431 1602 431 1602 401 1599 c 1,7,-1
 321 1683 l 1,0,-1
EndSplineSet
EndChar

StartChar: AE
Encoding: 198 198 179
Width: 1938
Flags: W
LayerCount: 2
Fore
SplineSet
4 117 m 1,0,-1
 134 149 l 1,1,-1
 700 1553 l 1,2,-1
 1723 1553 l 1,3,-1
 1756 1236 l 1,4,-1
 1604 1235 l 1,5,-1
 1547 1393 l 1,6,-1
 1039 1411 l 1,7,-1
 1199 885 l 1,8,-1
 1509 892 l 1,9,-1
 1543 1045 l 1,10,-1
 1673 1045 l 1,11,-1
 1673 582 l 1,12,-1
 1543 582 l 1,13,-1
 1507 726 l 1,14,-1
 1244 737 l 1,15,-1
 1429 131 l 1,16,-1
 1663 156 l 1,17,-1
 1769 352 l 1,18,-1
 1905 314 l 1,19,-1
 1857 0 l 1,20,-1
 958 0 l 1,21,-1
 958 116 l 1,22,-1
 1118 153 l 1,23,-1
 1047 388 l 1,24,-1
 438 388 l 1,25,-1
 350 153 l 1,26,-1
 522 117 l 1,27,-1
 522 0 l 1,28,-1
 4 0 l 1,29,-1
 4 117 l 1,0,-1
999 549 m 1,30,-1
 821 1144 l 1,31,-1
 786 1311 l 1,32,-1
 499 549 l 1,33,-1
 999 549 l 1,30,-1
EndSplineSet
EndChar

StartChar: dollar
Encoding: 36 36 180
Width: 1324
Flags: W
LayerCount: 2
Fore
SplineSet
147 432 m 1,0,-1
 270 432 l 1,1,-1
 350 209 l 1,2,3
 378 176 378 176 413.5 155.5 c 128,-1,4
 449 135 449 135 489 123.5 c 128,-1,5
 529 112 529 112 571 108.5 c 128,-1,6
 613 105 613 105 654 105 c 0,7,8
 700 105 700 105 747.5 117.5 c 128,-1,9
 795 130 795 130 833.5 158.5 c 128,-1,10
 872 187 872 187 896.5 233 c 128,-1,11
 921 279 921 279 921 346 c 0,12,13
 921 403 921 403 890 449.5 c 128,-1,14
 859 496 859 496 808 536.5 c 128,-1,15
 757 577 757 577 691 614.5 c 128,-1,16
 625 652 625 652 555 690 c 0,17,18
 480 731 480 731 407 777 c 128,-1,19
 334 823 334 823 276.5 878.5 c 128,-1,20
 219 934 219 934 183.5 1002.5 c 128,-1,21
 148 1071 148 1071 148 1158 c 0,22,23
 148 1252 148 1252 186.5 1324 c 128,-1,24
 225 1396 225 1396 287 1446 c 128,-1,25
 349 1496 349 1496 428 1525 c 128,-1,26
 507 1554 507 1554 590 1563 c 1,27,-1
 596 1754 l 1,28,-1
 785 1754 l 1,29,-1
 780 1562 l 1,30,31
 839 1557 839 1557 891 1549.5 c 128,-1,32
 943 1542 943 1542 985 1532 c 128,-1,33
 1027 1522 1027 1522 1057.5 1512 c 128,-1,34
 1088 1502 1088 1502 1103 1493 c 1,35,-1
 1103 1185 l 1,36,-1
 973 1185 l 1,37,-1
 886 1387 l 1,38,39
 876 1397 876 1397 854 1407 c 128,-1,40
 832 1417 832 1417 803 1424.5 c 128,-1,41
 774 1432 774 1432 740.5 1436.5 c 128,-1,42
 707 1441 707 1441 674 1441 c 0,43,44
 634 1441 634 1441 589 1431.5 c 128,-1,45
 544 1422 544 1422 506 1398.5 c 128,-1,46
 468 1375 468 1375 443 1336 c 128,-1,47
 418 1297 418 1297 418 1238 c 0,48,49
 418 1182 418 1182 443.5 1135.5 c 128,-1,50
 469 1089 469 1089 511.5 1048.5 c 128,-1,51
 554 1008 554 1008 610.5 973 c 128,-1,52
 667 938 667 938 729 904 c 0,53,54
 784 874 784 874 840.5 843.5 c 128,-1,55
 897 813 897 813 949.5 779 c 128,-1,56
 1002 745 1002 745 1048 707 c 128,-1,57
 1094 669 1094 669 1128.5 624.5 c 128,-1,58
 1163 580 1163 580 1182.5 527 c 128,-1,59
 1202 474 1202 474 1202 411 c 0,60,61
 1202 315 1202 315 1165.5 237.5 c 128,-1,62
 1129 160 1129 160 1063 104.5 c 128,-1,63
 997 49 997 49 905 16 c 128,-1,64
 813 -17 813 -17 702 -24 c 1,65,-1
 694 -237 l 1,66,-1
 499 -237 l 1,67,-1
 507 -20 l 1,68,69
 450 -15 450 -15 396 -6.5 c 128,-1,70
 342 2 342 2 294.5 13 c 128,-1,71
 247 24 247 24 209 36.5 c 128,-1,72
 171 49 171 49 147 63 c 1,73,-1
 147 432 l 1,0,-1
EndSplineSet
EndChar

StartChar: Oslash
Encoding: 216 216 181
Width: 1580
Flags: W
LayerCount: 2
Fore
SplineSet
482 32 m 1,0,1
 384 75 384 75 307.5 146.5 c 128,-1,2
 231 218 231 218 178.5 311.5 c 128,-1,3
 126 405 126 405 99 516.5 c 128,-1,4
 72 628 72 628 75 753 c 0,5,6
 79 943 79 943 140.5 1093.5 c 128,-1,7
 202 1244 202 1244 303 1348.5 c 128,-1,8
 404 1453 404 1453 535.5 1509 c 128,-1,9
 667 1565 667 1565 811 1567 c 0,10,11
 870 1568 870 1568 924.5 1560 c 128,-1,12
 979 1552 979 1552 1030 1537 c 1,13,-1
 1084 1692 l 1,14,-1
 1193 1653 l 1,15,-1
 1136 1493 l 1,16,17
 1224 1448 1224 1448 1294 1377.5 c 128,-1,18
 1364 1307 1364 1307 1411.5 1216 c 128,-1,19
 1459 1125 1459 1125 1483 1017 c 128,-1,20
 1507 909 1507 909 1505 789 c 0,21,22
 1501 599 1501 599 1444 448 c 128,-1,23
 1387 297 1387 297 1291 191.5 c 128,-1,24
 1195 86 1195 86 1065.5 29.5 c 128,-1,25
 936 -27 936 -27 786 -28 c 0,26,27
 734 -28 734 -28 685 -22.5 c 128,-1,28
 636 -17 636 -17 591 -5 c 1,29,-1
 513 -207 l 1,30,-1
 405 -168 l 1,31,-1
 482 32 l 1,0,1
962 1378 m 1,32,33
 927 1402 927 1402 886 1415 c 128,-1,34
 845 1428 845 1428 798 1428 c 0,35,36
 694 1428 694 1428 617.5 1383 c 128,-1,37
 541 1338 541 1338 490.5 1252 c 128,-1,38
 440 1166 440 1166 415.5 1040.5 c 128,-1,39
 391 915 391 915 391 754 c 0,40,41
 391 685 391 685 401.5 611 c 128,-1,42
 412 537 412 537 433 466.5 c 128,-1,43
 454 396 454 396 486 332.5 c 128,-1,44
 518 269 518 269 562 221 c 1,45,-1
 962 1378 l 1,32,33
657 144 m 1,46,47
 689 127 689 127 724.5 117.5 c 128,-1,48
 760 108 760 108 800 108 c 0,49,50
 903 108 903 108 976.5 152 c 128,-1,51
 1050 196 1050 196 1097.5 282.5 c 128,-1,52
 1145 369 1145 369 1167 496 c 128,-1,53
 1189 623 1189 623 1189 788 c 0,54,55
 1189 855 1189 855 1180.5 923.5 c 128,-1,56
 1172 992 1172 992 1155.5 1057.5 c 128,-1,57
 1139 1123 1139 1123 1113 1181.5 c 128,-1,58
 1087 1240 1087 1240 1053 1288 c 1,59,-1
 657 144 l 1,46,47
EndSplineSet
EndChar

StartChar: Lslash
Encoding: 321 321 182
Width: 1269
Flags: W
LayerCount: 2
Fore
SplineSet
99 116 m 1,0,-1
 252 151 l 1,1,-1
 252 550 l 1,2,-1
 80 483 l 1,3,4
 81 538 81 538 81 582 c 2,5,-1
 81 683 l 1,6,7
 81 683 81 683 93 688.5 c 128,-1,8
 105 694 105 694 127.5 703.5 c 128,-1,9
 150 713 150 713 182 726.5 c 128,-1,10
 214 740 214 740 252 756 c 1,11,-1
 252 1382 l 1,12,-1
 103 1401 l 1,13,-1
 103 1553 l 1,14,-1
 721 1553 l 1,15,-1
 721 1401 l 1,16,-1
 541 1381 l 1,17,-1
 540 876 l 1,18,19
 628 912 628 912 712.5 947 c 128,-1,20
 797 982 797 982 863 1010 c 0,21,22
 940 1043 940 1043 1010 1071 c 1,23,-1
 1010 848 l 1,24,-1
 540 663 l 1,25,-1
 540 139 l 1,26,-1
 976 173 l 1,27,-1
 1124 411 l 1,28,-1
 1247 360 l 1,29,-1
 1180 0 l 1,30,-1
 99 0 l 1,31,-1
 99 116 l 1,0,-1
EndSplineSet
EndChar

StartChar: Euro
Encoding: 8364 8364 183
Width: 1564
Flags: W
LayerCount: 2
Fore
SplineSet
32 692 m 1,0,-1
 218 692 l 1,1,-1
 218 718 l 2,2,3
 218 806 218 806 230 890 c 1,4,-1
 62 890 l 1,5,-1
 62 1042 l 1,6,-1
 263 1042 l 1,7,8
 296 1154 296 1154 355.5 1250 c 128,-1,9
 415 1346 415 1346 501.5 1416.5 c 128,-1,10
 588 1487 588 1487 703 1527 c 128,-1,11
 818 1567 818 1567 964 1567 c 0,12,13
 1042 1567 1042 1567 1106 1555 c 128,-1,14
 1170 1543 1170 1543 1223.5 1528.5 c 128,-1,15
 1277 1514 1277 1514 1321.5 1503.5 c 128,-1,16
 1366 1493 1366 1493 1404 1496 c 1,17,-1
 1387 1156 l 1,18,-1
 1260 1156 l 1,19,-1
 1197 1336 l 1,20,21
 1142 1376 1142 1376 1070 1395 c 128,-1,22
 998 1414 998 1414 906 1414 c 0,23,24
 824 1414 824 1414 763 1389 c 128,-1,25
 702 1364 702 1364 659.5 1316 c 128,-1,26
 617 1268 617 1268 590 1199 c 128,-1,27
 563 1130 563 1130 550 1042 c 1,28,-1
 1047 1042 l 1,29,-1
 1047 890 l 1,30,-1
 535 890 l 1,31,32
 533 862 533 862 533 833.5 c 128,-1,33
 533 805 533 805 533 775 c 0,34,35
 533 754 533 754 533 733 c 128,-1,36
 533 712 533 712 534 692 c 1,37,-1
 1024 692 l 1,38,-1
 1024 542 l 1,39,-1
 546 542 l 1,40,41
 558 448 558 448 584.5 369.5 c 128,-1,42
 611 291 611 291 657 235 c 128,-1,43
 703 179 703 179 772 147.5 c 128,-1,44
 841 116 841 116 939 116 c 0,45,46
 980 116 980 116 1013 119.5 c 128,-1,47
 1046 123 1046 123 1073 131 c 128,-1,48
 1100 139 1100 139 1123 150.5 c 128,-1,49
 1146 162 1146 162 1168 178 c 1,50,51
 1189 198 1189 198 1202.5 223.5 c 128,-1,52
 1216 249 1216 249 1226 277.5 c 128,-1,53
 1236 306 1236 306 1243.5 335.5 c 128,-1,54
 1251 365 1251 365 1260 393 c 1,55,56
 1296 393 1296 393 1332 392.5 c 128,-1,57
 1368 392 1368 392 1404 392 c 1,58,-1
 1404 63 l 1,59,60
 1373 66 1373 66 1344.5 60.5 c 128,-1,61
 1316 55 1316 55 1284.5 45 c 128,-1,62
 1253 35 1253 35 1216 22.5 c 128,-1,63
 1179 10 1179 10 1132.5 -1.5 c 128,-1,64
 1086 -13 1086 -13 1026.5 -20.5 c 128,-1,65
 967 -28 967 -28 891 -28 c 0,66,67
 753 -28 753 -28 641 12.5 c 128,-1,68
 529 53 529 53 445.5 127.5 c 128,-1,69
 362 202 362 202 308 307.5 c 128,-1,70
 254 413 254 413 232 542 c 1,71,-1
 32 542 l 1,72,-1
 32 692 l 1,0,-1
EndSplineSet
EndChar

